SplineFontDB: 3.2
FontName: Agave-Black
FullName: Agave Black
FamilyName: Agave-Black
Weight: Black
Copyright: (c) 2013-2021 type agaric <agaric@protonmail.com>
Version: 37 ; ttfautohint (v1.8.3)
ItalicAngle: 0
UnderlinePosition: -384
UnderlineWidth: 128
Ascent: 1536
Descent: 512
InvalidEm: 0
sfntRevision: 0x00250000
LayerCount: 2
Layer: 0 1 "+gMxmbwAA" 1
Layer: 1 1 "+Uk1mbwAA" 0
HasVMetrics: 1
XUID: [1021 327 1617118019 8083068]
StyleMap: 0x0020
FSType: 0
OS2Version: 4
OS2_WeightWidthSlopeOnly: 0
OS2_UseTypoMetrics: 1
CreationTime: 1552578602
ModificationTime: 1648220920
PfmFamily: 17
TTFWeight: 900
TTFWidth: 5
LineGap: 0
VLineGap: 0
Panose: 2 11 10 9 4 4 4 2 2 3
OS2TypoAscent: 1536
OS2TypoAOffset: 0
OS2TypoDescent: -512
OS2TypoDOffset: 0
OS2TypoLinegap: 0
OS2WinAscent: 1536
OS2WinAOffset: 0
OS2WinDescent: 512
OS2WinDOffset: 0
HheadAscent: 1536
HheadAOffset: 0
HheadDescent: -512
HheadDOffset: 0
OS2SubXSize: 1403
OS2SubYSize: 1224
OS2SubXOff: 0
OS2SubYOff: 120
OS2SupXSize: 1403
OS2SupYSize: 1224
OS2SupXOff: 0
OS2SupYOff: 648
OS2StrikeYSize: 128
OS2StrikeYPos: 512
OS2CapHeight: 1280
OS2XHeight: 1024
OS2FamilyClass: 2057
OS2Vendor: 'agrc'
OS2CodePages: 00000097.00000000
OS2UnicodeRanges: c00002ff.00000001.00000000.00000000
MarkAttachClasses: 1
DEI: 91125
TtTable: prep
SVTCA[y-axis]
MPPEM
PUSHW_1
 200
GT
IF
PUSHB_2
 1
 1
INSTCTRL
EIF
PUSHB_1
 1
PUSHW_2
 2048
 2048
MUL
WCVTF
PUSHB_2
 0
 7
WS
PUSHB_7
 0
 0
 63
 47
 33
 5
 0
LOOPCALL
PUSHB_2
 0
 7
WS
NPUSHB
 12
 76
 4
 68
 4
 52
 8
 38
 7
 24
 7
 5
 10
LOOPCALL
PUSHB_2
 0
 7
WS
NPUSHB
 12
 80
 2
 72
 2
 60
 6
 45
 5
 31
 5
 5
 10
LOOPCALL
PUSHB_2
 0
 12
WS
PUSHW_7
 4928
 4416
 3392
 2496
 1600
 5
 11
LOOPCALL
PUSHB_2
 0
 17
WS
PUSHW_7
 64
 64
 64
 64
 64
 5
 11
LOOPCALL
PUSHW_2
 3
 0
WCVTP
PUSHB_2
 36
 1
GETINFO
LTEQ
IF
PUSHB_1
 64
GETINFO
IF
PUSHW_2
 3
 100
WCVTP
PUSHB_2
 40
 1
GETINFO
LTEQ
IF
PUSHW_1
 2048
GETINFO
IF
PUSHW_2
 3
 0
WCVTP
EIF
ELSE
PUSHB_2
 39
 1
GETINFO
LTEQ
IF
PUSHW_3
 2176
 1
 1088
GETINFO
MUL
EQ
IF

StartChar: .notdef
Encoding: 65536 -1 0
Width: 1024
VWidth: 0
Flags: W
LayerCount: 2
Fore
SplineSet
320 1290 m 2,0,-1
 433 1290 l 1,1,-1
 438 1290 l 1,2,-1
 443 1290 l 1,3,-1
 443 1285 l 1,4,-1
 443 1280 l 1,5,-1
 443 1152 l 1,6,-1
 443 1147 l 1,7,-1
 443 1142 l 1,8,-1
 438 1142 l 1,9,-1
 433 1142 l 1,10,-1
 320 1142 l 2,11,12
 271.142135624 1142 271.142135624 1142 236.571067812 1107.42893219 c 128,-1,13
 202 1072.85786438 202 1072.85786438 202 1024 c 2,14,-1
 202 768 l 1,15,-1
 202 763 l 1,16,-1
 202 758 l 1,17,-1
 197 758 l 1,18,-1
 192 758 l 1,19,-1
 64 758 l 1,20,-1
 59 758 l 1,21,-1
 54 758 l 1,22,-1
 54 763 l 1,23,-1
 54 768 l 1,24,-1
 54 1024 l 2,25,26
 54 1134.14213562 54 1134.14213562 131.928932188 1212.07106781 c 128,-1,27
 209.857864376 1290 209.857864376 1290 320 1290 c 2,0,-1
591 1290 m 1,28,-1
 704 1290 l 2,29,30
 740.588706218 1290 740.588706218 1290 773.754425125 1281.32145071 c 128,-1,31
 806.964015042 1272.6314216 806.964015042 1272.6314216 836.593937806 1255.28306157 c 128,-1,32
 866.184230799 1237.95790482 866.184230799 1237.95790482 892.071067812 1212.07106781 c 0,33,34
 911.476940758 1192.66519487 911.476940758 1192.66519487 926.086704886 1171.15448027 c 128,-1,35
 940.696469014 1149.64376568 940.696469014 1149.64376568 950.465358993 1126.06817584 c 0,36,37
 970 1078.92457151 970 1078.92457151 970 1024 c 2,38,-1
 970 768 l 1,39,-1
 970 763 l 1,40,-1
 970 758 l 1,41,-1
 965 758 l 1,42,-1
 960 758 l 1,43,-1
 832 758 l 1,44,-1
 827 758 l 1,45,-1
 822 758 l 1,46,-1
 822 763 l 1,47,-1
 822 768 l 1,48,-1
 822 1024 l 2,49,50
 822 1048.57533712 822 1048.57533712 813.409599802 1069.30681923 c 128,-1,51
 804.818942454 1090.03892192 804.818942454 1090.03892192 787.428932188 1107.42893219 c 128,-1,52
 770.038901236 1124.81896314 770.038901236 1124.81896314 749.306794977 1133.40960964 c 128,-1,53
 728.575306868 1142 728.575306868 1142 704 1142 c 2,54,-1
 591 1142 l 1,55,-1
 586 1142 l 1,56,-1
 581 1142 l 1,57,-1
 581 1147 l 1,58,-1
 581 1152 l 1,59,-1
 581 1280 l 1,60,-1
 581 1285 l 1,61,-1
 581 1290 l 1,62,-1
 586 1290 l 1,63,-1
 591 1290 l 1,28,-1
64 522 m 1,64,-1
 192 522 l 1,65,-1
 197 522 l 1,66,-1
 202 522 l 1,67,-1
 202 517 l 1,68,-1
 202 512 l 1,69,-1
 202 256 l 2,70,71
 202 231.424662877 202 231.424662877 210.590400198 210.69318077 c 0,72,73
 214.882604404 200.3346698 214.882604404 200.3346698 221.366411406 190.813293508 c 128,-1,74
 227.850218408 181.291917216 227.850218408 181.291917216 236.571067812 172.571067812 c 0,75,76
 253.931685777 155.210449847 253.931685777 155.210449847 274.698729297 146.605224923 c 128,-1,77
 295.465772816 138 295.465772816 138 320 138 c 2,78,-1
 433 138 l 1,79,-1
 438 138 l 1,80,-1
 443 138 l 1,81,-1
 443 133 l 1,82,-1
 443 128 l 1,83,-1
 443 0 l 1,84,-1
 443 -5 l 1,85,-1
 443 -10 l 1,86,-1
 438 -10 l 1,87,-1
 433 -10 l 1,88,-1
 320 -10 l 2,89,90
 209.857864376 -10 209.857864376 -10 131.928932188 67.9289321881 c 128,-1,91
 54 145.857864376 54 145.857864376 54 256 c 2,92,-1
 54 512 l 1,93,-1
 54 517 l 1,94,-1
 54 522 l 1,95,-1
 59 522 l 1,96,-1
 64 522 l 1,64,-1
832 522 m 1,97,-1
 960 522 l 1,98,-1
 965 522 l 1,99,-1
 970 522 l 1,100,-1
 970 517 l 1,101,-1
 970 512 l 1,102,-1
 970 256 l 2,103,104
 970 145.857864376 970 145.857864376 892.071067812 67.9289321881 c 128,-1,105
 814.142135624 -10 814.142135624 -10 704 -10 c 2,106,-1
 591 -10 l 1,107,-1
 586 -10 l 1,108,-1
 581 -10 l 1,109,-1
 581 -5 l 1,110,-1
 581 0 l 1,111,-1
 581 128 l 1,112,-1
 581 133 l 1,113,-1
 581 138 l 1,114,-1
 586 138 l 1,115,-1
 591 138 l 1,116,-1
 704 138 l 2,117,118
 716.324118072 138 716.324118072 138 727.63627293 140.14912276 c 128,-1,119
 738.948427788 142.298245521 738.948427788 142.298245521 749.30681923 146.590400198 c 0,120,121
 770.038921922 155.181057546 770.038921922 155.181057546 787.428932188 172.571067812 c 0,122,123
 822 207.142135624 822 207.142135624 822 256 c 2,124,-1
 822 512 l 1,125,-1
 822 517 l 1,126,-1
 822 522 l 1,127,-1
 827 522 l 1,128,-1
 832 522 l 1,97,-1
EndSplineSet
EndChar

StartChar: exclam
Encoding: 33 33 4
Width: 1024
VWidth: 0
GlyphClass: 2
Flags: W
LayerCount: 2
Fore
SplineSet
384 1290 m 1,0,-1
 640 1290 l 1,1,-1
 645 1290 l 1,2,-1
 650 1290 l 1,3,-1
 650 1285 l 1,4,-1
 650 1280 l 1,5,-1
 650 896 l 1,6,-1
 649.977156421 895.324463367 l 1,7,-1
 623.977156421 511.324463367 l 1,8,-1
 623.661484485 506.662231684 l 1,9,-1
 623.345812548 502 l 1,10,-1
 618.672906274 502 l 1,11,-1
 614 502 l 1,12,-1
 410 502 l 1,13,-1
 405.327093726 502 l 1,14,-1
 400.654187452 502 l 1,15,-1
 400.338515515 506.662231684 l 1,16,-1
 400.022843579 511.324463367 l 1,17,-1
 374.022843579 895.324463367 l 1,18,-1
 374 895.661845451 l 1,19,-1
 374 1280 l 1,20,-1
 374 1285 l 1,21,-1
 374 1290 l 1,22,-1
 379 1290 l 1,23,-1
 384 1290 l 1,0,-1
341 266 m 1,24,-1
 683 266 l 1,25,-1
 688 266 l 1,26,-1
 693 266 l 1,27,-1
 693 261 l 1,28,-1
 693 256 l 1,29,-1
 693 0 l 1,30,-1
 693 -5 l 1,31,-1
 693 -10 l 1,32,-1
 688 -10 l 1,33,-1
 683 -10 l 1,34,-1
 341 -10 l 1,35,-1
 336 -10 l 1,36,-1
 331 -10 l 1,37,-1
 331 -5 l 1,38,-1
 331 0 l 1,39,-1
 331 256 l 1,40,-1
 331 261 l 1,41,-1
 331 266 l 1,42,-1
 336 266 l 1,43,-1
 341 266 l 1,24,-1
EndSplineSet
EndChar

StartChar: quotedbl
Encoding: 34 34 5
Width: 1024
VWidth: 0
GlyphClass: 2
Flags: W
LayerCount: 2
Fore
SplineSet
163 1290 m 1,0,-1
 419 1290 l 1,1,-1
 424.353465769 1290 l 1,2,-1
 429.706931538 1290 l 1,3,-1
 429.341824044 1284.65899895 l 1,4,-1
 428.97671655 1279.31799789 l 1,5,-1
 393.97671655 767.317997892 l 1,6,-1
 393.658230294 762.658998946 l 1,7,-1
 393.339744038 758 l 1,8,-1
 388.669872019 758 l 1,9,-1
 384 758 l 1,10,-1
 198 758 l 1,11,-1
 193.330127981 758 l 1,12,-1
 188.660255962 758 l 1,13,-1
 188.341769706 762.658998946 l 1,14,-1
 188.02328345 767.317997892 l 1,15,-1
 153.02328345 1279.31799789 l 1,16,-1
 152.658175956 1284.65899895 l 1,17,-1
 152.293068462 1290 l 1,18,-1
 157.646534231 1290 l 1,19,-1
 163 1290 l 1,0,-1
605 1290 m 1,20,-1
 861 1290 l 1,21,-1
 866.353465769 1290 l 1,22,-1
 871.706931538 1290 l 1,23,-1
 871.341824044 1284.65899895 l 1,24,-1
 870.97671655 1279.31799789 l 1,25,-1
 835.97671655 767.317997892 l 1,26,-1
 835.658230294 762.658998946 l 1,27,-1
 835.339744038 758 l 1,28,-1
 830.669872019 758 l 1,29,-1
 826 758 l 1,30,-1
 640 758 l 1,31,-1
 635.330127981 758 l 1,32,-1
 630.660255962 758 l 1,33,-1
 630.341769706 762.658998946 l 1,34,-1
 630.02328345 767.317997892 l 1,35,-1
 595.02328345 1279.31799789 l 1,36,-1
 594.658175956 1284.65899895 l 1,37,-1
 594.293068462 1290 l 1,38,-1
 599.646534231 1290 l 1,39,-1
 605 1290 l 1,20,-1
EndSplineSet
EndChar

StartChar: numbersign
Encoding: 35 35 6
Width: 1024
VWidth: 0
GlyphClass: 2
Flags: W
LayerCount: 2
Fore
SplineSet
206 1290 m 1,0,-1
 410 1290 l 1,1,-1
 415 1290 l 1,2,-1
 420 1290 l 1,3,-1
 420 1285 l 1,4,-1
 420 1280 l 1,5,-1
 420 987 l 1,6,-1
 604 987 l 1,7,-1
 604 1280 l 1,8,-1
 604 1285 l 1,9,-1
 604 1290 l 1,10,-1
 609 1290 l 1,11,-1
 614 1290 l 1,12,-1
 818 1290 l 1,13,-1
 823 1290 l 1,14,-1
 828 1290 l 1,15,-1
 828 1285 l 1,16,-1
 828 1280 l 1,17,-1
 828 987 l 1,18,-1
 960 987 l 1,19,-1
 965 987 l 1,20,-1
 970 987 l 1,21,-1
 970 982 l 1,22,-1
 970 977 l 1,23,-1
 970 791 l 1,24,-1
 970 786 l 1,25,-1
 970 781 l 1,26,-1
 965 781 l 1,27,-1
 960 781 l 1,28,-1
 828 781 l 1,29,-1
 828 499 l 1,30,-1
 960 499 l 1,31,-1
 965 499 l 1,32,-1
 970 499 l 1,33,-1
 970 494 l 1,34,-1
 970 489 l 1,35,-1
 970 303 l 1,36,-1
 970 298 l 1,37,-1
 970 293 l 1,38,-1
 965 293 l 1,39,-1
 960 293 l 1,40,-1
 828 293 l 1,41,-1
 828 0 l 1,42,-1
 828 -5 l 1,43,-1
 828 -10 l 1,44,-1
 823 -10 l 1,45,-1
 818 -10 l 1,46,-1
 614 -10 l 1,47,-1
 609 -10 l 1,48,-1
 604 -10 l 1,49,-1
 604 -5 l 1,50,-1
 604 0 l 1,51,-1
 604 293 l 1,52,-1
 420 293 l 1,53,-1
 420 0 l 1,54,-1
 420 -5 l 1,55,-1
 420 -10 l 1,56,-1
 415 -10 l 1,57,-1
 410 -10 l 1,58,-1
 206 -10 l 1,59,-1
 201 -10 l 1,60,-1
 196 -10 l 1,61,-1
 196 -5 l 1,62,-1
 196 0 l 1,63,-1
 196 293 l 1,64,-1
 64 293 l 1,65,-1
 59 293 l 1,66,-1
 54 293 l 1,67,-1
 54 298 l 1,68,-1
 54 303 l 1,69,-1
 54 489 l 1,70,-1
 54 494 l 1,71,-1
 54 499 l 1,72,-1
 59 499 l 1,73,-1
 64 499 l 1,74,-1
 196 499 l 1,75,-1
 196 781 l 1,76,-1
 64 781 l 1,77,-1
 59 781 l 1,78,-1
 54 781 l 1,79,-1
 54 786 l 1,80,-1
 54 791 l 1,81,-1
 54 977 l 1,82,-1
 54 982 l 1,83,-1
 54 987 l 1,84,-1
 59 987 l 1,85,-1
 64 987 l 1,86,-1
 196 987 l 1,87,-1
 196 1280 l 1,88,-1
 196 1285 l 1,89,-1
 196 1290 l 1,90,-1
 201 1290 l 1,91,-1
 206 1290 l 1,0,-1
604 781 m 1,92,-1
 420 781 l 1,93,-1
 420 499 l 1,94,-1
 604 499 l 1,95,-1
 604 781 l 1,92,-1
EndSplineSet
EndChar

StartChar: dollar
Encoding: 36 36 7
Width: 1024
VWidth: 0
GlyphClass: 2
Flags: W
LayerCount: 2
Fore
SplineSet
386.275101558 1437 m 1,0,-1
 391.404474358 1437 l 1,1,-1
 396.674103446 1437 l 1,2,-1
 666.464085302 1437 l 1,3,-1
 671.73371439 1437 l 1,4,-1
 676.863087191 1437 l 1,5,-1
 676.863087191 1432 l 1,6,-1
 676.863087191 1427.11914062 l 1,7,-1
 676.863087191 1228 l 1,8,-1
 711.779889968 1228 l 2,9,10
 772.337890625 1228 772.337890625 1228 825.751953125 1223.97070312 c 0,11,12
 852.49609375 1221.953125 852.49609375 1221.953125 871.920898438 1219.93359375 c 128,-1,13
 891.344726562 1217.91308594 891.344726562 1217.91308594 903.64453125 1215.86328125 c 2,14,-1
 927.64453125 1211.86328125 l 1,15,-1
 931.822265625 1211.16699219 l 1,16,-1
 936 1210.47070312 l 1,17,-1
 936 1206.23535156 l 1,18,-1
 936 1202 l 1,19,-1
 936 1024 l 1,20,-1
 936 1019 l 1,21,-1
 936 1014 l 1,22,-1
 931 1014 l 1,23,-1
 926 1014 l 1,24,-1
 676.863087191 1014 l 1,25,-1
 676.863087191 711.209960938 l 1,26,27
 694.936111668 706.29296875 694.936111668 706.29296875 710.350277666 701.725585938 c 128,-1,28
 725.765445495 697.159179688 725.765445495 697.159179688 739.224609375 692.733398438 c 0,29,30
 752.369140625 688.306640625 752.369140625 688.306640625 764.55859375 683.71875 c 0,31,32
 803.397460938 669.025390625 803.397460938 669.025390625 847.166015625 642.78515625 c 0,33,34
 861.928710938 633.935546875 861.928710938 633.935546875 874.82421875 624.498046875 c 128,-1,35
 887.720703125 615.061523438 887.720703125 615.061523438 898.803710938 604.984375 c 128,-1,36
 909.88671875 594.90625 909.88671875 594.90625 919.094726562 584.2265625 c 0,37,38
 926.059570312 576.147460938 926.059570312 576.147460938 932.4453125 566.9609375 c 128,-1,39
 938.81640625 557.794921875 938.81640625 557.794921875 944.600585938 547.545898438 c 0,40,41
 947.486328125 542.431640625 947.486328125 542.431640625 950.227539062 537.052734375 c 128,-1,42
 952.967773438 531.673828125 952.967773438 531.673828125 955.5625 526.032226562 c 0,43,44
 960.74609375 514.764648438 960.74609375 514.764648438 965.373046875 502.40234375 c 0,45,46
 974.709960938 477.458984375 974.709960938 477.458984375 979.361328125 449.403320312 c 0,47,48
 981.681640625 435.403320312 981.681640625 435.403320312 982.840820312 420.64453125 c 128,-1,49
 984 405.885742188 984 405.885742188 984 390.369140625 c 0,50,51
 984 265.069335938 984 265.069335938 903.298828125 190.733398438 c 0,52,53
 863.977539062 154.513671875 863.977539062 154.513671875 806.787109375 128.532226562 c 0,54,55
 751.467773438 103.400390625 751.467773438 103.400390625 676.863087191 87.8349609375 c 1,56,-1
 676.863087191 -147.021484375 l 1,57,-1
 676.863087191 -152 l 1,58,-1
 676.863087191 -157 l 1,59,-1
 671.73371439 -157 l 1,60,-1
 666.464085302 -157 l 1,61,-1
 396.674103446 -157 l 1,62,-1
 391.404474358 -157 l 1,63,-1
 386.275101558 -157 l 1,64,-1
 386.275101558 -152 l 1,65,-1
 386.275101558 -147.119140625 l 1,66,-1
 386.275101558 52 l 1,67,-1
 343.032084455 52 l 2,68,69
 277.69140625 52 277.69140625 52 218.32421875 56.0234375 c 0,70,71
 214.370117188 56.291015625 214.370117188 56.291015625 210.560546875 56.55859375 c 128,-1,72
 206.751953125 56.8271484375 206.751953125 56.8271484375 203.0859375 57.0947265625 c 128,-1,73
 199.420898438 57.3623046875 199.420898438 57.3623046875 195.899414062 57.6298828125 c 128,-1,74
 192.37890625 57.8974609375 192.37890625 57.8974609375 189.000976562 58.1650390625 c 128,-1,75
 185.624023438 58.4326171875 185.624023438 58.4326171875 182.390625 58.69921875 c 0,76,77
 166.2109375 60.0380859375 166.2109375 60.0380859375 153.506835938 61.3876953125 c 0,78,79
 147.13671875 62.0634765625 147.13671875 62.0634765625 141.647460938 62.7431640625 c 128,-1,80
 136.158203125 63.4228515625 136.158203125 63.4228515625 131.53515625 64.107421875 c 2,81,-1
 104.534179688 68.107421875 l 1,82,-1
 100.266601562 68.740234375 l 1,83,-1
 96 69.373046875 l 1,84,-1
 96 73.6865234375 l 1,85,-1
 96 78 l 1,86,-1
 96 256 l 1,87,-1
 96 261 l 1,88,-1
 96 266 l 1,89,-1
 101 266 l 1,90,-1
 106 266 l 1,91,-1
 386.275101558 266 l 1,92,-1
 386.275101558 577.965820312 l 1,93,94
 355.528919672 587.4609375 355.528919672 587.4609375 331.3046875 596.676757812 c 0,95,96
 307.427734375 605.892578125 307.427734375 605.892578125 286.619140625 615.96875 c 0,97,98
 264.530273438 626.6640625 264.530273438 626.6640625 242.875 640.893554688 c 0,99,100
 238.547851562 643.737304688 238.547851562 643.737304688 234.23828125 646.720703125 c 128,-1,101
 229.928710938 649.705078125 229.928710938 649.705078125 225.638671875 652.827148438 c 128,-1,102
 221.348632812 655.950195312 221.348632812 655.950195312 217.076171875 659.212890625 c 128,-1,103
 212.802734375 662.4765625 212.802734375 662.4765625 208.549804688 665.877929688 c 128,-1,104
 204.296875 669.280273438 204.296875 669.280273438 200.060546875 672.822265625 c 0,105,106
 156.66796875 709.107421875 156.66796875 709.107421875 134.236328125 763.934570312 c 0,107,108
 112 818.283203125 112 818.283203125 112 889.630859375 c 0,109,110
 112 1120.77246094 112 1120.77246094 386.275101558 1188.93164062 c 1,111,-1
 386.275101558 1427.02148438 l 1,112,-1
 386.275101558 1432 l 1,113,-1
 386.275101558 1437 l 1,0,-1
392.330165856 814.669921875 m 0,114,115
 422.28890887 786.661132812 422.28890887 786.661132812 476.907712721 765.493164062 c 1,116,-1
 476.907712721 994.395507812 l 1,117,118
 446.412990323 987 446.412990323 987 425.139116998 977.612304688 c 128,-1,119
 403.864241843 968.223632812 403.864241843 968.223632812 389.304637368 955.982421875 c 0,120,121
 374.353317119 943.412109375 374.353317119 943.412109375 367.000882161 928.260742188 c 128,-1,122
 359.648447203 913.109375 359.648447203 913.109375 359.648447203 895 c 0,123,124
 359.648447203 845.225585938 359.648447203 845.225585938 392.330165856 814.669921875 c 0,114,115
736.967915545 385 m 0,125,126
 736.967915545 440.284179688 736.967915545 440.284179688 696.738404963 472.280273438 c 0,127,128
 657.836319958 503.041992188 657.836319958 503.041992188 586.230476027 526.248046875 c 1,129,-1
 586.230476027 281.959960938 l 1,130,131
 637.79069098 291.5 637.79069098 291.5 671.501289685 306.4296875 c 128,-1,132
 705.210886559 321.358398438 705.210886559 321.358398438 721.088900137 340.841796875 c 128,-1,133
 736.967915545 360.32421875 736.967915545 360.32421875 736.967915545 385 c 0,125,126
EndSplineSet
EndChar

StartChar: percent
Encoding: 37 37 8
Width: 1024
VWidth: 0
GlyphClass: 2
Flags: W
LayerCount: 2
Fore
SplineSet
102.231445312 1280 m 1,0,-1
 107.231445312 1280 l 1,1,-1
 112.231445312 1280 l 1,2,-1
 404.256496447 1280 l 1,3,-1
 409.490174118 1280 l 1,4,-1
 414.602045478 1280 l 1,5,-1
 414.602045478 1275 l 1,6,-1
 414.602045478 1270 l 1,7,-1
 414.602045478 950 l 1,8,-1
 414.602045478 945 l 1,9,-1
 414.602045478 940 l 1,10,-1
 409.490174118 940 l 1,11,-1
 404.256496447 940 l 1,12,-1
 112.231445312 940 l 1,13,-1
 107.231445312 940 l 1,14,-1
 102.231445312 940 l 1,15,-1
 102.231445312 945 l 1,16,-1
 102.231445312 950 l 1,17,-1
 102.231445312 1270 l 1,18,-1
 102.231445312 1275 l 1,19,-1
 102.231445312 1280 l 1,0,-1
1012.46191406 1280 m 1,20,-1
 1008.79492188 1277.4921875 l 1,21,-1
 1005.14941406 1275 l 1,22,-1
 344.40167456 5.4736328125 l 1,23,-1
 342.952978204 2.7158203125 l 1,24,-1
 341.527245332 0 l 1,25,-1
 338.406208247 0 l 1,26,-1
 335.175345802 0 l 1,27,-1
 80.2314453125 0 l 1,28,-1
 72.1298828125 0 l 1,29,-1
 64 0 l 1,30,-1
 67.6669921875 2.5078125 l 1,31,-1
 71.3125 5 l 1,32,-1
 732.061237915 1274.52636719 l 1,33,-1
 733.508935859 1277.28417969 l 1,34,-1
 734.93466873 1280 l 1,35,-1
 738.056704227 1280 l 1,36,-1
 741.286568261 1280 l 1,37,-1
 996.231445312 1280 l 1,38,-1
 1004.33300781 1280 l 1,39,-1
 1012.46191406 1280 l 1,20,-1
661.860866997 340 m 1,40,-1
 666.972738357 340 l 1,41,-1
 672.205417615 340 l 1,42,-1
 964.231445312 340 l 1,43,-1
 969.231445312 340 l 1,44,-1
 974.231445312 340 l 1,45,-1
 974.231445312 335 l 1,46,-1
 974.231445312 330 l 1,47,-1
 974.231445312 10 l 1,48,-1
 974.231445312 5 l 1,49,-1
 974.231445312 0 l 1,50,-1
 969.231445312 0 l 1,51,-1
 964.231445312 0 l 1,52,-1
 672.205417615 0 l 1,53,-1
 666.972738357 0 l 1,54,-1
 661.860866997 0 l 1,55,-1
 661.860866997 5 l 1,56,-1
 661.860866997 10 l 1,57,-1
 661.860866997 330 l 1,58,-1
 661.860866997 335 l 1,59,-1
 661.860866997 340 l 1,40,-1
EndSplineSet
EndChar

StartChar: ampersand
Encoding: 38 38 9
Width: 1024
VWidth: 0
GlyphClass: 2
Flags: W
LayerCount: 2
Fore
SplineSet
525 1294 m 0,0,1
 539.677862657 1294 539.677862657 1294 553.618513888 1293.49323579 c 128,-1,2
 567.559488059 1292.98629184 567.559488059 1292.98629184 580.766964989 1291.97054486 c 128,-1,3
 593.968128055 1290.95507077 593.968128055 1290.95507077 603.598653809 1289.94161036 c 0,4,5
 608.449856683 1289.43109804 608.449856683 1289.43109804 612.451015083 1288.91350334 c 128,-1,6
 616.452173483 1288.39590864 616.452173483 1288.39590864 619.643989873 1287.86393924 c 2,7,-1
 631.643989873 1285.86393924 l 1,8,-1
 635.821994937 1285.16760506 l 1,9,-1
 640 1284.47127088 l 1,10,-1
 640 1280.23563544 l 1,11,-1
 640 1276 l 1,12,-1
 640 1094 l 1,13,-1
 640 1089 l 1,14,-1
 640 1084 l 1,15,-1
 635 1084 l 1,16,-1
 630 1084 l 1,17,-1
 525 1084 l 2,18,19
 485.158962796 1084 485.158962796 1084 455.205078144 1075.17924212 c 128,-1,20
 425.251193492 1066.35848424 425.251193492 1066.35848424 405.029396221 1048.92590038 c 0,21,22
 385.180427279 1031.81472026 385.180427279 1031.81472026 375.090213639 1002.4138275 c 128,-1,23
 365 973.012934742 365 973.012934742 365 931 c 0,24,25
 365 857.433103623 365 857.433103623 386.382176432 816.094229189 c 0,26,27
 406.086088081 778 406.086088081 778 438 778 c 2,28,-1
 563 778 l 1,29,-1
 563 969 l 1,30,-1
 563 974 l 1,31,-1
 563 979 l 1,32,-1
 568 979 l 1,33,-1
 573 979 l 1,34,-1
 800 979 l 1,35,-1
 805 979 l 1,36,-1
 810 979 l 1,37,-1
 810 974 l 1,38,-1
 810 969 l 1,39,-1
 810 778 l 1,40,-1
 960 778 l 1,41,-1
 965 778 l 1,42,-1
 970 778 l 1,43,-1
 970 773 l 1,44,-1
 970 768 l 1,45,-1
 970 582 l 1,46,-1
 970 577 l 1,47,-1
 970 572 l 1,48,-1
 965 572 l 1,49,-1
 960 572 l 1,50,-1
 810 572 l 1,51,-1
 810 332 l 2,52,53
 810 253.532417347 810 253.532417347 847.091616287 221.020012947 c 0,54,55
 884.762335283 188 884.762335283 188 960 188 c 2,56,-1
 965 188 l 1,57,-1
 970 188 l 1,58,-1
 970 183 l 1,59,-1
 970 178 l 1,60,-1
 970 -8 l 1,61,-1
 970 -13 l 1,62,-1
 970 -18 l 1,63,-1
 965 -18 l 1,64,-1
 960 -18 l 2,65,66
 825.808508271 -18 825.808508271 -18 737.034735319 20.2287852339 c 0,67,68
 652.11303585 56.7987461893 652.11303585 56.7987461893 609.428556872 128.291568137 c 1,69,-1
 520.467762709 -13.3194919585 l 1,70,-1
 518.997603132 -15.6597459792 l 1,71,-1
 517.527443555 -18 l 1,72,-1
 514.763721778 -18 l 1,73,-1
 512 -18 l 2,74,75
 288.513262715 -18 288.513262715 -18 171.782417839 74.6679075545 c 0,76,77
 54 168.170616453 54 168.170616453 54 384 c 0,78,79
 54 420.084897774 54 420.084897774 57.9454598865 453.684961166 c 128,-1,80
 61.8953260442 487.322548954 61.8953260442 487.322548954 69.8079932281 518.462723032 c 0,81,82
 85.6847160659 580.945309684 85.6847160659 580.945309684 108.987423117 618.7474789 c 0,83,84
 131.881296201 655.886428571 131.881296201 655.886428571 154.366137146 682.459422415 c 0,85,86
 160.026063139 689.14842586 160.026063139 689.14842586 165.306891457 694.818442515 c 128,-1,87
 170.612000751 700.514529613 170.612000751 700.514529613 175.614630138 705.260404154 c 0,88,89
 178.13233297 707.648888459 178.13233297 707.648888459 180.574157144 709.789305165 c 128,-1,90
 183.015981318 711.929721871 183.015981318 711.929721871 185.387076811 713.824866426 c 0,91,92
 190.175823553 717.652366135 190.175823553 717.652366135 194.575331925 720.402058868 c 2,93,-1
 197.406138217 722.289263063 l 1,94,95
 193.955278503 725.448651692 193.955278503 725.448651692 189.134258327 730.69198321 c 128,-1,96
 184.313238151 735.935314728 184.313238151 735.935314728 177.407433976 743.992086265 c 0,97,98
 169.54892889 753.1603422 169.54892889 753.1603422 162.616887565 763.360697145 c 128,-1,99
 155.68484624 773.56105209 155.68484624 773.56105209 149.682153581 784.783477497 c 0,100,101
 147.93504624 788.049808611 147.93504624 788.049808611 146.241043511 791.647621698 c 128,-1,102
 144.547040782 795.245434785 144.547040782 795.245434785 142.91100605 799.160764963 c 128,-1,103
 141.274971317 803.076095142 141.274971317 803.076095142 139.687902566 807.329211345 c 128,-1,104
 138.100833815 811.582327548 138.100833815 811.582327548 136.568905477 816.150735902 c 128,-1,105
 135.036977139 820.719144255 135.036977139 820.719144255 133.549788749 825.632211283 c 128,-1,106
 132.06260036 830.545278312 132.06260036 830.545278312 130.6277248 835.771412549 c 128,-1,107
 129.19284924 840.997546786 129.19284924 840.997546786 127.798574999 846.57464375 c 0,108,109
 122.895364321 866.187486461 122.895364321 866.187486461 120.44768216 887.295604264 c 128,-1,110
 118 908.403722067 118 908.403722067 118 931 c 0,111,112
 118 1125.79517649 118 1125.79517649 223.239006835 1210.29743321 c 0,113,114
 327.482080819 1294 327.482080819 1294 525 1294 c 0,0,1
399 572 m 2,115,116
 354.927401862 572 354.927401862 572 328.772622419 524.199885846 c 0,117,118
 301 473.443024183 301 473.443024183 301 384 c 0,119,120
 301 372.922485972 301 372.922485972 301.878463417 362.477077264 c 128,-1,121
 302.756926834 352.031668556 302.756926834 352.031668556 304.509925991 342.217851372 c 0,122,123
 308.005051739 322.651084903 308.005051739 322.651084903 314.988103852 305.510834031 c 0,124,125
 315.984260782 303.065716994 315.984260782 303.065716994 317.050254232 300.669797864 c 128,-1,126
 318.116247681 298.273878734 318.116247681 298.273878734 319.251851487 295.927541244 c 128,-1,127
 320.387455292 293.581203754 320.387455292 293.581203754 321.593126083 291.283488993 c 128,-1,128
 322.798796874 288.985774233 322.798796874 288.985774233 324.074113828 286.737287594 c 128,-1,129
 325.349430783 284.488800954 325.349430783 284.488800954 326.695058166 282.28834709 c 128,-1,130
 328.040685549 280.087893225 328.040685549 280.087893225 329.455994901 277.936313963 c 128,-1,131
 330.871304254 275.784734701 330.871304254 275.784734701 332.357154503 273.680613036 c 0,132,133
 335.825534164 268.769019289 335.825534164 268.769019289 339.681016139 264.108336327 c 128,-1,134
 343.536498115 259.447653366 343.536498115 259.447653366 347.787625948 255.029261021 c 128,-1,135
 352.038753782 250.610868676 352.038753782 250.610868676 356.682678176 246.43920778 c 0,136,137
 412.83198495 196 412.83198495 196 512 196 c 2,138,-1
 580.304640897 196 l 1,139,140
 563 254.606204457 563 254.606204457 563 332 c 2,141,-1
 563 572 l 1,142,-1
 399 572 l 2,115,116
EndSplineSet
EndChar

StartChar: quotesingle
Encoding: 39 39 10
Width: 1024
VWidth: 0
GlyphClass: 2
Flags: W
LayerCount: 2
Fore
SplineSet
384 1290 m 1,0,-1
 640 1290 l 1,1,-1
 645.353465769 1290 l 1,2,-1
 650.706931538 1290 l 1,3,-1
 650.341824044 1284.65899895 l 1,4,-1
 649.97671655 1279.31799789 l 1,5,-1
 614.97671655 767.317997892 l 1,6,-1
 614.658230294 762.658998946 l 1,7,-1
 614.339744038 758 l 1,8,-1
 609.669872019 758 l 1,9,-1
 605 758 l 1,10,-1
 419 758 l 1,11,-1
 414.330127981 758 l 1,12,-1
 409.660255962 758 l 1,13,-1
 409.341769706 762.658998946 l 1,14,-1
 409.02328345 767.317997892 l 1,15,-1
 374.02328345 1279.31799789 l 1,16,-1
 373.658175956 1284.65899895 l 1,17,-1
 373.293068462 1290 l 1,18,-1
 378.646534231 1290 l 1,19,-1
 384 1290 l 1,0,-1
EndSplineSet
EndChar

StartChar: parenleft
Encoding: 40 40 11
Width: 1024
VWidth: 0
GlyphClass: 2
Flags: W
LayerCount: 2
Fore
SplineSet
627 1457 m 1,0,-1
 854 1457 l 1,1,-1
 869.602325267 1457 l 1,2,-1
 885.204650534 1457 l 1,3,-1
 900.806975801 1457 l 1,4,-1
 916.409301068 1457 l 1,5,-1
 903.71316677 1447.93133264 l 1,6,-1
 891.017032471 1438.86266529 l 1,7,-1
 878.320898173 1429.79399793 l 1,8,-1
 865.624763874 1420.72533058 l 2,9,10
 864.85389567 1420.17471043 864.85389567 1420.17471043 863.976037149 1419.53013845 c 128,-1,11
 863.095131141 1418.88332883 863.095131141 1418.88332883 862.106351608 1418.14151316 c 128,-1,12
 861.114000981 1417.3969776 861.114000981 1417.3969776 860.018860315 1416.56065497 c 128,-1,13
 858.923974476 1415.72450295 858.923974476 1415.72450295 857.728886571 1414.79835053 c 0,14,15
 852.886785255 1411.0458266 852.886785255 1411.0458266 846.566742142 1405.9411764 c 0,16,17
 843.699374612 1403.6252257 843.699374612 1403.6252257 839.137284789 1399.50127514 c 128,-1,18
 834.575194965 1395.37732459 834.575194965 1395.37732459 828.4692373 1389.5720423 c 0,19,20
 816.022303501 1377.73803225 816.022303501 1377.73803225 797.642135624 1359.35786438 c 0,21,22
 785.463952309 1347.17968106 785.463952309 1347.17968106 773.715362195 1334.29384665 c 128,-1,23
 761.966772081 1321.40801225 761.966772081 1321.40801225 750.639121336 1307.80364453 c 128,-1,24
 739.311470591 1294.19927681 739.311470591 1294.19927681 728.412784448 1279.88458457 c 0,25,26
 712.175220134 1258.55763442 712.175220134 1258.55763442 693.838878634 1229.8309118 c 0,27,28
 684.624456774 1215.39509095 684.624456774 1215.39509095 674.898915739 1199.11386487 c 128,-1,29
 665.160095224 1182.81040803 665.160095224 1182.81040803 654.915668093 1164.66666359 c 0,30,31
 650.84796552 1157.46241928 650.84796552 1157.46241928 646.897765682 1150.18446699 c 128,-1,32
 642.94756094 1142.90650213 642.94756094 1142.90650213 639.114618674 1135.55435139 c 128,-1,33
 635.281680487 1128.20220335 635.281680487 1128.20220335 631.566129323 1120.77602281 c 128,-1,34
 627.850568572 1113.34981669 627.850568572 1113.34981669 624.252230616 1105.84923137 c 128,-1,35
 620.653901353 1098.3486561 620.653901353 1098.3486561 617.172860745 1090.77371157 c 128,-1,36
 613.691810434 1083.19873638 613.691810434 1083.19873638 610.327964521 1075.54918726 c 128,-1,37
 606.964127752 1067.8996477 606.964127752 1067.8996477 603.717503166 1060.17540226 c 128,-1,38
 600.470872584 1052.45112959 600.470872584 1052.45112959 597.341449174 1044.6520903 c 128,-1,39
 594.212032058 1036.85305197 594.212032058 1036.85305197 591.199772176 1028.97897476 c 128,-1,40
 588.187512597 1021.10488164 588.187512597 1021.10488164 585.292479214 1013.15582547 c 0,41,42
 580.495604983 999.984747074 580.495604983 999.984747074 575.930013946 985.905937829 c 128,-1,43
 571.364871188 971.827406514 571.364871188 971.827406514 567.031833945 956.837317851 c 128,-1,44
 562.699275843 941.84791121 562.699275843 941.84791121 558.602669726 925.949849109 c 128,-1,45
 554.506315644 910.051902343 554.506315644 910.051902343 550.648468678 893.252014226 c 128,-1,46
 546.790932734 876.452720543 546.790932734 876.452720543 543.172277961 858.742806796 c 128,-1,47
 539.553819512 841.033160832 539.553819512 841.033160832 536.178789899 822.429954045 c 0,48,49
 526.094855443 766.845339729 526.094855443 766.845339729 521.04868034 709.005159246 c 0,50,51
 518.524954688 680.07464363 518.524954688 680.07464363 517.262479137 650.573715211 c 128,-1,52
 516.000081366 621.072759854 516.000081366 621.072759854 516 591 c 0,53,54
 516 470.720506055 516 470.720506055 535.206160408 359.915734471 c 0,55,56
 541.610628934 322.966877589 541.610628934 322.966877589 549.376895688 289.334870489 c 0,57,58
 551.316343913 280.936042776 551.316343913 280.936042776 553.338562663 272.751585462 c 128,-1,59
 555.360755746 264.567127598 555.360755746 264.567127598 557.464883078 256.599618007 c 128,-1,60
 559.569002617 248.632028294 559.569002617 248.632028294 561.754738905 240.881233112 c 128,-1,61
 563.940442284 233.130441156 563.940442284 233.130441156 566.207968547 225.594896212 c 0,62,63
 569.230524813 215.55004592 569.230524813 215.55004592 572.399324195 205.881002427 c 128,-1,64
 575.568067066 196.211852914 575.568067066 196.211852914 578.879517493 186.926526152 c 128,-1,65
 582.190900719 177.64108717 582.190900719 177.64108717 585.646448676 168.732561911 c 0,66,67
 617.029804212 87.8223484178 617.029804212 87.8223484178 654.711620083 16.7893428573 c 0,68,69
 673.67527209 -18.8051085561 673.67527209 -18.8051085561 692.03604426 -47.4954857456 c 0,70,71
 710.281100726 -75.8265967159 710.281100726 -75.8265967159 728.552600539 -98.4255570112 c 0,72,73
 766.079606575 -144.840538161 766.079606575 -144.840538161 797.563999854 -178.29270602 c 0,74,75
 805.341596829 -186.556402806 805.341596829 -186.556402806 812.323165266 -193.661051453 c 128,-1,76
 819.292713024 -200.753467505 819.292713024 -200.753467505 825.455097465 -206.677975573 c 128,-1,77
 831.53276184 -212.521033885 831.53276184 -212.521033885 836.805231933 -217.210176242 c 128,-1,78
 842.040682021 -221.86639436 842.040682021 -221.86639436 846.198316635 -225.148737476 c 2,79,-1
 866 -240 l 1,80,-1
 878 -249 l 1,81,-1
 890 -258 l 1,82,-1
 902 -267 l 1,83,-1
 914 -276 l 1,84,-1
 899 -276 l 1,85,-1
 884 -276 l 1,86,-1
 869 -276 l 1,87,-1
 854 -276 l 1,88,-1
 627 -276 l 1,89,-1
 625.566018868 -276 l 1,90,-1
 624.132037736 -276 l 1,91,-1
 622.698056604 -276 l 1,92,-1
 621.264075472 -276 l 1,93,-1
 620.048061904 -275.23999152 l 1,94,-1
 618.832048336 -274.47998304 l 1,95,-1
 617.616034768 -273.71997456 l 1,96,-1
 616.4000212 -272.95996608 l 2,97,98
 613.402991473 -271.086822501 613.402991473 -271.086822501 609.766743503 -268.603393122 c 128,-1,99
 606.189690317 -266.160391698 606.189690317 -266.160391698 602.002519455 -263.136415826 c 128,-1,100
 597.848748535 -260.136561401 597.848748535 -260.136561401 592.974651071 -256.480988303 c 2,101,-1
 590.144033866 -254.301427999 l 2,102,103
 589.371958029 -253.693180134 589.371958029 -253.693180134 588.580571222 -253.057413835 c 128,-1,104
 587.790409252 -252.422631519 587.790409252 -252.422631519 586.960258805 -251.744189584 c 0,105,-1
 583.505635537 -248.8781275 l 2,106,107
 581.699001512 -247.359004001 581.699001512 -247.359004001 579.726916226 -245.662671476 c 0,108,109
 578.417730325 -244.536606442 578.417730325 -244.536606442 577.034255819 -243.331879348 c 128,-1,110
 575.65076447 -242.127145479 575.65076447 -242.127145479 574.194769506 -240.845385021 c 128,-1,111
 572.738767127 -239.56362373 572.738767127 -239.56362373 571.207228733 -238.202235407 c 0,112,113
 570.061339377 -237.183654802 570.061339377 -237.183654802 568.869874772 -236.117517297 c 128,-1,114
 567.678400308 -235.051372553 567.678400308 -235.051372553 566.441588545 -233.937894717 c 128,-1,115
 565.204778744 -232.824419926 565.204778744 -232.824419926 563.922674683 -231.663672064 c 128,-1,116
 562.64056502 -230.502920173 562.64056502 -230.502920173 561.312380919 -229.29419804 c 0,117,118
 558.660153259 -226.880523645 558.660153259 -226.880523645 555.840684095 -224.291485698 c 128,-1,119
 553.021188927 -221.702428494 553.021188927 -221.702428494 550.033457948 -218.937150557 c 0,120,121
 548.540515903 -217.55536796 548.540515903 -217.55536796 546.999303343 -216.123864836 c 128,-1,122
 545.458090784 -214.692361711 545.458090784 -214.692361711 543.86905771 -213.21155766 c 128,-1,123
 542.280024636 -211.73075361 542.280024636 -211.73075361 540.643276219 -210.200756837 c 128,-1,124
 539.006527803 -208.670760065 539.006527803 -208.670760065 537.321177422 -207.090744083 c 0,125,126
 516.851157776 -187.900100664 516.851157776 -187.900100664 497.297127723 -167.067495991 c 128,-1,127
 477.743393772 -146.235740387 477.743393772 -146.235740387 459.106937341 -123.76924516 c 0,128,129
 421.691580551 -78.6658013589 421.691580551 -78.6658013589 375.942973918 -3.94307719277 c 0,130,131
 352.982866529 33.558431543 352.982866529 33.558431543 333.340802638 73.097303377 c 128,-1,132
 313.701823393 112.629965914 313.701823393 112.629965914 297.383582265 154.190486288 c 0,133,134
 289.194640518 175.046697298 289.194640518 175.046697298 281.663068164 197.856121289 c 128,-1,135
 274.131495809 220.665545279 274.131495809 220.665545279 267.253647608 245.433296447 c 128,-1,136
 260.388387985 270.155715011 260.388387985 270.155715011 254.167616145 296.840882469 c 128,-1,137
 247.946844304 323.526049926 247.946844304 323.526049926 242.368596924 352.177956923 c 0,138,139
 220 467.071204762 220 467.071204762 220 591 c 0,140,141
 220 632.268453685 220 632.268453685 222.42593236 672.495603713 c 128,-1,142
 224.852711432 712.729288663 224.852711432 712.729288663 229.70910214 751.916857803 c 0,143,144
 231.328240479 764.982135994 231.328240479 764.982135994 233.217404438 777.929536047 c 128,-1,145
 235.106568396 790.8769361 235.106568396 790.8769361 237.266187243 803.708784229 c 128,-1,146
 239.425806089 816.540632359 239.425806089 816.540632359 241.85552493 829.254277458 c 0,147,148
 247.310944423 857.800077131 247.310944423 857.800077131 253.567149823 884.474333022 c 128,-1,149
 259.829481087 911.174707442 259.829481087 911.174707442 266.896872264 936.006167228 c 0,150,151
 269.255829142 944.294422595 269.255829142 944.294422595 271.705636256 952.376887651 c 128,-1,152
 274.155469915 960.459389583 274.155469915 960.459389583 276.697457909 968.339725277 c 128,-1,153
 279.239474164 976.220097407 279.239474164 976.220097407 281.872791471 983.894987733 c 0,154,155
 285.824091468 995.411101234 285.824091468 995.411101234 289.98279921 1006.46734592 c 128,-1,156
 294.141602985 1017.52366037 294.141602985 1017.52366037 298.508759827 1028.12063231 c 0,157,158
 315.751427398 1069.95945804 315.751427398 1069.95945804 334.922704122 1109.06567299 c 128,-1,159
 354.094820486 1148.17171301 354.094820486 1148.17171301 375.202526914 1184.53979207 c 0,160,161
 417.6664006 1257.70044192 417.6664006 1257.70044192 459.928618857 1306.14737504 c 0,162,163
 473.755825362 1321.99807518 473.755825362 1321.99807518 486.805783674 1336.34077984 c 128,-1,164
 499.855741986 1350.6834845 499.855741986 1350.6834845 512.148019755 1363.53836446 c 128,-1,165
 524.440297524 1376.39324442 524.440297524 1376.39324442 535.963006034 1387.74650134 c 0,166,167
 540.322492141 1392.04187736 540.322492141 1392.04187736 544.497378414 1396.04794803 c 128,-1,168
 548.672264687 1400.05401871 548.672264687 1400.05401871 552.663642887 1403.77167198 c 0,169,170
 555.328876612 1406.2541265 555.328876612 1406.2541265 557.914251653 1408.60958432 c 128,-1,171
 560.499723404 1410.96511356 560.499723404 1410.96511356 563.009926547 1413.19758111 c 128,-1,172
 565.520235161 1415.43012293 565.520235161 1415.43012293 567.9522097 1417.53660583 c 0,173,174
 575.276102876 1423.8802062 575.276102876 1423.8802062 581.941184986 1429.10990441 c 128,-1,175
 588.678689451 1434.39642818 588.678689451 1434.39642818 594.552886019 1438.40156221 c 2,176,-1
 615.375236126 1453.27466942 l 1,177,-1
 616.679101827 1454.20600207 l 1,178,-1
 617.982967529 1455.13733471 l 1,179,-1
 619.28683323 1456.06866736 l 1,180,-1
 620.590698932 1457 l 1,181,-1
 622.193024199 1457 l 1,182,-1
 623.795349466 1457 l 1,183,-1
 625.397674733 1457 l 1,184,-1
 627 1457 l 1,0,-1
EndSplineSet
EndChar

StartChar: parenright
Encoding: 41 41 12
Width: 1024
VWidth: 0
GlyphClass: 2
Flags: W
LayerCount: 2
Fore
SplineSet
408.958282899 1453.11102602 m 2,0,1
 412.776785028 1450.72446219 412.776785028 1450.72446219 416.114083684 1448.40310239 c 128,-1,2
 419.357989821 1446.1467046 419.357989821 1446.1467046 422.486508925 1443.84327281 c 0,3,4
 424.017790856 1442.71579565 424.017790856 1442.71579565 426.143786855 1441.13172926 c 128,-1,5
 428.269782854 1439.54766286 428.269782854 1439.54766286 431 1437.5 c 0,6,7
 436.061619294 1433.70378553 436.061619294 1433.70378553 443.935830712 1426.94199585 c 128,-1,8
 451.81004213 1420.18020617 451.81004213 1420.18020617 462.421703043 1410.53178385 c 128,-1,9
 473.033363957 1400.88336154 473.033363957 1400.88336154 486.678822578 1388.09074408 c 0,10,11
 507.140054574 1368.90833909 507.140054574 1368.90833909 526.693873577 1348.07709738 c 128,-1,12
 546.24769258 1327.24585567 546.24769258 1327.24585567 564.893062659 1304.76924516 c 0,13,14
 569.07085367 1299.73300394 569.07085367 1299.73300394 573.34870762 1294.33293055 c 128,-1,15
 577.626561569 1288.93285716 577.626561569 1288.93285716 581.999097497 1283.17630153 c 128,-1,16
 586.371633424 1277.41974591 586.371633424 1277.41974591 590.846144297 1271.29766314 c 0,17,18
 597.553030281 1262.12121632 597.553030281 1262.12121632 604.478612338 1252.14000152 c 128,-1,19
 611.404194396 1242.15878673 611.404194396 1242.15878673 618.550376617 1231.3706721 c 0,20,21
 632.831691847 1209.81112311 632.831691847 1209.81112311 648.057026082 1184.94307719 c 0,22,23
 671.011063645 1147.45148251 671.011063645 1147.45148251 690.649518088 1108.0470666 c 128,-1,24
 710.285546708 1068.64750301 710.285546708 1068.64750301 726.601039799 1027.34855893 c 0,25,26
 730.691626737 1016.99426075 730.691626737 1016.99426075 734.619477448 1006.14057192 c 128,-1,27
 738.547328158 995.286883095 738.547328158 995.286883095 742.311133808 983.937519981 c 128,-1,28
 746.074939458 972.588156866 746.074939458 972.588156866 749.676166934 960.741016691 c 128,-1,29
 753.277394409 948.893876516 753.277394409 948.893876516 756.715868763 936.548348313 c 128,-1,30
 760.154343116 924.20282011 760.154343116 924.20282011 763.430321756 911.361416912 c 128,-1,31
 766.706300396 898.520013713 766.706300396 898.520013713 769.820817851 885.177508747 c 128,-1,32
 772.935335306 871.835003781 772.935335306 871.835003781 775.887439509 857.998525886 c 128,-1,33
 778.839543712 844.162047991 778.839543712 844.162047991 781.631403076 829.822043077 c 0,34,35
 787.227836297 801.076726986 787.227836297 801.076726986 791.423025375 771.772470104 c 128,-1,36
 795.618345522 742.468712573 795.618345522 742.468712573 798.412896372 712.613544793 c 128,-1,37
 801.207618132 682.759017355 801.207618132 682.759017355 802.603825592 652.35572285 c 128,-1,38
 804.000269822 621.952791996 804.000269822 621.952791996 804 591 c 0,39,40
 804 529.094261531 804 529.094261531 798.540706768 469.54154249 c 0,41,42
 796.72009325 449.684154825 796.72009325 449.684154825 794.291859212 430.089244935 c 128,-1,43
 791.863598635 410.49433139 791.863598635 410.49433139 788.826622075 391.156807917 c 128,-1,44
 785.789621473 371.81928433 785.789621473 371.81928433 782.14447507 352.745722542 c 0,45,46
 760.263851059 238.254085278 760.263851059 238.254085278 725.491240173 153.879367686 c 0,47,48
 691.17706969 70.6170422487 691.17706969 70.6170422487 648.748398541 -2.62529679765 c 0,49,50
 627.406590584 -39.3109172392 627.406590584 -39.3109172392 606.246886214 -69.6835042751 c 128,-1,51
 585.087181843 -100.056091311 585.087181843 -100.056091311 564.071381143 -124.14737504 c 0,52,53
 522.623694869 -171.660576378 522.623694869 -171.660576378 488.142135624 -206.142135624 c 0,54,55
 479.350137192 -214.934134056 479.350137192 -214.934134056 471.301781659 -222.523672938 c 128,-1,56
 463.253426127 -230.11321182 463.253426127 -230.11321182 455.936592391 -236.509767096 c 0,57,58
 451.064362398 -240.769189898 451.064362398 -240.769189898 446.483148911 -244.522096424 c 128,-1,59
 441.901935423 -248.27500295 441.901935423 -248.27500295 437.631167706 -251.504207802 c 128,-1,60
 433.360399989 -254.733412654 433.360399989 -254.733412654 429.447113981 -257.401562205 c 2,61,-1
 408.624763874 -272.274669424 l 1,62,-1
 407.320898173 -273.206002068 l 1,63,-1
 406.017032471 -274.137334712 l 1,64,-1
 404.71316677 -275.068667356 l 1,65,-1
 403.409301068 -276 l 1,66,-1
 401.806975801 -276 l 1,67,-1
 400.204650534 -276 l 1,68,-1
 398.602325267 -276 l 1,69,-1
 397 -276 l 1,70,-1
 170 -276 l 1,71,-1
 154.397674733 -276 l 1,72,-1
 138.795349466 -276 l 1,73,-1
 123.193024199 -276 l 1,74,-1
 107.590698932 -276 l 1,75,-1
 120.28683323 -266.931332644 l 1,76,-1
 132.982967529 -257.862665288 l 1,77,-1
 145.679101827 -248.793997932 l 1,78,-1
 158.375236126 -239.725330576 l 2,79,80
 161.578071576 -237.437590969 161.578071576 -237.437590969 166.345164964 -233.741475467 c 128,-1,81
 171.150558136 -230.015664633 171.150558136 -230.015664633 177.407224391 -224.962203427 c 2,82,-1
 179.432043708 -223.281495335 l 2,83,84
 179.676202859 -223.074276112 179.676202859 -223.074276112 179.976911424 -222.816544737 c 128,-1,85
 180.277619988 -222.558813361 180.277619988 -222.558813361 180.563956227 -222.311206159 c 0,86,87
 181.16570344 -221.790849584 181.16570344 -221.790849584 181.816632243 -221.218949862 c 128,-1,88
 182.470328198 -220.644601763 182.470328198 -220.644601763 183.173158746 -220.018192168 c 128,-1,89
 183.875989295 -219.391782572 183.875989295 -219.391782572 184.627149362 -218.713986175 c 2,90,-1
 187.813356214 -215.806962918 l 2,91,92
 189.503144274 -214.249922778 189.503144274 -214.249922778 191.380537333 -212.490133832 c 128,-1,93
 193.25769053 -210.730540635 193.25769053 -210.730540635 195.319540621 -208.770696622 c 0,94,-1
 204.302721209 -200.131922429 l 2,95,96
 214.043768092 -190.67196066 214.043768092 -190.67196066 226.357864376 -178.357864376 c 0,97,98
 262.90420515 -141.811523602 262.90420515 -141.811523602 295.587215552 -98.8845845677 c 0,99,100
 300.984755013 -91.7952790064 300.984755013 -91.7952790064 306.618883696 -83.8814808968 c 128,-1,101
 312.256693735 -75.9625118895 312.256693735 -75.9625118895 318.146945138 -67.1938133519 c 128,-1,102
 324.036710491 -58.4255579214 324.036710491 -58.4255579214 330.161121366 -48.8309117973 c 0,103,104
 348.6126897 -19.9236684658 348.6126897 -19.9236684658 369.084331907 16.3333364062 c 0,105,106
 375.861614094 28.3364747366 375.861614094 28.3364747366 382.315061819 40.5683402603 c 128,-1,107
 388.768548177 52.8002923283 388.768548177 52.8002923283 394.887275221 65.2395570773 c 128,-1,108
 401.006402667 77.6796455341 401.006402667 77.6796455341 406.802117978 90.3390948519 c 128,-1,109
 412.597732078 102.998341827 412.597732078 102.998341827 418.074641574 115.890713848 c 128,-1,110
 423.551906971 128.783951943 423.551906971 128.783951943 428.705094045 141.884813572 c 128,-1,111
 433.858729255 154.986837871 433.858729255 154.986837871 438.704102298 168.333317979 c 0,112,113
 446.285975954 189.358911906 446.285975954 189.358911906 452.715548217 210.483930186 c 128,-1,114
 459.150610821 231.626712831 459.150610821 231.626712831 465.38648815 255.884176569 c 0,115,116
 468.460930436 267.843708215 468.460930436 267.843708215 471.400643011 280.303114088 c 128,-1,117
 474.340258165 292.762415707 474.340258165 292.762415707 477.145135911 305.723531125 c 128,-1,118
 479.949908387 318.684446265 479.949908387 318.684446265 482.619309308 332.147401971 c 128,-1,119
 485.288637678 345.610257685 485.288637678 345.610257685 487.821210101 359.570045955 c 0,120,121
 497.909577281 415.179094309 497.909577281 415.179094309 502.95478864 473.035389142 c 128,-1,122
 508 530.891683974 508 530.891683974 508 591 c 128,-1,123
 508 651.186529465 508 651.186529465 503.195050874 708.953417378 c 128,-1,124
 498.392467279 766.707567337 498.392467279 766.707567337 488.793839592 822.084265529 c 0,125,126
 485.596502317 840.530442115 485.596502317 840.530442115 482.061098441 858.14551302 c 128,-1,127
 478.525694565 875.760583925 478.525694565 875.760583925 474.655393403 892.531612783 c 128,-1,128
 470.78509224 909.302641642 470.78509224 909.302641642 466.577956898 925.240583492 c 0,129,130
 464.475019551 933.207166553 464.475019551 933.207166553 462.288372373 940.965226833 c 128,-1,131
 460.101725195 948.723287112 460.101725195 948.723287112 457.832461279 956.269118799 c 128,-1,132
 455.563197364 963.814950485 455.563197364 963.814950485 453.210944456 971.150758081 c 128,-1,133
 450.858691548 978.486565677 450.858691548 978.486565677 448.42358977 985.611656938 c 128,-1,134
 445.988487992 992.7367482 445.988487992 992.7367482 443.471181593 999.650113156 c 128,-1,135
 440.953875194 1006.56347811 440.953875194 1006.56347811 438.353551324 1013.26743809 c 0,136,137
 422.558694476 1053.9885534 422.558694476 1053.9885534 405.298077731 1091.96190747 c 0,138,139
 396.671833485 1110.93964343 396.671833485 1110.93964343 387.682004766 1129.22766301 c 128,-1,140
 378.692176048 1147.51568259 378.692176048 1147.51568259 369.339284897 1165.11388568 c 0,141,142
 350.779890506 1200.03485144 350.779890506 1200.03485144 332.296893187 1228.87197619 c 128,-1,143
 313.813895867 1257.70910093 313.813895867 1257.70910093 295.447399461 1280.42555701 c 0,144,145
 289.191884183 1288.1626417 289.191884183 1288.1626417 283.104004334 1295.52592095 c 128,-1,146
 277.016124485 1302.88920021 277.016124485 1302.88920021 271.099532816 1309.87440786 c 128,-1,147
 265.182941148 1316.85961551 265.182941148 1316.85961551 259.434780738 1323.47027766 c 128,-1,148
 253.694701114 1330.07164652 253.694701114 1330.07164652 248.124034545 1336.29819108 c 128,-1,149
 242.553367975 1342.52473563 242.553367975 1342.52473563 237.157901473 1348.37026903 c 128,-1,150
 231.762434971 1354.21580243 231.762434971 1354.21580243 226.537790494 1359.68535211 c 128,-1,151
 221.318718257 1365.14906836 221.318718257 1365.14906836 216.448743195 1370.11264582 c 128,-1,152
 211.583714735 1375.07128048 211.583714735 1375.07128048 207.06311513 1379.53549532 c 0,153,154
 205.560438498 1381.01942928 205.560438498 1381.01942928 204.101024016 1382.44398084 c 128,-1,155
 202.641609534 1383.86853239 202.641609534 1383.86853239 201.229025309 1385.23028186 c 128,-1,156
 199.816441083 1386.59203132 199.816441083 1386.59203132 198.447772858 1387.89385215 c 0,157,158
 194.353455176 1391.78819843 194.353455176 1391.78819843 190.658288525 1395.1411704 c 0,159,160
 188.849450806 1396.78249885 188.849450806 1396.78249885 187.124661863 1398.30480461 c 128,-1,161
 185.399872921 1399.82711037 185.399872921 1399.82711037 183.760385379 1401.22946035 c 0,162,163
 180.496538754 1404.02122006 180.496538754 1404.02122006 177.801683365 1406.14873748 c 2,164,-1
 158 1421 l 1,165,-1
 146 1430 l 1,166,-1
 134 1439 l 1,167,-1
 122 1448 l 1,168,-1
 110 1457 l 1,169,-1
 125 1457 l 1,170,-1
 140 1457 l 1,171,-1
 155 1457 l 1,172,-1
 170 1457 l 1,173,-1
 397 1457 l 1,174,-1
 398.433981132 1457 l 1,175,-1
 399.867962264 1457 l 1,176,-1
 401.301943396 1457 l 1,177,-1
 402.735924528 1457 l 1,178,-1
 403.951938096 1456.23999152 l 1,179,-1
 405.167951664 1455.47998304 l 1,180,-1
 406.383965232 1454.71997456 l 1,181,-1
 408.958282899 1453.11102602 l 2,0,1
EndSplineSet
EndChar

StartChar: asterisk
Encoding: 42 42 13
Width: 1024
VWidth: 0
GlyphClass: 2
Flags: W
LayerCount: 2
Fore
SplineSet
384 1290 m 1,0,-1
 640 1290 l 1,1,-1
 645.910600416 1290 l 1,2,-1
 651.821200833 1290 l 1,3,-1
 650.841426279 1284.17117172 l 1,4,-1
 649.861651725 1278.34234344 l 1,5,-1
 594.178890465 947.077102729 l 1,6,-1
 893.405008606 1101.88178215 l 1,7,-1
 898.636463115 1104.58827596 l 1,8,-1
 903.867917625 1107.29476978 l 1,9,-1
 905.688985334 1101.69325771 l 1,10,-1
 907.510053044 1096.09174564 l 1,11,-1
 986.510053044 853.09174564 l 1,12,-1
 988.334396578 847.4801573 l 1,13,-1
 990.158740112 841.868568961 l 1,14,-1
 984.323819633 840.990015593 l 1,15,-1
 978.488899153 840.111462226 l 1,16,-1
 646.275565745 790.090704639 l 1,17,-1
 886.014727307 554.126962944 l 1,18,-1
 890.216215544 549.991639877 l 1,19,-1
 894.41770378 545.856316809 l 1,20,-1
 889.65204323 542.386175631 l 1,21,-1
 884.886382679 538.916034454 l 1,22,-1
 678.886382679 388.916034454 l 1,23,-1
 674.124258162 385.448468058 l 1,24,-1
 669.362133644 381.980901661 l 1,25,-1
 666.714527981 387.243223476 l 1,26,-1
 664.066922318 392.505545291 l 1,27,-1
 512 694.750359837 l 1,28,-1
 359.933077682 392.505545291 l 1,29,-1
 357.285472019 387.243223476 l 1,30,-1
 354.637866356 381.980901661 l 1,31,-1
 349.875741838 385.448468058 l 1,32,-1
 345.113617321 388.916034454 l 1,33,-1
 139.113617321 538.916034454 l 1,34,-1
 134.34795677 542.386175631 l 1,35,-1
 129.58229622 545.856316809 l 1,36,-1
 133.783784456 549.991639877 l 1,37,-1
 137.985272693 554.126962944 l 1,38,-1
 377.724434255 790.090704639 l 1,39,-1
 45.5111008465 840.111462226 l 1,40,-1
 39.6761803671 840.990015593 l 1,41,-1
 33.8412598877 841.868568961 l 1,42,-1
 35.6656034219 847.4801573 l 1,43,-1
 37.489946956 853.09174564 l 1,44,-1
 116.489946956 1096.09174564 l 1,45,-1
 118.311014666 1101.69325771 l 1,46,-1
 120.132082375 1107.29476978 l 1,47,-1
 125.363536885 1104.58827596 l 1,48,-1
 130.594991394 1101.88178215 l 1,49,-1
 429.821109535 947.077102729 l 1,50,-1
 374.138348275 1278.34234344 l 1,51,-1
 373.158573721 1284.17117172 l 1,52,-1
 372.178799167 1290 l 1,53,-1
 378.089399584 1290 l 1,54,-1
 384 1290 l 1,0,-1
EndSplineSet
EndChar

StartChar: plus
Encoding: 43 43 14
Width: 1024
VWidth: 0
GlyphClass: 2
Flags: W
LayerCount: 2
Fore
SplineSet
398 1098 m 1,0,-1
 626 1098 l 1,1,-1
 631 1098 l 1,2,-1
 636 1098 l 1,3,-1
 636 1093 l 1,4,-1
 636 1088 l 1,5,-1
 636 752 l 1,6,-1
 960 752 l 1,7,-1
 965 752 l 1,8,-1
 970 752 l 1,9,-1
 970 747 l 1,10,-1
 970 742 l 1,11,-1
 970 538 l 1,12,-1
 970 533 l 1,13,-1
 970 528 l 1,14,-1
 965 528 l 1,15,-1
 960 528 l 1,16,-1
 636 528 l 1,17,-1
 636 192 l 1,18,-1
 636 187 l 1,19,-1
 636 182 l 1,20,-1
 631 182 l 1,21,-1
 626 182 l 1,22,-1
 398 182 l 1,23,-1
 393 182 l 1,24,-1
 388 182 l 1,25,-1
 388 187 l 1,26,-1
 388 192 l 1,27,-1
 388 528 l 1,28,-1
 64 528 l 1,29,-1
 59 528 l 1,30,-1
 54 528 l 1,31,-1
 54 533 l 1,32,-1
 54 538 l 1,33,-1
 54 742 l 1,34,-1
 54 747 l 1,35,-1
 54 752 l 1,36,-1
 59 752 l 1,37,-1
 64 752 l 1,38,-1
 388 752 l 1,39,-1
 388 1088 l 1,40,-1
 388 1093 l 1,41,-1
 388 1098 l 1,42,-1
 393 1098 l 1,43,-1
 398 1098 l 1,0,-1
EndSplineSet
EndChar

StartChar: comma
Encoding: 44 44 15
Width: 1024
VWidth: 0
GlyphClass: 2
Flags: W
LayerCount: 2
Fore
SplineSet
341 426 m 1,0,-1
 683 426 l 1,1,-1
 688 426 l 1,2,-1
 693 426 l 1,3,-1
 693 421 l 1,4,-1
 693 416 l 1,5,-1
 693 160 l 1,6,-1
 692.987508348 159.646785508 l 1,7,-1
 691.949869663 144.994975589 l 2,8,9
 691.640376252 142.209534884 691.640376252 142.209534884 690.814079849 138.398820622 c 128,-1,10
 689.987783447 134.58810636 689.987783447 134.58810636 688.595224891 129.552570306 c 128,-1,11
 687.202666335 124.517034252 687.202666335 124.517034252 685.352393355 118.516285571 c 128,-1,12
 683.502120374 112.515536889 683.502120374 112.515536889 681.003090278 104.886918702 c 0,13,14
 671.26383605 75.1565636891 671.26383605 75.1565636891 654.915788681 42.9713454319 c 0,15,16
 649.408252943 32.1283844482 649.408252943 32.1283844482 641.78190971 19.493119009 c 128,-1,17
 634.184788095 6.90626771561 634.184788095 6.90626771561 624.517807781 -7.42243522706 c 128,-1,18
 614.870343378 -21.7222110705 614.870343378 -21.7222110705 603.080075302 -37.8917215745 c 0,19,20
 585.342418215 -62.2176512935 585.342418215 -62.2176512935 564.340279647 -86.5108229195 c 128,-1,21
 543.338141078 -110.803994546 543.338141078 -110.803994546 519.071067812 -135.071067812 c 2,22,-1
 391.071067812 -263.071067812 l 1,23,-1
 387.705139499 -266.436996125 l 1,24,-1
 384.339211186 -269.802924438 l 1,25,-1
 380.812008469 -266.606396976 l 1,26,-1
 377.284805753 -263.409869514 l 1,27,-1
 249.284805753 -147.409869514 l 1,28,-1
 245.393183224 -143.883086598 l 1,29,-1
 241.501560695 -140.356303681 l 1,30,-1
 245.215246442 -136.642617935 l 1,31,-1
 248.928932188 -132.928932188 l 1,32,-1
 376.928932188 -4.92893218813 l 2,33,34
 391.070914746 9.21305036959 391.070914746 9.21305036959 403.652938923 22.4766802587 c 128,-1,35
 416.234963101 35.7403101478 416.234963101 35.7403101478 427.25260577 48.1197721263 c 0,36,37
 449.250306149 72.8364654913 449.250306149 72.8364654913 464.977667787 93.9701076932 c 0,38,39
 495.635192196 135.166156118 495.635192196 135.166156118 498.194193243 147.961161351 c 0,40,-1
 498.384760524 148.747211279 l 1,41,-1
 498.742700158 150 l 1,42,-1
 341 150 l 1,43,-1
 336 150 l 1,44,-1
 331 150 l 1,45,-1
 331 155 l 1,46,-1
 331 160 l 1,47,-1
 331 416 l 1,48,-1
 331 421 l 1,49,-1
 331 426 l 1,50,-1
 336 426 l 1,51,-1
 341 426 l 1,0,-1
EndSplineSet
EndChar

StartChar: hyphen
Encoding: 45 45 16
Width: 1024
VWidth: 0
GlyphClass: 2
Flags: W
LayerCount: 2
Fore
SplineSet
192 752 m 1,0,-1
 832 752 l 1,1,-1
 837 752 l 1,2,-1
 842 752 l 1,3,-1
 842 747 l 1,4,-1
 842 742 l 1,5,-1
 842 538 l 1,6,-1
 842 533 l 1,7,-1
 842 528 l 1,8,-1
 837 528 l 1,9,-1
 832 528 l 1,10,-1
 192 528 l 1,11,-1
 187 528 l 1,12,-1
 182 528 l 1,13,-1
 182 533 l 1,14,-1
 182 538 l 1,15,-1
 182 742 l 1,16,-1
 182 747 l 1,17,-1
 182 752 l 1,18,-1
 187 752 l 1,19,-1
 192 752 l 1,0,-1
EndSplineSet
EndChar

StartChar: period
Encoding: 46 46 17
Width: 1024
VWidth: 0
GlyphClass: 2
Flags: W
LayerCount: 2
Fore
SplineSet
683 -10 m 1,0,-1
 341 -10 l 1,1,-1
 336 -10 l 1,2,-1
 331 -10 l 1,3,-1
 331 -5 l 1,4,-1
 331 0 l 1,5,-1
 331 320 l 1,6,-1
 331 325 l 1,7,-1
 331 330 l 1,8,-1
 336 330 l 1,9,-1
 341 330 l 1,10,-1
 683 330 l 1,11,-1
 688 330 l 1,12,-1
 693 330 l 1,13,-1
 693 325 l 1,14,-1
 693 320 l 1,15,-1
 693 0 l 1,16,-1
 693 -5 l 1,17,-1
 693 -10 l 1,18,-1
 688 -10 l 1,19,-1
 683 -10 l 1,0,-1
EndSplineSet
EndChar

StartChar: slash
Encoding: 47 47 18
Width: 1024
VWidth: 0
GlyphClass: 2
Flags: W
LayerCount: 2
Fore
SplineSet
905.588951926 1434.16239521 m 1,0,-1
 404.588951926 -258.837604793 l 1,1,-1
 403.529188193 -262.418802397 l 1,2,-1
 402.469424461 -266 l 1,3,-1
 398.73471223 -266 l 1,4,-1
 395 -266 l 1,5,-1
 128 -266 l 1,6,-1
 121.306043824 -266 l 1,7,-1
 114.612087648 -266 l 1,8,-1
 116.511567861 -259.581197603 l 1,9,-1
 118.411048074 -253.162395207 l 1,10,-1
 619.411048074 1439.83760479 l 1,11,-1
 620.470811807 1443.4188024 l 1,12,-1
 621.530575539 1447 l 1,13,-1
 625.26528777 1447 l 1,14,-1
 629 1447 l 1,15,-1
 896 1447 l 1,16,-1
 902.693956176 1447 l 1,17,-1
 909.387912352 1447 l 1,18,-1
 907.488432139 1440.5811976 l 1,19,-1
 905.588951926 1434.16239521 l 1,0,-1
EndSplineSet
EndChar

StartChar: zero
Encoding: 48 48 19
Width: 1024
VWidth: 0
GlyphClass: 2
Flags: W
LayerCount: 2
Fore
SplineSet
80 640 m 0,0,1
 80 942.392578125 80 942.392578125 197.66015625 1118.22070312 c 0,2,3
 316.625976562 1296 316.625976562 1296 532 1296 c 0,4,5
 575.040527635 1296 575.040527635 1296 614.572158865 1288.86621094 c 128,-1,6
 654.154832228 1281.72265625 654.154832228 1281.72265625 690.123522442 1267.45410156 c 0,7,8
 699.124952637 1263.8828125 699.124952637 1263.8828125 707.860163083 1259.87011719 c 128,-1,9
 716.596374354 1255.85644531 716.596374354 1255.85644531 725.071370006 1251.39746094 c 128,-1,10
 733.547366484 1246.93847656 733.547366484 1246.93847656 741.677734375 1242.03320312 c 128,-1,11
 749.694335938 1237.12792969 749.694335938 1237.12792969 757.459960938 1231.77441406 c 0,12,13
 772.83984375 1221.08984375 772.83984375 1221.08984375 787.340820312 1208.640625 c 128,-1,14
 801.841796875 1196.19140625 801.841796875 1196.19140625 815.459960938 1181.984375 c 128,-1,15
 829.067382812 1167.78710938 829.067382812 1167.78710938 841.787109375 1151.84570312 c 128,-1,16
 854.506835938 1135.90429688 854.506835938 1135.90429688 866.33984375 1118.22070312 c 0,17,18
 895.84375 1074.13085938 895.84375 1074.13085938 917.927734375 1022.16015625 c 128,-1,19
 940.012695312 970.190429688 940.012695312 970.190429688 954.69140625 910.3671875 c 0,20,21
 984 790.9140625 984 790.9140625 984 640 c 0,22,23
 984 337.607421875 984 337.607421875 866.33984375 161.779296875 c 0,24,25
 747.374023438 -16 747.374023438 -16 532 -16 c 128,-1,26
 316.625976562 -16 316.625976562 -16 197.66015625 161.779296875 c 0,27,28
 138.752929688 249.80859375 138.752929688 249.80859375 109.376953125 369.372070312 c 128,-1,29
 80 488.935546875 80 488.935546875 80 640 c 0,0,1
657.942959122 980.4609375 m 0,30,31
 634.024215489 1041.4296875 634.024215489 1041.4296875 602.154909095 1071.01953125 c 0,32,33
 570.943145467 1100 570.943145467 1100 532 1100 c 0,34,35
 452.95475241 1100 452.95475241 1100 406.057040878 980.4609375 c 0,36,37
 357.293789443 856.16796875 357.293789443 856.16796875 357.293789443 640 c 128,-1,38
 357.293789443 423.83203125 357.293789443 423.83203125 406.057040878 299.5390625 c 0,39,40
 452.95475241 180 452.95475241 180 532 180 c 128,-1,41
 611.04524759 180 611.04524759 180 657.942959122 299.5390625 c 0,42,43
 706.706210557 423.83203125 706.706210557 423.83203125 706.706210557 640 c 0,44,45
 706.706210557 683.353515625 706.706210557 683.353515625 704.736584737 723.0390625 c 128,-1,46
 702.766958917 762.724609375 702.766958917 762.724609375 698.844721322 798.630859375 c 0,47,48
 696.885103763 816.578125 696.885103763 816.578125 694.437083054 833.60546875 c 128,-1,49
 691.990063171 850.6328125 691.990063171 850.6328125 689.05664179 866.73828125 c 0,50,51
 683.194803158 898.919921875 683.194803158 898.919921875 675.409376708 927.360351562 c 128,-1,52
 667.635960172 955.754882812 667.635960172 955.754882812 657.942959122 980.4609375 c 0,30,31
423.814698867 778 m 1,53,-1
 428.938928642 778 l 1,54,-1
 434.197269119 778 l 1,55,-1
 629.802730881 778 l 1,56,-1
 635.061071358 778 l 1,57,-1
 640.185301133 778 l 1,58,-1
 640.185301133 773 l 1,59,-1
 640.185301133 768 l 1,60,-1
 640.185301133 512 l 1,61,-1
 640.185301133 507 l 1,62,-1
 640.185301133 502 l 1,63,-1
 635.061071358 502 l 1,64,-1
 629.802730881 502 l 1,65,-1
 434.197269119 502 l 1,66,-1
 428.938928642 502 l 1,67,-1
 423.814698867 502 l 1,68,-1
 423.814698867 507 l 1,69,-1
 423.814698867 512 l 1,70,-1
 423.814698867 768 l 1,71,-1
 423.814698867 773 l 1,72,-1
 423.814698867 778 l 1,53,-1
EndSplineSet
EndChar

StartChar: one
Encoding: 49 49 20
Width: 1024
VWidth: 0
GlyphClass: 2
Flags: W
LayerCount: 2
Fore
SplineSet
485.001953125 1280 m 1,0,-1
 487.073242188 1280 l 1,1,-1
 489.14453125 1280 l 1,2,-1
 745.14453125 1280 l 1,3,-1
 750.14453125 1280 l 1,4,-1
 755.14453125 1280 l 1,5,-1
 755.14453125 1275 l 1,6,-1
 755.14453125 1270.0390625 l 1,7,-1
 755.14453125 9.9609375 l 1,8,-1
 755.14453125 5 l 1,9,-1
 755.14453125 0 l 1,10,-1
 750.14453125 0 l 1,11,-1
 745.14453125 0 l 1,12,-1
 489.14453125 0 l 1,13,-1
 484.14453125 0 l 1,14,-1
 479.14453125 0 l 1,15,-1
 479.14453125 5 l 1,16,-1
 479.14453125 9.9609375 l 1,17,-1
 479.14453125 961.775390625 l 1,18,-1
 288.203125 773.798828125 l 1,19,-1
 284.655273438 770.305664062 l 1,20,-1
 281.12109375 766.826171875 l 1,21,-1
 277.599609375 770.317382812 l 1,22,-1
 274.063476562 773.823242188 l 1,23,-1
 130.063476562 916.571289062 l 1,24,-1
 126.552734375 920.051757812 l 1,25,-1
 123 923.573242188 l 1,26,-1
 126.564453125 927.083007812 l 1,27,-1
 130.087890625 930.551757812 l 1,28,-1
 482.073242188 1277.06933594 l 1,29,-1
 483.537109375 1278.53417969 l 1,30,-1
 485.001953125 1280 l 1,0,-1
EndSplineSet
EndChar

StartChar: two
Encoding: 50 50 21
Width: 1024
VWidth: 0
GlyphClass: 2
Flags: W
LayerCount: 2
Fore
SplineSet
128 930 m 2,0,1
 128 1100.20507812 128 1100.20507812 234.15234375 1199.88378906 c 0,2,3
 340.063476562 1296 340.063476562 1296 532 1296 c 0,4,5
 555.106072378 1296 555.106072378 1296 577.046403925 1294.42675781 c 0,6,7
 598.986735472 1293.99902344 598.986735472 1293.99902344 619.761326188 1293.14355469 c 128,-1,8
 640.565161267 1292.28613281 640.565161267 1292.28613281 660.092328619 1291 c 0,9,10
 679.618487544 1286.26953125 679.618487544 1286.26953125 697.662109375 1279.94726562 c 0,11,12
 732.278320312 1267.29101562 732.278320312 1267.29101562 762.396484375 1248.25683594 c 128,-1,13
 792.526367188 1229.21484375 792.526367188 1229.21484375 818.052734375 1203.83691406 c 128,-1,14
 843.556640625 1178.48144531 843.556640625 1178.48144531 862.698242188 1148.5703125 c 128,-1,15
 881.838867188 1118.66015625 881.838867188 1118.66015625 894.577148438 1084.26757812 c 128,-1,16
 907.299804688 1049.91601562 907.299804688 1049.91601562 913.649414062 1011.20605469 c 128,-1,17
 920 972.497070312 920 972.497070312 920 929.452148438 c 0,18,19
 920 892.564453125 920 892.564453125 913.833984375 859.188476562 c 0,20,21
 910.717773438 842.327148438 910.717773438 842.327148438 905.036132812 824.518554688 c 0,22,23
 902.201171875 815.634765625 902.201171875 815.634765625 898.732421875 806.515625 c 128,-1,24
 895.262695312 797.397460938 895.262695312 797.397460938 891.158203125 788.04296875 c 0,25,26
 883.102539062 769.6796875 883.102539062 769.6796875 875.54296875 753.564453125 c 128,-1,27
 867.983398438 737.44921875 867.983398438 737.44921875 860.912109375 723.569335938 c 0,28,29
 858.491210938 718.817382812 858.491210938 718.817382812 855.58984375 713.618164062 c 128,-1,30
 852.688476562 708.418945312 852.688476562 708.418945312 849.302734375 702.760742188 c 0,31,32
 842.553710938 691.481445312 842.553710938 691.481445312 833.903320312 678.407226562 c 128,-1,33
 825.271484375 665.360351562 825.271484375 665.360351562 814.662109375 650.3828125 c 0,34,35
 811.500976562 645.920898438 811.500976562 645.920898438 808.4453125 641.634765625 c 128,-1,36
 805.389648438 637.34765625 805.389648438 637.34765625 802.438476562 633.234375 c 128,-1,37
 799.486328125 629.12109375 799.486328125 629.12109375 796.639648438 625.18359375 c 128,-1,38
 793.79296875 621.245117188 793.79296875 621.245117188 791.05078125 617.48046875 c 128,-1,39
 788.307617188 613.716796875 788.307617188 613.716796875 785.669921875 610.126953125 c 128,-1,40
 783.032226562 606.537109375 783.032226562 606.537109375 780.498046875 603.12109375 c 128,-1,41
 777.96484375 599.705078125 777.96484375 599.705078125 775.53515625 596.462890625 c 128,-1,42
 773.10546875 593.220703125 773.10546875 593.220703125 770.779296875 590.153320312 c 128,-1,43
 768.454101562 587.084960938 768.454101562 587.084960938 766.232421875 584.190429688 c 128,-1,44
 764.010742188 581.295898438 764.010742188 581.295898438 761.893554688 578.575195312 c 0,45,46
 740.903320312 551.607421875 740.903320312 551.607421875 696.883789062 494.625 c 2,47,-1
 449.984687011 196 l 1,48,-1
 926 196 l 1,49,-1
 931 196 l 1,50,-1
 936 196 l 1,51,-1
 936 191 l 1,52,-1
 936 186.26171875 l 1,53,-1
 936 10 l 1,54,-1
 936 5 l 1,55,-1
 936 0 l 1,56,-1
 931 0 l 1,57,-1
 926 0 l 1,58,-1
 138 0 l 1,59,-1
 133 0 l 1,60,-1
 128 0 l 1,61,-1
 128 5 l 1,62,-1
 128 9.955078125 l 1,63,-1
 128 194.271484375 l 1,64,-1
 128 195.966796875 l 1,65,-1
 128 197.663085938 l 1,66,-1
 129.048828125 199.002929688 l 1,67,-1
 130.11328125 200.36328125 l 1,68,-1
 489.54222645 650.286132812 l 2,69,70
 497.039876175 659.225585938 497.039876175 659.225585938 503.960706041 667.533203125 c 128,-1,71
 510.881535908 675.840820312 510.881535908 675.840820312 517.299161038 683.60546875 c 0,72,73
 530.106175362 699.098632812 530.106175362 699.098632812 540.752132072 712.2421875 c 0,74,75
 544.299775883 716.622070312 544.299775883 716.622070312 547.610439507 720.743164062 c 128,-1,76
 550.921103131 724.864257812 550.921103131 724.864257812 553.991761289 728.724609375 c 128,-1,77
 557.062419448 732.583984375 557.062419448 732.583984375 559.894080568 736.184570312 c 0,78,79
 564.139555395 741.581054688 564.139555395 741.581054688 567.846530565 746.391601562 c 128,-1,80
 571.553505734 751.203125 571.553505734 751.203125 574.719964394 755.423828125 c 0,81,82
 583.000152946 766.4609375 583.000152946 766.4609375 590.844701326 779.137695312 c 0,83,84
 594.773530287 785.485351562 594.773530287 785.485351562 598.60050819 792.260742188 c 128,-1,85
 602.426477666 799.03515625 602.426477666 799.03515625 606.149587657 806.235351562 c 0,86,87
 613.605891902 820.653320312 613.605891902 820.653320312 620.60033689 836.706054688 c 0,88,89
 641.185343456 883.948242188 641.185343456 883.948242188 641.185343456 931.538085938 c 0,90,91
 641.185343456 971.358398438 641.185343456 971.358398438 633.533404504 1002.61425781 c 128,-1,92
 625.881465552 1033.87109375 625.881465552 1033.87109375 610.73893586 1056.57128906 c 0,93,94
 596.11171202 1078.49902344 596.11171202 1078.49902344 576.5704267 1089.24902344 c 128,-1,95
 557.030149806 1100 557.030149806 1100 532 1100 c 0,96,97
 474.314988947 1100 474.314988947 1100 440.591195796 1055.63769531 c 0,98,99
 405.715779782 1009.76171875 405.715779782 1009.76171875 405.715779782 930 c 2,100,-1
 405.715779782 925 l 1,101,-1
 405.715779782 920 l 1,102,-1
 400.552636999 920 l 1,103,-1
 395.209994331 920 l 1,104,-1
 138 920 l 1,105,-1
 133 920 l 1,106,-1
 128 920 l 1,107,-1
 128 925 l 1,108,-1
 128 930 l 2,0,1
EndSplineSet
EndChar

StartChar: three
Encoding: 51 51 22
Width: 1024
VWidth: 0
GlyphClass: 2
Flags: W
LayerCount: 2
Fore
SplineSet
826.033203125 728.508789062 m 128,-1,1
 820.098632812 723.428710938 820.098632812 723.428710938 814.147460938 718.842773438 c 0,2,3
 809.243164062 715.0625 809.243164062 715.0625 804.186523438 711.563476562 c 128,-1,4
 799.129882812 708.064453125 799.129882812 708.064453125 794.486328125 705.206054688 c 128,-1,5
 789.842773438 702.34765625 789.842773438 702.34765625 785.602539062 700.061523438 c 128,-1,6
 781.361328125 697.775390625 781.361328125 697.775390625 777.80078125 696.21875 c 1,7,8
 781.666992188 694.39453125 781.666992188 694.39453125 786.342773438 691.6796875 c 128,-1,9
 791.018554688 688.96484375 791.018554688 688.96484375 796.768554688 685.193359375 c 128,-1,10
 802.518554688 681.422851562 802.518554688 681.422851562 809.134765625 676.78125 c 128,-1,11
 815.750976562 672.138671875 815.750976562 672.138671875 823.946289062 666.147460938 c 0,12,13
 858.001953125 641.25 858.001953125 641.25 883.821289062 609.215820312 c 0,14,15
 884.92578125 607.844726562 884.92578125 607.844726562 886.020507812 606.427734375 c 128,-1,16
 887.116210938 605.009765625 887.116210938 605.009765625 888.19921875 603.547851562 c 128,-1,17
 889.283203125 602.0859375 889.283203125 602.0859375 890.35546875 600.580078125 c 128,-1,18
 891.427734375 599.07421875 891.427734375 599.07421875 892.490234375 597.522460938 c 0,19,20
 896.733398438 591.325195312 896.733398438 591.325195312 900.8125 584.401367188 c 128,-1,21
 904.880859375 577.497070312 904.880859375 577.497070312 908.797851562 569.870117188 c 128,-1,22
 912.706054688 562.258789062 912.706054688 562.258789062 916.47265625 553.905273438 c 0,23,24
 918.353515625 549.735351562 918.353515625 549.735351562 920.196289062 545.391601562 c 128,-1,25
 922.0390625 541.046875 922.0390625 541.046875 923.844726562 536.526367188 c 128,-1,26
 925.6484375 532.009765625 925.6484375 532.009765625 927.419921875 527.306640625 c 128,-1,27
 929.192382812 522.603515625 929.192382812 522.603515625 930.93359375 517.711914062 c 0,28,29
 941.481445312 488.073242188 941.481445312 488.073242188 946.744140625 455.58203125 c 128,-1,30
 952 423.143554688 952 423.143554688 952 387.89453125 c 0,31,32
 952 334.776367188 952 334.776367188 942.42578125 289.081054688 c 128,-1,33
 932.8515625 243.385742188 932.8515625 243.385742188 913.712890625 205.16015625 c 128,-1,34
 894.573242188 166.93359375 894.573242188 166.93359375 865.7890625 136.240234375 c 128,-1,35
 837.004882812 105.546875 837.004882812 105.546875 798.666015625 82.5390625 c 0,36,37
 722.124023438 37.154296875 722.124023438 37.154296875 607.019656258 14.5771484375 c 0,38,39
 491.421723828 -8 491.421723828 -8 340 -8 c 0,40,41
 283.642578125 -8 283.642578125 -8 232.7109375 -3.96875 c 128,-1,42
 181.74609375 0.068359375 181.74609375 0.068359375 158.248046875 4.154296875 c 2,43,-1
 136.211914062 8.162109375 l 1,44,-1
 132.106445312 8.908203125 l 1,45,-1
 128 9.654296875 l 1,46,-1
 128 13.8271484375 l 1,47,-1
 128 18 l 1,48,-1
 128 196 l 1,49,-1
 128 201 l 1,50,-1
 128 206 l 1,51,-1
 133 206 l 1,52,-1
 138 206 l 1,53,-1
 340 206 l 2,54,55
 505.414860999 206 505.414860999 206 591.498127791 249.142578125 c 0,56,57
 674.372578338 290.677734375 674.372578338 290.677734375 674.372578338 389 c 0,58,59
 674.372578338 473.817382812 674.372578338 473.817382812 608.083891831 522.483398438 c 0,60,61
 594.658615457 532.33984375 594.658615457 532.33984375 579.195484022 540.235351562 c 128,-1,62
 563.731345742 548.131835938 563.731345742 548.131835938 546.143770544 554.088867188 c 128,-1,63
 528.556195345 560.045898438 528.556195345 560.045898438 508.911635024 564.022460938 c 128,-1,64
 489.268081548 567.999023438 489.268081548 567.999023438 467.461824183 570 c 128,-1,65
 445.655566818 572 445.655566818 572 421.774201113 572 c 2,66,-1
 266 572 l 1,67,-1
 261 572 l 1,68,-1
 256 572 l 1,69,-1
 256 577 l 1,70,-1
 256 582 l 1,71,-1
 256 768 l 1,72,-1
 256 773 l 1,73,-1
 256 778 l 1,74,-1
 261 778 l 1,75,-1
 266 778 l 1,76,-1
 408.993305786 778 l 2,77,78
 517.266438035 778 517.266438035 778 579.413969471 822.436523438 c 0,79,80
 640.288848339 865.963867188 640.288848339 865.963867188 640.288848339 940.517578125 c 0,81,82
 640.288848339 976.3203125 640.288848339 976.3203125 622.422376969 1001.4921875 c 128,-1,83
 604.554898753 1026.66503906 604.554898753 1026.66503906 568.170527048 1041.95898438 c 0,84,85
 491.943269738 1074 491.943269738 1074 347 1074 c 2,86,-1
 170 1074 l 1,87,-1
 165 1074 l 1,88,-1
 160 1074 l 1,89,-1
 160 1079 l 1,90,-1
 160 1084 l 1,91,-1
 160 1262 l 1,92,-1
 160 1265.95996094 l 1,93,-1
 160 1269.91992188 l 1,94,-1
 163.854492188 1270.82714844 l 1,95,-1
 167.708984375 1271.734375 l 2,96,97
 202.428710938 1279.90332031 202.428710938 1279.90332031 247.280273438 1283.95703125 c 128,-1,98
 292.005859375 1288 292.005859375 1288 347 1288 c 0,99,100
 415.301192128 1288 415.301192128 1288 475.921339114 1283.62304688 c 128,-1,101
 536.5414861 1279.28027344 536.5414861 1279.28027344 588.69003601 1270.58203125 c 0,102,103
 693.648633249 1253.07519531 693.648633249 1253.07519531 768.223632812 1213.92480469 c 0,104,105
 843.318359375 1174.14648438 843.318359375 1174.14648438 881.74609375 1105.625 c 0,106,107
 886.549804688 1097.05957031 886.549804688 1097.05957031 890.75 1088.05371094 c 128,-1,108
 894.94921875 1079.04882812 894.94921875 1079.04882812 898.544921875 1069.60742188 c 128,-1,109
 902.138671875 1060.17089844 902.138671875 1060.17089844 905.125976562 1050.31054688 c 128,-1,110
 908.114257812 1040.45019531 908.114257812 1040.45019531 910.497070312 1030.16699219 c 0,111,112
 911.44921875 1026.05566406 911.44921875 1026.05566406 912.306640625 1021.87792969 c 128,-1,113
 913.163085938 1017.69921875 913.163085938 1017.69921875 913.923828125 1013.45703125 c 128,-1,114
 914.684570312 1009.21386719 914.684570312 1009.21386719 915.350585938 1004.90332031 c 128,-1,115
 916.015625 1000.59277344 916.015625 1000.59277344 916.5859375 996.217773438 c 128,-1,116
 917.155273438 991.842773438 917.155273438 991.842773438 917.629882812 987.400390625 c 0,117,118
 918.815429688 976.30078125 918.815429688 976.30078125 919.408203125 964.778320312 c 128,-1,119
 920 953.254882812 920 953.254882812 920 941.307617188 c 0,120,121
 920 912.908203125 920 912.908203125 915.73046875 886.953125 c 128,-1,122
 911.461914062 860.998046875 911.461914062 860.998046875 902.908203125 837.516601562 c 0,123,124
 885.755859375 790.427734375 885.755859375 790.427734375 861.477539062 763.40234375 c 0,125,126
 858.534179688 760.126953125 858.534179688 760.126953125 855.58984375 756.974609375 c 128,-1,127
 852.645507812 753.823242188 852.645507812 753.823242188 849.696289062 750.79296875 c 128,-1,128
 846.747070312 747.762695312 846.747070312 747.762695312 843.793945312 744.854492188 c 128,-1,129
 840.840820312 741.946289062 840.840820312 741.946289062 837.884765625 739.162109375 c 0,130,0
 831.966796875 733.588867188 831.966796875 733.588867188 826.033203125 728.508789062 c 128,-1,1
EndSplineSet
EndChar

StartChar: four
Encoding: 52 52 23
Width: 1024
VWidth: 0
GlyphClass: 2
Flags: W
LayerCount: 2
Fore
SplineSet
590.119098549 1280 m 1,0,-1
 592.962363774 1280 l 1,1,-1
 595.909529063 1280 l 1,2,-1
 830 1280 l 1,3,-1
 835 1280 l 1,4,-1
 840 1280 l 1,5,-1
 840 1275 l 1,6,-1
 840 1270.03027344 l 1,7,-1
 840 452 l 1,8,-1
 990 452 l 1,9,-1
 995 452 l 1,10,-1
 1000 452 l 1,11,-1
 1000 447 l 1,12,-1
 1000 442 l 1,13,-1
 1000 256 l 1,14,-1
 1000 251 l 1,15,-1
 1000 246 l 1,16,-1
 995 246 l 1,17,-1
 990 246 l 1,18,-1
 840 246 l 1,19,-1
 840 9.8984375 l 1,20,-1
 840 5 l 1,21,-1
 840 0 l 1,22,-1
 835 0 l 1,23,-1
 830 0 l 1,24,-1
 595.909529063 0 l 1,25,-1
 590.671567161 0 l 1,26,-1
 585.556487065 0 l 1,27,-1
 585.556487065 5 l 1,28,-1
 585.556487065 9.8984375 l 1,29,-1
 585.556487065 246 l 1,30,-1
 74 246 l 1,31,-1
 69 246 l 1,32,-1
 64 246 l 1,33,-1
 64 250.975585938 l 1,34,-1
 64 255.927734375 l 1,35,-1
 64 440.130859375 l 1,36,-1
 64 441.516601562 l 1,37,-1
 64 442.915039062 l 1,38,-1
 64.732421875 444.109375 l 1,39,-1
 65.4736328125 445.317382812 l 1,40,-1
 587.089013016 1275.23632812 l 1,41,-1
 588.618541849 1277.640625 l 1,42,-1
 590.119098549 1280 l 1,0,-1
331.536814123 452 m 1,43,-1
 585.556487065 452 l 1,44,-1
 585.556487065 851.599609375 l 1,45,-1
 331.536814123 452 l 1,43,-1
EndSplineSet
EndChar

StartChar: five
Encoding: 53 53 24
Width: 1024
VWidth: 0
GlyphClass: 2
Flags: W
LayerCount: 2
Fore
SplineSet
899 1084 m 1,0,-1
 894 1084 l 1,1,-1
 439.711151661 1084 l 1,2,-1
 439.711151661 836 l 1,3,-1
 531.4790675 836 l 2,4,5
 598.011410591 836 598.011410591 836 655.03711955 825.168945312 c 128,-1,6
 711.887695312 814.337890625 711.887695312 814.337890625 758.107421875 792.565429688 c 128,-1,7
 804.327148438 770.79296875 804.327148438 770.79296875 841.168945312 738.110351562 c 0,8,9
 896.556640625 688.975585938 896.556640625 688.975585938 924.278320312 622.165039062 c 128,-1,10
 952 555.354492188 952 555.354492188 952 471.31640625 c 0,11,12
 952 339.836914062 952 339.836914062 911.700195312 246.0703125 c 0,13,14
 870.293945312 151.452148438 870.293945312 151.452148438 791.240234375 96.0771484375 c 0,15,16
 712.1484375 41.11328125 712.1484375 41.11328125 599.876088246 16.4658203125 c 0,17,18
 487.941059329 -8 487.941059329 -8 340 -8 c 0,19,20
 323.916015625 -8 323.916015625 -8 308.678710938 -7.748046875 c 128,-1,21
 293.4375 -7.498046875 293.4375 -7.498046875 279.026367188 -6.994140625 c 128,-1,22
 264.616210938 -6.490234375 264.616210938 -6.490234375 251.036132812 -5.734375 c 128,-1,23
 237.45703125 -4.978515625 237.45703125 -4.978515625 224.7109375 -3.96875 c 0,24,25
 173.568359375 0.08203125 173.568359375 0.08203125 153.884765625 4.2265625 c 2,26,-1
 135.830078125 8.23828125 l 1,27,-1
 131.915039062 9.1083984375 l 1,28,-1
 128 9.978515625 l 1,29,-1
 128 13.9892578125 l 1,30,-1
 128 18 l 1,31,-1
 128 196 l 1,32,-1
 128 201 l 1,33,-1
 128 206 l 1,34,-1
 133 206 l 1,35,-1
 138 206 l 1,36,-1
 340 206 l 2,37,38
 504.492590626 206 504.492590626 206 590.074448415 267.4921875 c 0,39,40
 632.124339106 297.706054688 632.124339106 297.706054688 653.2479553 348.393554688 c 128,-1,41
 674.372578338 399.081054688 674.372578338 399.081054688 674.372578338 470.76953125 c 0,42,43
 674.372578338 483.291992188 674.372578338 483.291992188 673.291226394 494.903320312 c 128,-1,44
 672.20987445 506.514648438 672.20987445 506.514648438 670.052204788 517.181640625 c 128,-1,45
 667.894535126 527.848632812 667.894535126 527.848632812 664.676657273 537.606445312 c 128,-1,46
 661.45877942 547.364257812 661.45877942 547.364257812 657.171631768 556.217773438 c 128,-1,47
 652.884484115 565.071289062 652.884484115 565.071289062 647.558272025 573.015625 c 128,-1,48
 642.233066779 580.9609375 642.233066779 580.9609375 635.845639652 588.038085938 c 0,49,50
 616.884727347 609.049804688 616.884727347 609.049804688 590.915164313 619.524414062 c 128,-1,51
 564.945601278 630 564.945601278 630 531.4790675 630 c 2,52,-1
 170 630 l 1,53,-1
 165 630 l 1,54,-1
 160 630 l 1,55,-1
 160 634.961914062 l 1,56,-1
 160 639.884765625 l 1,57,-1
 160 1270.03808594 l 1,58,-1
 160 1275 l 1,59,-1
 160 1280 l 1,60,-1
 165 1280 l 1,61,-1
 170 1280 l 1,62,-1
 894 1280 l 1,63,-1
 899 1280 l 1,64,-1
 904 1280 l 1,65,-1
 904 1275 l 1,66,-1
 904 1270 l 1,67,-1
 904 1093.73828125 l 1,68,-1
 904 1089 l 1,69,-1
 904 1084 l 1,70,-1
 899 1084 l 1,0,-1
EndSplineSet
EndChar

StartChar: six
Encoding: 54 54 25
Width: 1024
VWidth: 0
GlyphClass: 2
Flags: W
LayerCount: 2
Fore
SplineSet
952 390.689453125 m 0,0,1
 952 203.065429688 952 203.065429688 841.543945312 93.5107421875 c 128,-1,2
 731.130859375 -16 731.130859375 -16 532 -16 c 128,-1,3
 332.869140625 -16 332.869140625 -16 222.443359375 92.73828125 c 0,4,5
 167.162109375 147.173828125 167.162109375 147.173828125 139.544921875 221.168945312 c 128,-1,6
 112 294.970703125 112 294.970703125 112 387.770507812 c 0,7,8
 112 548.6015625 112 548.6015625 155.014648438 635.33203125 c 2,9,-1
 475.891871381 1274.43164062 l 1,10,-1
 477.341678238 1277.23242188 l 1,11,-1
 478.763333506 1280 l 1,12,-1
 481.947479356 1280 l 1,13,-1
 485.277410224 1280 l 1,14,-1
 782 1280 l 1,15,-1
 789.973632812 1280 l 1,16,-1
 797.973632812 1280 l 1,17,-1
 794.467773438 1277.49121094 l 1,18,-1
 790.986328125 1275 l 1,19,-1
 548.670768029 797.170898438 l 1,20,21
 595.985546598 795.927734375 595.985546598 795.927734375 636.708831578 788.85546875 c 128,-1,22
 677.432116558 781.783203125 677.432116558 781.783203125 714.149414062 768.455078125 c 0,23,24
 750.40625 754.633789062 750.40625 754.633789062 782.14453125 734.100585938 c 128,-1,25
 813.8828125 713.567382812 813.8828125 713.567382812 841.08984375 686.33203125 c 0,26,27
 952 575.309570312 952 575.309570312 952 390.689453125 c 0,0,1
359.036634365 384 m 0,28,29
 359.036634365 288.561523438 359.036634365 288.561523438 405.778327006 233.82421875 c 0,30,31
 452.012285622 180 452.012285622 180 532 180 c 0,32,33
 572.320114002 180 572.320114002 180 603.734271597 193.443359375 c 128,-1,34
 635.043866144 206.841796875 635.043866144 206.841796875 658.22569465 233.830078125 c 0,35,36
 666.002571238 242.883789062 666.002571238 242.883789062 672.492518022 253.038085938 c 128,-1,37
 678.981459392 263.192382812 678.981459392 263.192382812 684.190508856 274.466796875 c 0,38,39
 694.633743131 297.0703125 694.633743131 297.0703125 699.806597694 324.404296875 c 0,40,41
 702.381462716 338.131835938 702.381462716 338.131835938 703.672414175 353.032226562 c 128,-1,42
 704.963365635 367.931640625 704.963365635 367.931640625 704.963365635 384 c 0,43,44
 704.963365635 479.438476562 704.963365635 479.438476562 658.22569465 534.169921875 c 0,45,46
 642.756396242 552.1796875 642.756396242 552.1796875 623.729943424 564.109375 c 0,47,48
 614.227776567 570.067382812 614.227776567 570.067382812 603.776498981 574.537109375 c 128,-1,49
 593.325221394 579.006835938 593.325221394 579.006835938 581.893665246 581.998046875 c 0,50,51
 558.944087354 588 558.944087354 588 532 588 c 0,52,53
 482.129459274 588 482.129459274 588 448.24902136 577.178710938 c 128,-1,54
 414.368583447 566.357421875 414.368583447 566.357421875 396.237954421 545.190429688 c 0,55,56
 384.066413636 530.876953125 384.066413636 530.876953125 375.821014166 508.360351562 c 128,-1,57
 367.575614697 485.844726562 367.575614697 485.844726562 363.305621824 454.577148438 c 128,-1,58
 359.036634365 423.30859375 359.036634365 423.30859375 359.036634365 384 c 0,28,29
EndSplineSet
EndChar

StartChar: seven
Encoding: 55 55 26
Width: 1024
VWidth: 0
GlyphClass: 2
Flags: W
LayerCount: 2
Fore
SplineSet
968 1280 m 1,0,-1
 968 1275 l 1,1,-1
 968 1270.0390625 l 1,2,-1
 968 1086.9296875 l 1,3,-1
 968 1085.08691406 l 1,4,-1
 967.3359375 1083.38671875 l 1,5,-1
 541.719315989 6.3759765625 l 1,6,-1
 540.424543835 3.1787109375 l 1,7,-1
 539.147824275 -0 l 1,8,-1
 535.642612287 0 l 1,9,-1
 532 0 l 1,10,-1
 248 0 l 1,11,-1
 240.749023438 0 l 1,12,-1
 233.498046875 0 l 1,13,-1
 236.075195312 6.71484375 l 1,14,-1
 238.659179688 13.447265625 l 1,15,-1
 666.831815314 1084 l 1,16,-1
 106 1084 l 1,17,-1
 101 1084 l 1,18,-1
 96 1084 l 1,19,-1
 96 1089 l 1,20,-1
 96 1093.73828125 l 1,21,-1
 96 1270 l 1,22,-1
 96 1275 l 1,23,-1
 96 1280 l 1,24,-1
 101 1280 l 1,25,-1
 106 1280 l 1,26,-1
 958 1280 l 1,27,-1
 963 1280 l 1,28,-1
 968 1280 l 1,0,-1
EndSplineSet
EndChar

StartChar: eight
Encoding: 56 56 27
Width: 1024
VWidth: 0
GlyphClass: 2
Flags: W
LayerCount: 2
Fore
SplineSet
134.563476562 857.173828125 m 0,0,1
 123.319335938 879.321289062 123.319335938 879.321289062 117.666992188 901.852539062 c 0,2,3
 114.834960938 913.137695312 114.834960938 913.137695312 113.41796875 924.502929688 c 128,-1,4
 112 935.868164062 112 935.868164062 112 947.297851562 c 0,5,6
 112 1109.44921875 112 1109.44921875 223.014648438 1203.02539062 c 0,7,8
 333.622249863 1296 333.622249863 1296 532 1296 c 0,9,10
 571.561656014 1296 571.561656014 1296 607.743522194 1292.27148438 c 0,11,12
 643.925388373 1291.84863281 643.925388373 1291.84863281 676.801525852 1291 c 0,13,14
 709.676662505 1283.51953125 709.676662505 1283.51953125 739.123046875 1272.29394531 c 0,15,16
 767.876953125 1261.06738281 767.876953125 1261.06738281 793.364257812 1246.05175781 c 128,-1,17
 818.852539062 1231.03515625 818.852539062 1231.03515625 840.987304688 1212.25585938 c 0,18,19
 896.451171875 1165.15039062 896.451171875 1165.15039062 924.225585938 1100.61328125 c 128,-1,20
 952 1036.07714844 952 1036.07714844 952 954.592773438 c 0,21,22
 952 939.265625 952 939.265625 949.596679688 924.09765625 c 0,23,24
 948.795898438 919.043945312 948.795898438 919.043945312 947.73046875 914.013671875 c 128,-1,25
 946.665039062 908.984375 946.665039062 908.984375 945.3359375 903.983398438 c 128,-1,26
 944.006835938 898.982421875 944.006835938 898.982421875 942.4140625 894.0078125 c 0,27,28
 940.026367188 886.549804688 940.026367188 886.549804688 937.047851562 879.150390625 c 128,-1,29
 934.068359375 871.750976562 934.068359375 871.750976562 930.500976562 864.41015625 c 0,30,31
 909.259765625 820.711914062 909.259765625 820.711914062 878.557617188 790.2421875 c 0,32,33
 868.571289062 780.33203125 868.571289062 780.33203125 858.581054688 771.202148438 c 128,-1,34
 848.58984375 762.071289062 848.58984375 762.071289062 838.579101562 753.708984375 c 128,-1,35
 828.568359375 745.346679688 828.568359375 745.346679688 818.549804688 737.763671875 c 0,36,37
 812.563476562 733.232421875 812.563476562 733.232421875 806.907226562 729.153320312 c 128,-1,38
 801.25 725.07421875 801.25 725.07421875 795.900390625 721.432617188 c 128,-1,39
 790.544921875 717.787109375 790.544921875 717.787109375 785.528320312 714.603515625 c 2,40,-1
 775.787109375 708.672851562 l 2,41,42
 771.05859375 705.922851562 771.05859375 705.922851562 766.716796875 703.666015625 c 2,43,-1
 762.47265625 701.349609375 l 1,44,45
 767.20703125 698.596679688 767.20703125 698.596679688 772.090820312 695.71875 c 0,46,47
 774.989257812 694.01171875 774.989257812 694.01171875 778.494140625 691.697265625 c 128,-1,48
 781.998046875 689.383789062 781.998046875 689.383789062 786.0703125 686.49609375 c 128,-1,49
 790.141601562 683.608398438 790.141601562 683.608398438 794.8828125 680.078125 c 0,50,51
 801.946289062 674.8203125 801.946289062 674.8203125 810.543945312 668.106445312 c 128,-1,52
 819.141601562 661.391601562 819.141601562 661.391601562 829.291992188 653.208007812 c 0,53,54
 869.98828125 620.392578125 869.98828125 620.392578125 901.073242188 584.487304688 c 0,55,56
 905.579101562 579.283203125 905.579101562 579.283203125 909.962890625 573.6796875 c 128,-1,57
 914.345703125 568.077148438 914.345703125 568.077148438 918.6015625 562.084960938 c 128,-1,58
 922.856445312 556.092773438 922.856445312 556.092773438 926.991210938 549.701171875 c 128,-1,59
 931.125976562 543.309570312 931.125976562 543.309570312 935.133789062 536.53125 c 128,-1,60
 939.142578125 529.752929688 939.142578125 529.752929688 943.032226562 522.57421875 c 128,-1,61
 946.921875 515.396484375 946.921875 515.396484375 950.685546875 507.833007812 c 128,-1,62
 954.450195312 500.26953125 954.450195312 500.26953125 958.09765625 492.305664062 c 0,63,64
 966.717773438 473.485351562 966.717773438 473.485351562 972.47265625 454.514648438 c 128,-1,65
 978.227539062 435.54296875 978.227539062 435.54296875 981.114257812 416.405273438 c 128,-1,66
 984 397.267578125 984 397.267578125 984 378.015625 c 0,67,68
 984 195.918945312 984 195.918945312 864.661132812 89.740234375 c 0,69,70
 745.815429688 -16 745.815429688 -16 532 -16 c 128,-1,71
 318.184570312 -16 318.184570312 -16 199.338867188 88.9453125 c 0,72,73
 80 194.326171875 80 194.326171875 80 375.0546875 c 0,74,75
 80 389.374023438 80 389.374023438 81.5595703125 403.604492188 c 128,-1,76
 83.119140625 417.834960938 83.119140625 417.834960938 86.2314453125 431.948242188 c 128,-1,77
 89.34375 446.0546875 89.34375 446.0546875 94.0029296875 460.046875 c 128,-1,78
 98.6591796875 474.032226562 98.6591796875 474.032226562 104.853515625 487.88671875 c 0,79,80
 129.524414062 543.065429688 129.524414062 543.065429688 164.649414062 580.712890625 c 0,81,82
 199.033203125 617.56640625 199.033203125 617.56640625 233.4609375 646.987304688 c 0,83,84
 268.166992188 676.647460938 268.166992188 676.647460938 292.975585938 690.900390625 c 2,85,-1
 301.357421875 695.715820312 l 2,86,87
 298.372070312 697.333007812 298.372070312 697.333007812 295.658203125 698.817382812 c 0,88,89
 288.44921875 702.76171875 288.44921875 702.76171875 276.245117188 710.901367188 c 128,-1,90
 264.157226562 718.96484375 264.157226562 718.96484375 246.647460938 731.4609375 c 0,91,92
 240.780273438 735.6484375 240.780273438 735.6484375 235.13671875 739.922851562 c 128,-1,93
 229.493164062 744.196289062 229.493164062 744.196289062 224.069335938 748.559570312 c 128,-1,94
 218.645507812 752.921875 218.645507812 752.921875 213.447265625 757.37109375 c 0,95,96
 205.643554688 764.048828125 205.643554688 764.048828125 198.344726562 770.922851562 c 128,-1,97
 191.044921875 777.797851562 191.044921875 777.797851562 184.25 784.869140625 c 0,98,99
 178.727539062 790.616210938 178.727539062 790.616210938 173.422851562 796.965820312 c 128,-1,100
 168.118164062 803.314453125 168.118164062 803.314453125 163.043945312 810.24609375 c 128,-1,101
 157.969726562 817.177734375 157.969726562 817.177734375 153.110351562 824.709960938 c 128,-1,102
 148.250976562 832.243164062 148.250976562 832.243164062 143.618164062 840.353515625 c 128,-1,103
 138.985351562 848.462890625 138.985351562 848.462890625 134.563476562 857.173828125 c 0,0,1
460.28780545 1089.99511719 m 128,-1,105
 428.836844377 1079.99023438 428.836844377 1079.99023438 405.922930177 1060.07617188 c 128,-1,106
 383.160140721 1040.29199219 383.160140721 1040.29199219 371.803766647 1013.38671875 c 128,-1,107
 360.448393398 986.481445312 360.448393398 986.481445312 360.448393398 952 c 0,108,109
 360.448393398 947.142578125 360.448393398 947.142578125 360.924786635 942.330078125 c 2,110,-1
 362.358970477 932.727539062 l 1,111,-1
 364.759952358 923.172851562 l 2,112,113
 366.206146113 918.400390625 366.206146113 918.400390625 368.140743018 913.647460938 c 0,114,115
 369.110543536 911.267578125 369.110543536 911.267578125 370.204446494 908.890625 c 128,-1,116
 371.298349452 906.512695312 371.298349452 906.512695312 372.518356502 904.13671875 c 0,117,118
 374.963374733 899.375 374.963374733 899.375 377.906804375 894.630859375 c 0,119,120
 383.923771057 884.936523438 383.923771057 884.936523438 390.704368074 876.266601562 c 128,-1,121
 397.484965091 867.596679688 397.484965091 867.596679688 405.014180052 859.961914062 c 128,-1,122
 412.543395013 852.328125 412.543395013 852.328125 420.844246919 845.697265625 c 0,123,124
 446.639539542 825.092773438 446.639539542 825.092773438 472.913227055 808.927734375 c 0,125,126
 479.462633236 804.897460938 479.462633236 804.897460938 485.532643703 801.385742188 c 128,-1,127
 491.602654169 797.873046875 491.602654169 797.873046875 497.14422844 794.904296875 c 128,-1,128
 502.685802711 791.935546875 502.685802711 791.935546875 507.709949873 789.499023438 c 128,-1,129
 512.734097036 787.0625 512.734097036 787.0625 517.241817916 785.157226562 c 2,130,-1
 532.029023958 778.908203125 l 2,131,132
 535.136589085 780.235351562 535.136589085 780.235351562 537.695701494 781.361328125 c 0,133,134
 541.805093576 783.169921875 541.805093576 783.169921875 547.022400181 785.54296875 c 0,135,136
 550.817532859 787.268554688 550.817532859 787.268554688 556.833498714 790.401367188 c 128,-1,137
 562.84946457 793.53515625 562.84946457 793.53515625 571.15431978 798.1171875 c 128,-1,138
 579.45917499 802.700195312 579.45917499 802.700195312 589.806716328 808.603515625 c 0,139,140
 605.202424655 817.387695312 605.202424655 817.387695312 618.769623646 826.635742188 c 128,-1,141
 632.336822637 835.883789062 632.336822637 835.883789062 644.071508988 845.587890625 c 0,142,143
 651.692799953 851.888671875 651.692799953 851.888671875 658.834695202 859.369140625 c 128,-1,144
 665.977591278 866.848632812 665.977591278 866.848632812 672.678122205 875.559570312 c 128,-1,145
 679.377652306 884.270507812 679.377652306 884.270507812 685.592782561 894.173828125 c 2,146,-1
 693.523328799 908.659179688 l 2,147,148
 695.211722477 912.271484375 695.211722477 912.271484375 696.610877404 915.880859375 c 128,-1,149
 698.011033157 919.490234375 698.011033157 919.490234375 699.123951811 923.100585938 c 0,150,151
 701.345785815 930.303710938 701.345785815 930.303710938 702.448696209 937.521484375 c 128,-1,152
 703.551606602 944.728515625 703.551606602 944.728515625 703.551606602 952 c 0,153,154
 703.551606602 986.481445312 703.551606602 986.481445312 692.196233353 1013.38671875 c 128,-1,155
 680.839859279 1040.29199219 680.839859279 1040.29199219 658.077069823 1060.07617188 c 0,156,157
 612.139150548 1100 612.139150548 1100 532 1100 c 0,158,104
 491.738766523 1100 491.738766523 1100 460.28780545 1089.99511719 c 128,-1,105
591.12680599 536.890625 m 0,159,160
 564.486816115 555.40234375 564.486816115 555.40234375 546.332830979 564.033203125 c 2,161,-1
 531.78282073 570.951171875 l 2,162,163
 528.411037505 569.418945312 528.411037505 569.418945312 526.12214815 568.310546875 c 0,164,165
 524.89713697 567.716796875 524.89713697 567.716796875 523.467957259 567.005859375 c 128,-1,166
 522.038777548 566.295898438 522.038777548 566.295898438 520.397422698 565.462890625 c 128,-1,167
 518.755067022 564.629882812 518.755067022 564.629882812 516.915548599 563.681640625 c 0,168,169
 512.96829035 561.6484375 512.96829035 561.6484375 506.79319314 557.982421875 c 128,-1,170
 500.619096756 554.315429688 500.619096756 554.315429688 492.145101931 548.962890625 c 128,-1,171
 483.672107931 543.611328125 483.672107931 543.611328125 473.161431935 536.729492188 c 0,172,173
 457.490496422 526.469726562 457.490496422 526.469726562 443.777176816 515.74609375 c 0,174,175
 436.930525275 510.391601562 436.930525275 510.391601562 430.575279362 504.92578125 c 128,-1,176
 424.219032623 499.459960938 424.219032623 499.459960938 418.356193165 493.884765625 c 0,177,178
 415.494831265 491.163085938 415.494831265 491.163085938 412.69151728 488.252929688 c 128,-1,179
 409.886201644 485.340820312 409.886201644 485.340820312 407.129926487 482.228515625 c 128,-1,180
 404.374652157 479.118164062 404.374652157 479.118164062 401.673422437 475.809570312 c 128,-1,181
 398.969190239 472.498046875 398.969190239 472.498046875 396.323005957 468.993164062 c 2,182,-1
 391.079677872 461.77734375 l 2,183,184
 388.484535722 458.067382812 388.484535722 458.067382812 385.948442314 454.165039062 c 0,185,186
 384.679394784 452.2109375 384.679394784 452.2109375 383.424358819 450.208007812 c 128,-1,187
 382.169322855 448.204101562 382.169322855 448.204101562 380.92729763 446.1484375 c 0,188,189
 380.099614422 444.779296875 380.099614422 444.779296875 379.277936171 443.387695312 c 128,-1,190
 378.457258746 441.99609375 378.457258746 441.99609375 377.642586278 440.58203125 c 128,-1,191
 376.826912983 439.168945312 376.826912983 439.168945312 376.019246298 437.733398438 c 0,192,193
 366.623490608 421.040039062 366.623490608 421.040039062 361.958640026 404.37890625 c 128,-1,194
 357.293789443 387.716796875 357.293789443 387.716796875 357.293789443 371 c 0,195,196
 357.293789443 326.204101562 357.293789443 326.204101562 369.026474142 291.172851562 c 128,-1,197
 380.760159666 256.141601562 380.760159666 256.141601562 404.126447277 230.61328125 c 0,198,199
 450.453687916 180 450.453687916 180 532 180 c 128,-1,200
 613.546312084 180 613.546312084 180 659.873552723 230.61328125 c 0,201,202
 706.706210557 281.779296875 706.706210557 281.779296875 706.706210557 371 c 0,203,204
 706.706210557 372.673828125 706.706210557 372.673828125 706.662174207 374.346679688 c 128,-1,205
 706.618137858 376.01953125 706.618137858 376.01953125 706.531065985 377.69140625 c 128,-1,206
 706.442993285 379.36328125 706.442993285 379.36328125 706.310884236 381.033203125 c 128,-1,207
 706.179776014 382.703125 706.179776014 382.703125 706.003630615 384.372070312 c 128,-1,208
 705.827485217 386.041015625 705.827485217 386.041015625 705.608304295 387.708984375 c 0,209,210
 704.50839638 396.0546875 704.50839638 396.0546875 702.299573115 404.403320312 c 0,211,212
 701.193660244 408.583007812 701.193660244 408.583007812 699.806515231 412.766601562 c 128,-1,213
 698.419370217 416.950195312 698.419370217 416.950195312 696.74899141 421.138671875 c 128,-1,214
 695.07661095 425.33203125 695.07661095 425.33203125 693.120996695 429.530273438 c 128,-1,215
 691.164381615 433.728515625 691.164381615 433.728515625 688.923531915 437.931640625 c 0,216,217
 670.850613695 471.825195312 670.850613695 471.825195312 644.893187239 494.609375 c 0,218,219
 617.988979266 518.224609375 617.988979266 518.224609375 591.12680599 536.890625 c 0,159,160
EndSplineSet
EndChar

StartChar: nine
Encoding: 57 57 28
Width: 1024
VWidth: 0
GlyphClass: 2
Flags: W
LayerCount: 2
Fore
SplineSet
139.609375 1057.31347656 m 128,-1,1
 167.219726562 1131.703125 167.219726562 1131.703125 222.456054688 1186.48925781 c 128,-1,2
 277.697265625 1241.27832031 277.697265625 1241.27832031 353.916992188 1268.63964844 c 0,3,4
 432.276010584 1296 432.276010584 1296 532 1296 c 0,5,6
 581.919806008 1296 581.919806008 1296 626.741158082 1293.78027344 c 0,7,8
 649.194061503 1292.66796875 649.194061503 1292.66796875 670.287645319 1291 c 0,9,10
 691.381229135 1285.88378906 691.381229135 1285.88378906 711.03515625 1279.04296875 c 0,11,12
 748.590820312 1265.35351562 748.590820312 1265.35351562 781.241210938 1244.76757812 c 0,13,14
 797.571289062 1234.47167969 797.571289062 1234.47167969 812.65234375 1222.45996094 c 128,-1,15
 827.734375 1210.44824219 827.734375 1210.44824219 841.556640625 1196.72753906 c 0,16,17
 896.837890625 1141.85742188 896.837890625 1141.85742188 924.455078125 1067.27050781 c 128,-1,18
 952 992.87890625 952 992.87890625 952 899.337890625 c 0,19,20
 952 876.235351562 952 876.235351562 951.1328125 854.676757812 c 128,-1,21
 950.264648438 833.118164062 950.264648438 833.118164062 948.522460938 813.026367188 c 128,-1,22
 946.779296875 792.93359375 946.779296875 792.93359375 944.161132812 774.375 c 128,-1,23
 941.541992188 755.81640625 941.541992188 755.81640625 938.036132812 738.732421875 c 128,-1,24
 934.529296875 721.647460938 934.529296875 721.647460938 930.138671875 706.0859375 c 128,-1,25
 925.748046875 690.524414062 925.748046875 690.524414062 920.458007812 676.444335938 c 128,-1,26
 915.168945312 662.364257812 915.168945312 662.364257812 908.985351562 649.796875 c 2,27,-1
 588.108128619 5.5908203125 l 1,28,-1
 586.658321762 2.767578125 l 1,29,-1
 585.236666494 0 l 1,30,-1
 582.052520644 0 l 1,31,-1
 578.722589776 0 l 1,32,-1
 282 0 l 1,33,-1
 274.026367188 0 l 1,34,-1
 266.026367188 0 l 1,35,-1
 269.532226562 2.5087890625 l 1,36,-1
 273.013671875 5 l 1,37,-1
 515.330237385 482.831054688 l 1,38,39
 420.839427366 485.375976562 420.839427366 485.375976562 347.53515625 512.928710938 c 0,40,41
 276.041015625 540.482421875 276.041015625 540.482421875 222.91015625 593.66796875 c 0,42,43
 195.176757812 621.428710938 195.176757812 621.428710938 174.358398438 653.866210938 c 128,-1,44
 153.5390625 686.3046875 153.5390625 686.3046875 139.676757812 723.349609375 c 0,45,46
 112 797.315429688 112 797.315429688 112 889.310546875 c 0,47,0
 112 982.922851562 112 982.922851562 139.609375 1057.31347656 c 128,-1,1
704.963365635 896 m 0,48,49
 704.963365635 991.438476562 704.963365635 991.438476562 658.221672994 1046.17578125 c 0,50,51
 611.987714378 1100 611.987714378 1100 532 1100 c 0,52,53
 491.80656815 1100 491.80656815 1100 460.374313106 1086.57128906 c 128,-1,54
 428.942058061 1073.14160156 428.942058061 1073.14160156 405.783354076 1046.18066406 c 0,55,56
 382.473838004 1018.88476562 382.473838004 1018.88476562 370.755738892 981.387695312 c 128,-1,57
 359.036634365 943.890625 359.036634365 943.890625 359.036634365 896 c 128,-1,58
 359.036634365 847.942382812 359.036634365 847.942382812 370.6190026 810.364257812 c 0,59,60
 382.396421133 773.044921875 382.396421133 773.044921875 405.77430535 745.830078125 c 0,61,62
 428.95713927 718.841796875 428.95713927 718.841796875 460.265728403 705.442382812 c 128,-1,63
 491.679885998 692 491.679885998 692 532 692 c 0,64,65
 631.092589481 692 631.092589481 692 667.762045579 734.809570312 c 0,66,67
 704.963365635 778.55859375 704.963365635 778.55859375 704.963365635 896 c 0,48,49
EndSplineSet
EndChar

StartChar: colon
Encoding: 58 58 29
Width: 1024
VWidth: 0
GlyphClass: 2
Flags: W
LayerCount: 2
Fore
SplineSet
341 1194 m 1,0,-1
 683 1194 l 1,1,-1
 688 1194 l 1,2,-1
 693 1194 l 1,3,-1
 693 1189 l 1,4,-1
 693 1184 l 1,5,-1
 693 864 l 1,6,-1
 693 859 l 1,7,-1
 693 854 l 1,8,-1
 688 854 l 1,9,-1
 683 854 l 1,10,-1
 341 854 l 1,11,-1
 336 854 l 1,12,-1
 331 854 l 1,13,-1
 331 859 l 1,14,-1
 331 864 l 1,15,-1
 331 1184 l 1,16,-1
 331 1189 l 1,17,-1
 331 1194 l 1,18,-1
 336 1194 l 1,19,-1
 341 1194 l 1,0,-1
341 426 m 1,20,-1
 683 426 l 1,21,-1
 688 426 l 1,22,-1
 693 426 l 1,23,-1
 693 421 l 1,24,-1
 693 416 l 1,25,-1
 693 96 l 1,26,-1
 693 91 l 1,27,-1
 693 86 l 1,28,-1
 688 86 l 1,29,-1
 683 86 l 1,30,-1
 341 86 l 1,31,-1
 336 86 l 1,32,-1
 331 86 l 1,33,-1
 331 91 l 1,34,-1
 331 96 l 1,35,-1
 331 416 l 1,36,-1
 331 421 l 1,37,-1
 331 426 l 1,38,-1
 336 426 l 1,39,-1
 341 426 l 1,20,-1
EndSplineSet
EndChar

StartChar: semicolon
Encoding: 59 59 30
Width: 1024
VWidth: 0
GlyphClass: 2
Flags: W
LayerCount: 2
Fore
SplineSet
341 1194 m 1,0,-1
 683 1194 l 1,1,-1
 688 1194 l 1,2,-1
 693 1194 l 1,3,-1
 693 1189 l 1,4,-1
 693 1184 l 1,5,-1
 693 864 l 1,6,-1
 693 859 l 1,7,-1
 693 854 l 1,8,-1
 688 854 l 1,9,-1
 683 854 l 1,10,-1
 341 854 l 1,11,-1
 336 854 l 1,12,-1
 331 854 l 1,13,-1
 331 859 l 1,14,-1
 331 864 l 1,15,-1
 331 1184 l 1,16,-1
 331 1189 l 1,17,-1
 331 1194 l 1,18,-1
 336 1194 l 1,19,-1
 341 1194 l 1,0,-1
341 426 m 1,20,-1
 683 426 l 1,21,-1
 688 426 l 1,22,-1
 693 426 l 1,23,-1
 693 421 l 1,24,-1
 693 416 l 1,25,-1
 693 160 l 1,26,-1
 692.987508348 159.646785508 l 1,27,-1
 691.949869663 144.994975589 l 2,28,29
 691.640376252 142.209534884 691.640376252 142.209534884 690.814079849 138.398820622 c 128,-1,30
 689.987783447 134.58810636 689.987783447 134.58810636 688.595224891 129.552570306 c 128,-1,31
 687.202666335 124.517034252 687.202666335 124.517034252 685.352393355 118.516285571 c 128,-1,32
 683.502120374 112.515536889 683.502120374 112.515536889 681.003090278 104.886918702 c 0,33,34
 671.26383605 75.1565636891 671.26383605 75.1565636891 654.915788681 42.9713454319 c 0,35,36
 649.408252943 32.1283844482 649.408252943 32.1283844482 641.78190971 19.493119009 c 128,-1,37
 634.184788095 6.90626771561 634.184788095 6.90626771561 624.517807781 -7.42243522706 c 128,-1,38
 614.870343378 -21.7222110705 614.870343378 -21.7222110705 603.080075302 -37.8917215745 c 0,39,40
 585.342418215 -62.2176512935 585.342418215 -62.2176512935 564.340279647 -86.5108229195 c 128,-1,41
 543.338141078 -110.803994546 543.338141078 -110.803994546 519.071067812 -135.071067812 c 2,42,-1
 391.071067812 -263.071067812 l 1,43,-1
 387.705139499 -266.436996125 l 1,44,-1
 384.339211186 -269.802924438 l 1,45,-1
 380.812008469 -266.606396976 l 1,46,-1
 377.284805753 -263.409869514 l 1,47,-1
 249.284805753 -147.409869514 l 1,48,-1
 245.393183224 -143.883086598 l 1,49,-1
 241.501560695 -140.356303681 l 1,50,-1
 245.215246442 -136.642617935 l 1,51,-1
 248.928932188 -132.928932188 l 1,52,-1
 376.928932188 -4.92893218813 l 2,53,54
 391.070914746 9.21305036959 391.070914746 9.21305036959 403.652938923 22.4766802587 c 128,-1,55
 416.234963101 35.7403101478 416.234963101 35.7403101478 427.25260577 48.1197721263 c 0,56,57
 449.250306149 72.8364654913 449.250306149 72.8364654913 464.977667787 93.9701076932 c 0,58,59
 495.635192196 135.166156118 495.635192196 135.166156118 498.194193243 147.961161351 c 0,60,-1
 498.384760524 148.747211279 l 1,61,-1
 498.742700158 150 l 1,62,-1
 341 150 l 1,63,-1
 336 150 l 1,64,-1
 331 150 l 1,65,-1
 331 155 l 1,66,-1
 331 160 l 1,67,-1
 331 416 l 1,68,-1
 331 421 l 1,69,-1
 331 426 l 1,70,-1
 336 426 l 1,71,-1
 341 426 l 1,20,-1
EndSplineSet
EndChar

StartChar: less
Encoding: 60 60 31
Width: 1024
VWidth: 0
GlyphClass: 2
Flags: W
LayerCount: 2
Fore
SplineSet
933.845453092 1015.88638933 m 1,0,-1
 412.107313739 640 l 1,1,-1
 933.845453092 264.113610672 l 1,2,-1
 937.908601117 261.186314534 l 1,3,-1
 941.971749143 258.259018396 l 1,4,-1
 939.038108937 254.200448488 l 1,5,-1
 936.104468732 250.14187858 l 1,6,-1
 803.031719719 66.0412333295 l 1,7,-1
 800.178864298 62.0944258294 l 1,8,-1
 797.253259865 58.0469730792 l 1,9,-1
 793.202355701 60.9677966824 l 1,10,-1
 789.151451536 63.8886202857 l 1,11,-1
 90.1514515365 567.888620286 l 1,12,-1
 88.0757257682 569.385280925 l 1,13,-1
 86 570.881941565 l 1,14,-1
 86 573.440970783 l 1,15,-1
 86 576 l 1,16,-1
 86 704 l 1,17,-1
 86 706.559029217 l 1,18,-1
 87.2454354609 708.992443132 l 1,19,-1
 88.0757257682 710.614719075 l 1,20,-1
 90.1514515365 712.111379714 l 1,21,-1
 789.151451536 1216.11137971 l 1,22,-1
 793.202355701 1219.03220332 l 1,23,-1
 797.253259865 1221.95302692 l 1,24,-1
 800.178864298 1217.90557417 l 1,25,-1
 803.104468732 1213.85812142 l 1,26,-1
 936.104468732 1029.85812142 l 1,27,-1
 939.038108937 1025.79955151 l 1,28,-1
 941.971749143 1021.7409816 l 1,29,-1
 937.908601117 1018.81368547 l 1,30,-1
 933.845453092 1015.88638933 l 1,0,-1
EndSplineSet
EndChar

StartChar: equal
Encoding: 61 61 32
Width: 1024
VWidth: 0
GlyphClass: 2
Flags: W
LayerCount: 2
Fore
SplineSet
96 956 m 1,0,-1
 928 956 l 1,1,-1
 933 956 l 1,2,-1
 938 956 l 1,3,-1
 938 951 l 1,4,-1
 938 946 l 1,5,-1
 938 742 l 1,6,-1
 938 737 l 1,7,-1
 938 732 l 1,8,-1
 933 732 l 1,9,-1
 928 732 l 1,10,-1
 96 732 l 1,11,-1
 91 732 l 1,12,-1
 86 732 l 1,13,-1
 86 737 l 1,14,-1
 86 742 l 1,15,-1
 86 946 l 1,16,-1
 86 951 l 1,17,-1
 86 956 l 1,18,-1
 91 956 l 1,19,-1
 96 956 l 1,0,-1
96 548 m 1,20,-1
 928 548 l 1,21,-1
 933 548 l 1,22,-1
 938 548 l 1,23,-1
 938 543 l 1,24,-1
 938 538 l 1,25,-1
 938 334 l 1,26,-1
 938 329 l 1,27,-1
 938 324 l 1,28,-1
 933 324 l 1,29,-1
 928 324 l 1,30,-1
 96 324 l 1,31,-1
 91 324 l 1,32,-1
 86 324 l 1,33,-1
 86 329 l 1,34,-1
 86 334 l 1,35,-1
 86 538 l 1,36,-1
 86 543 l 1,37,-1
 86 548 l 1,38,-1
 91 548 l 1,39,-1
 96 548 l 1,20,-1
EndSplineSet
EndChar

StartChar: greater
Encoding: 62 62 33
Width: 1024
VWidth: 0
GlyphClass: 2
Flags: W
LayerCount: 2
Fore
SplineSet
87.8955312682 1029.85812142 m 1,0,-1
 220.895531268 1213.85812142 l 1,1,-1
 223.821135702 1217.90557417 l 1,2,-1
 226.746740135 1221.95302692 l 1,3,-1
 230.797644299 1219.03220332 l 1,4,-1
 234.848548464 1216.11137971 l 1,5,-1
 933.848548464 712.111379714 l 1,6,-1
 935.924274232 710.614719075 l 1,7,-1
 938 709.118058435 l 1,8,-1
 938 706.559029217 l 1,9,-1
 938 704 l 1,10,-1
 938 576 l 1,11,-1
 938 573.440970783 l 1,12,-1
 938 570.881941565 l 1,13,-1
 935.924274232 569.385280925 l 1,14,-1
 933.848548464 567.888620286 l 1,15,-1
 234.848548464 63.8886202857 l 1,16,-1
 230.797644299 60.9677966824 l 1,17,-1
 226.746740135 58.0469730792 l 1,18,-1
 223.821135702 62.0944258294 l 1,19,-1
 220.895531268 66.1418785797 l 1,20,-1
 87.8955312682 250.14187858 l 1,21,-1
 84.9618910628 254.200448488 l 1,22,-1
 82.0282508574 258.259018396 l 1,23,-1
 86.0913988825 261.186314534 l 1,24,-1
 90.1545469076 264.113610672 l 1,25,-1
 611.892686261 640 l 1,26,-1
 90.1545469076 1015.88638933 l 1,27,-1
 86.0913988825 1018.81368547 l 1,28,-1
 82.0282508574 1021.7409816 l 1,29,-1
 84.9618910628 1025.79955151 l 1,30,-1
 87.8955312682 1029.85812142 l 1,0,-1
EndSplineSet
EndChar

StartChar: question
Encoding: 63 63 34
Width: 1024
VWidth: 0
GlyphClass: 2
Flags: W
LayerCount: 2
Fore
SplineSet
158.230612382 1281.84221862 m 2,0,1
 248.108271282 1298 248.108271282 1298 392 1298 c 0,2,3
 631.807567254 1298 631.807567254 1298 759.704864505 1220.03869929 c 0,4,5
 890 1140.61576809 890 1140.61576809 890 964 c 0,6,7
 890 944.49614169 890 944.49614169 888.396595091 926.131916746 c 128,-1,8
 886.793190181 907.767691802 886.793190181 907.767691802 883.57981987 890.525277123 c 128,-1,9
 880.366449559 873.282862443 880.366449559 873.282862443 875.547398578 857.196660263 c 128,-1,10
 870.728347598 841.110458082 870.728347598 841.110458082 864.289229616 826.161160795 c 128,-1,11
 857.850111635 811.211863507 857.850111635 811.211863507 849.803558947 797.435456818 c 128,-1,12
 841.757006259 783.659050129 841.757006259 783.659050129 832.08028497 771.034642962 c 128,-1,13
 822.403563681 758.410235795 822.403563681 758.410235795 811.117131926 746.975298359 c 0,14,15
 773.240018631 708.599801994 773.240018631 708.599801994 721.98239825 688.66047433 c 128,-1,16
 670.724777868 668.721146666 670.724777868 668.721146666 607 667.116892657 c 1,17,-1
 607 512 l 1,18,-1
 607 507 l 1,19,-1
 607 502 l 1,20,-1
 602 502 l 1,21,-1
 597 502 l 1,22,-1
 341 502 l 1,23,-1
 336 502 l 1,24,-1
 331 502 l 1,25,-1
 331 507 l 1,26,-1
 331 512 l 1,27,-1
 331 834 l 1,28,-1
 331 839 l 1,29,-1
 331 844 l 1,30,-1
 336 844 l 1,31,-1
 341 844 l 2,32,33
 368.547259602 844 368.547259602 844 393.443417603 845.195592629 c 128,-1,34
 418.323774486 846.389883215 418.323774486 846.389883215 440.420726625 848.758490461 c 0,35,36
 444.836013127 849.231772003 444.836013127 849.231772003 449.145106408 849.751866775 c 128,-1,37
 453.454199689 850.271961547 453.454199689 850.271961547 457.65326739 850.838326059 c 128,-1,38
 461.852335091 851.404690572 461.852335091 851.404690572 465.944840092 852.017707422 c 128,-1,39
 470.037345094 852.630724272 470.037345094 852.630724272 474.019886868 853.289815829 c 128,-1,40
 478.002428642 853.948907385 478.002428642 853.948907385 481.878038238 854.654490388 c 0,41,42
 501.224410096 858.176638533 501.224410096 858.176638533 517.809222437 862.832565191 c 0,43,44
 526.076717033 865.153534985 526.076717033 865.153534985 533.664027224 867.754129454 c 128,-1,45
 541.251337415 870.354723923 541.251337415 870.354723923 548.153846154 873.230769231 c 0,46,47
 565.059343773 880.274726572 565.059343773 880.274726572 577.529724407 889.454753901 c 128,-1,48
 589.8496834 898.524048862 589.8496834 898.524048862 597.944070363 909.786997893 c 0,49,50
 601.979523893 915.402136832 601.979523893 915.402136832 604.985803225 921.552475288 c 128,-1,51
 607.992082558 927.702813743 607.992082558 927.702813743 609.985929443 934.426626095 c 0,52,53
 614 947.96320074 614 947.96320074 614 964 c 0,54,55
 614 1027.86625034 614 1027.86625034 560.467533236 1055.0861487 c 0,56,57
 532.239801298 1069.43923273 532.239801298 1069.43923273 490.053963594 1076.71961637 c 128,-1,58
 447.868125891 1084 447.868125891 1084 392 1084 c 2,59,-1
 160 1084 l 1,60,-1
 155 1084 l 1,61,-1
 150 1084 l 1,62,-1
 150 1089 l 1,63,-1
 150 1094 l 1,64,-1
 150 1272 l 1,65,-1
 150 1276.18127899 l 1,66,-1
 150 1280.36255797 l 1,67,-1
 154.115306191 1281.1023883 l 1,68,-1
 158.230612382 1281.84221862 l 2,0,1
341 266 m 1,69,-1
 683 266 l 1,70,-1
 688 266 l 1,71,-1
 693 266 l 1,72,-1
 693 261 l 1,73,-1
 693 256 l 1,74,-1
 693 0 l 1,75,-1
 693 -5 l 1,76,-1
 693 -10 l 1,77,-1
 688 -10 l 1,78,-1
 683 -10 l 1,79,-1
 341 -10 l 1,80,-1
 336 -10 l 1,81,-1
 331 -10 l 1,82,-1
 331 -5 l 1,83,-1
 331 0 l 1,84,-1
 331 256 l 1,85,-1
 331 261 l 1,86,-1
 331 266 l 1,87,-1
 336 266 l 1,88,-1
 341 266 l 1,69,-1
EndSplineSet
EndChar

StartChar: at
Encoding: 64 64 35
Width: 1024
VWidth: 0
GlyphClass: 2
Flags: W
LayerCount: 2
Fore
SplineSet
563 1306 m 0,0,1
 591.011853329 1306 591.011853329 1306 617.152401748 1304.37109058 c 0,2,3
 630.226265922 1303.55608686 630.226265922 1303.55608686 642.846407044 1302.3301152 c 128,-1,4
 655.466548165 1301.10414354 655.466548165 1301.10414354 667.633619598 1299.46671763 c 0,5,6
 691.987832196 1296.18916486 691.987832196 1296.18916486 714.44365084 1291.26499945 c 0,7,8
 721.935290406 1289.62221488 721.935290406 1289.62221488 729.22183113 1287.79410652 c 128,-1,9
 736.508371853 1285.96599815 736.508371853 1285.96599815 743.59595752 1283.9506945 c 128,-1,10
 750.683543188 1281.93539086 750.683543188 1281.93539086 757.566016832 1279.73430426 c 128,-1,11
 764.451945767 1277.53211263 764.451945767 1277.53211263 771.126018646 1275.14496599 c 128,-1,12
 777.800091526 1272.75781935 777.800091526 1272.75781935 784.268465021 1270.18310739 c 128,-1,13
 790.736838515 1267.60839544 790.736838515 1267.60839544 796.993025984 1264.84827905 c 0,14,15
 806.383024386 1260.70558214 806.383024386 1260.70558214 815.308601006 1256.13710856 c 128,-1,16
 824.234177627 1251.56863497 824.234177627 1251.56863497 832.693966855 1246.5742053 c 0,17,18
 836.9260802 1244.07568058 836.9260802 1244.07568058 841.038473061 1241.47161244 c 128,-1,19
 845.150865921 1238.8675443 845.150865921 1238.8675443 849.144556001 1236.15723681 c 128,-1,20
 853.138246081 1233.44692933 853.138246081 1233.44692933 857.013029647 1230.63020563 c 128,-1,21
 860.887813212 1227.81348193 860.887813212 1227.81348193 864.642097057 1224.8914285 c 0,22,23
 899.969223148 1197.39543873 899.969223148 1197.39543873 923.472620353 1157.75427453 c 128,-1,24
 946.894355114 1118.25084336 946.894355114 1118.25084336 958.472222347 1067.227599 c 0,25,26
 964.242445544 1041.79843297 964.242445544 1041.79843297 967.121222772 1013.49441734 c 128,-1,27
 970 985.190401705 970 985.190401705 970 954 c 2,28,-1
 970 512 l 2,29,30
 970 402.579642512 970 402.579642512 922.230862943 359.104360471 c 0,31,32
 874.869281685 316 874.869281685 316 756 316 c 2,33,-1
 659 316 l 2,34,35
 519.387061497 316 519.387061497 316 437.892861363 411.509126272 c 0,36,37
 357 506.313498824 357 506.313498824 357 670 c 0,38,39
 357 683.52633092 357 683.52633092 357.809627152 696.499173476 c 128,-1,40
 358.619254304 709.472016033 358.619254304 709.472016033 360.242591171 721.914115609 c 128,-1,41
 361.865928038 734.356215186 361.865928038 734.356215186 364.302087005 746.241578239 c 128,-1,42
 366.738245973 758.126941292 366.738245973 758.126941292 369.994339497 769.476713588 c 128,-1,43
 373.250433021 780.826485884 373.250433021 780.826485884 377.322543594 791.616273497 c 0,44,45
 397.718469341 845.658938353 397.718469341 845.658938353 438.54426132 885.184545874 c 0,46,47
 445.342903688 891.766670969 445.342903688 891.766670969 452.555186215 897.803233116 c 128,-1,48
 459.767468741 903.839795263 459.767468741 903.839795263 467.388888218 909.327372742 c 128,-1,49
 475.010307694 914.814950221 475.010307694 914.814950221 483.040746126 919.753698618 c 128,-1,50
 491.071184559 924.692447016 491.071184559 924.692447016 499.506809259 929.079786123 c 0,51,52
 505.128623941 932.003672414 505.128623941 932.003672414 510.924814967 934.682507765 c 128,-1,53
 516.721005994 937.361343117 516.721005994 937.361343117 522.686866191 939.793136113 c 128,-1,54
 528.652726388 942.224929109 528.652726388 942.224929109 534.789967089 944.411346724 c 128,-1,55
 540.927207791 946.597764338 540.927207791 946.597764338 547.234939722 948.538233385 c 128,-1,56
 553.542671653 950.478702433 553.542671653 950.478702433 560.018533721 952.173377107 c 128,-1,57
 566.49439579 953.868051781 566.49439579 953.868051781 573.141316621 955.317777126 c 0,58,59
 612.948890001 964 612.948890001 964 659 964 c 2,60,-1
 745.901202622 964 l 1,61,62
 745.426551222 986.637136085 745.426551222 986.637136085 743.087720993 1004.1783628 c 0,63,64
 742.618225138 1007.69958172 742.618225138 1007.69958172 742.020094942 1011.03975224 c 128,-1,65
 741.421964747 1014.37992276 741.421964747 1014.37992276 740.696398106 1017.53767793 c 128,-1,66
 739.972853586 1020.68663258 739.972853586 1020.68663258 739.132033949 1023.63259781 c 128,-1,67
 738.291214311 1026.57856303 738.291214311 1026.57856303 737.335166215 1029.31976163 c 128,-1,68
 736.382256463 1032.0519619 736.382256463 1032.0519619 735.311999625 1034.60389828 c 128,-1,69
 734.241742787 1037.15583465 734.241742787 1037.15583465 733.05572809 1039.52786405 c 0,70,71
 731.096074011 1043.4471722 731.096074011 1043.4471722 729.20135003 1047.08395265 c 128,-1,72
 727.306626049 1050.72073309 727.306626049 1050.72073309 725.478118126 1054.07298359 c 0,73,74
 724.261043354 1056.30427801 724.261043354 1056.30427801 723.073569455 1058.40958447 c 128,-1,75
 721.886095557 1060.51489092 721.886095557 1060.51489092 720.733083161 1062.48602161 c 128,-1,76
 719.580070765 1064.45715229 719.580070765 1064.45715229 718.458014444 1066.30053053 c 0,77,78
 715.831888021 1070.61488108 715.831888021 1070.61488108 711.302272652 1074.35688569 c 0,79,80
 708.984681941 1076.27149309 708.984681941 1076.27149309 706.096718251 1078.04913312 c 128,-1,81
 703.208754561 1079.82677315 703.208754561 1079.82677315 699.755661238 1081.44541064 c 0,82,83
 696.628758159 1082.91114646 696.628758159 1082.91114646 693.695035631 1084.24112463 c 128,-1,84
 690.761313103 1085.57110279 690.761313103 1085.57110279 688.042745363 1086.75582497 c 128,-1,85
 685.324177623 1087.94054714 685.324177623 1087.94054714 682.80538391 1088.98734468 c 128,-1,86
 680.286590198 1090.03414221 680.286590198 1090.03414221 677.98312742 1090.93681394 c 128,-1,87
 675.679664642 1091.83948567 675.679664642 1091.83948567 673.582569369 1092.60206577 c 0,88,89
 670.526750781 1093.71327252 670.526750781 1093.71327252 666.069154748 1094.64173626 c 128,-1,90
 661.611558714 1095.57019999 661.611558714 1095.57019999 655.583638713 1096.31070457 c 128,-1,91
 649.555718711 1097.05120915 649.555718711 1097.05120915 642.349208627 1097.52119894 c 0,92,93
 634.728907787 1098.01817508 634.728907787 1098.01817508 628.100051713 1098.40487304 c 128,-1,94
 621.471195639 1098.791571 621.471195639 1098.791571 615.859868467 1099.06673093 c 128,-1,95
 610.248541295 1099.34189086 610.248541295 1099.34189086 605.643084695 1099.50637146 c 0,96,97
 591.821485478 1100 591.821485478 1100 563 1100 c 0,98,99
 491.091784567 1100 491.091784567 1100 437.00818834 1076.33842665 c 0,100,101
 419.142907736 1068.52236639 419.142907736 1068.52236639 402.827744911 1057.63136957 c 128,-1,102
 386.497721872 1046.730453 386.497721872 1046.730453 371.648513791 1032.68165231 c 128,-1,103
 356.770496567 1018.60559536 356.770496567 1018.60559536 343.401468143 1001.37082378 c 0,104,105
 323.446008789 975.645111114 323.446008789 975.645111114 308.280183815 940.339882348 c 0,106,107
 303.208674199 928.533679421 303.208674199 928.533679421 298.683167214 915.65683897 c 128,-1,108
 294.157660228 902.779998519 294.157660228 902.779998519 290.170612933 888.800117431 c 128,-1,109
 286.183565638 874.820236343 286.183565638 874.820236343 282.749242329 859.774629468 c 0,110,111
 277.577170876 837.11603072 277.577170876 837.11603072 273.689332779 812.047700112 c 128,-1,112
 269.801494683 786.979369504 269.801494683 786.979369504 267.203131465 759.511600191 c 0,113,114
 262 704.508352832 262 704.508352832 262 640 c 0,115,116
 262 518.939606286 262 518.939606286 285.713730379 433.064639638 c 0,117,118
 309.284836531 347.706160719 309.284836531 347.706160719 355.846686636 297.284260864 c 0,119,120
 449.377128487 196 449.377128487 196 631 196 c 2,121,-1
 896 196 l 1,122,-1
 901 196 l 1,123,-1
 906 196 l 1,124,-1
 906 191 l 1,125,-1
 906 186 l 1,126,-1
 906 8 l 1,127,-1
 906 3.72972901541 l 1,128,-1
 906 -0.540541969181 l 1,129,-1
 901.782323602 -1.20868872522 l 1,130,-1
 897.564647205 -1.87683548127 l 2,131,132
 795.78717118 -18 795.78717118 -18 631 -18 c 0,133,134
 518.850614923 -18 518.850614923 -18 429.731202612 2.76077218615 c 0,135,136
 340.019345975 23.6595569709 340.019345975 23.6595569709 265.546081296 72.1181880973 c 0,137,138
 190.786821444 120.762911974 190.786821444 120.762911974 141.136282094 196.518374075 c 0,139,140
 91.6847071243 271.970261657 91.6847071243 271.970261657 64.7781361818 383.657914626 c 0,141,142
 38 494.812442173 38 494.812442173 38 640 c 0,143,144
 38 786.042361804 38 786.042361804 61.7149679604 898.56231617 c 0,145,146
 85.5319127179 1011.56611789 85.5319127179 1011.56611789 128.785786277 1088.4053521 c 0,147,148
 172.339867135 1165.77789574 172.339867135 1165.77789574 238.570139041 1214.55212699 c 0,149,150
 304.584379403 1263.16726524 304.584379403 1263.16726524 384.400265266 1284.65615759 c 0,151,152
 463.677394235 1306 463.677394235 1306 563 1306 c 0,0,1
659 758 m 2,153,154
 654.307096035 758 654.307096035 758 649.899350775 757.637246026 c 128,-1,155
 645.491605514 757.274492053 645.491605514 757.274492053 641.393992568 756.55338732 c 128,-1,156
 637.296379622 755.832282587 637.296379622 755.832282587 633.500376274 754.76436331 c 128,-1,157
 629.704372926 753.696444033 629.704372926 753.696444033 626.183840339 752.277100702 c 0,158,159
 612.156964023 746.622003678 612.156964023 746.622003678 601.918736766 735.294603308 c 0,160,161
 596.754163267 729.580607096 596.754163267 729.580607096 592.861819261 722.718253258 c 128,-1,162
 588.969475255 715.85589942 588.969475255 715.85589942 586.332260335 707.776147529 c 0,163,164
 581 691.439465903 581 691.439465903 581 670 c 0,165,166
 581 634.691567057 581 634.691567057 586.601575115 607.005571139 c 128,-1,167
 592.20315023 579.31957522 592.20315023 579.31957522 603.251268117 559.338936488 c 0,168,169
 613.755754885 540.341460419 613.755754885 540.341460419 627.568437795 531.170730209 c 128,-1,170
 641.381120705 522 641.381120705 522 659 522 c 2,171,-1
 746 522 l 1,172,-1
 746 758 l 1,173,-1
 659 758 l 2,153,154
EndSplineSet
EndChar

StartChar: A
Encoding: 65 65 36
Width: 1024
VWidth: 0
GlyphClass: 2
Flags: W
LayerCount: 2
Fore
SplineSet
394.057147401 1280 m 1,0,-1
 397.921278074 1280 l 1,1,-1
 401.887987473 1280 l 1,2,-1
 668.380547867 1280 l 1,3,-1
 672.347257266 1280 l 1,4,-1
 676.212383849 1280 l 1,5,-1
 677.257093404 1276.3515625 l 1,6,-1
 678.311762059 1272.69824219 l 1,7,-1
 1034.77441406 12.513671875 l 1,8,-1
 1036.51367188 6.2861328125 l 1,9,-1
 1038.26953125 -0 l 1,10,-1
 1031.6953125 0 l 1,11,-1
 1025.13476562 0 l 1,12,-1
 790.087717228 0 l 1,13,-1
 786.210639726 0 l 1,14,-1
 782.346509053 0 l 1,15,-1
 781.301799498 3.6474609375 l 1,16,-1
 780.254102212 7.3017578125 l 1,17,-1
 708.452977217 256 l 1,18,-1
 361.816554033 256 l 1,19,-1
 290.017420858 7.3115234375 l 1,20,-1
 288.967731752 3.6474609375 l 1,21,-1
 287.922026287 0 l 1,22,-1
 284.058891524 0 l 1,23,-1
 280.181814022 0 l 1,24,-1
 45.134765625 0 l 1,25,-1
 38.57421875 0 l 1,26,-1
 32 0 l 1,27,-1
 33.755859375 6.2861328125 l 1,28,-1
 35.4970703125 12.521484375 l 1,29,-1
 391.95976101 1272.70703125 l 1,30,-1
 393.012437846 1276.3515625 l 1,31,-1
 394.057147401 1280 l 1,0,-1
559.5624453 765.3125 m 1,32,-1
 559.329402368 766.323242188 l 1,33,-1
 535.134765625 904.365234375 l 1,34,-1
 510.940128882 766.323242188 l 1,35,-1
 510.70708595 765.3125 l 1,36,-1
 420.663878085 452 l 1,37,-1
 649.604657255 452 l 1,38,-1
 559.5624453 765.3125 l 1,32,-1
EndSplineSet
EndChar

StartChar: B
Encoding: 66 66 37
Width: 1024
VWidth: 0
GlyphClass: 2
Flags: W
LayerCount: 2
Fore
SplineSet
96 1280 m 1,0,-1
 101 1280 l 1,1,-1
 106 1280 l 1,2,-1
 362.950480943 1280 l 2,3,4
 396.370548767 1280 396.370548767 1280 427.708812552 1278.875 c 128,-1,5
 459.047076336 1277.75 459.047076336 1277.75 488.334592831 1275.49902344 c 128,-1,6
 517.621107496 1273.26464844 517.621107496 1273.26464844 544.849862056 1269.90820312 c 128,-1,7
 572.079618447 1266.55175781 572.079618447 1266.55175781 597.241596428 1262.07421875 c 0,8,9
 647.859088763 1253.06738281 647.859088763 1253.06738281 691.855482496 1238.52832031 c 128,-1,10
 735.851876229 1223.98925781 735.851876229 1223.98925781 772.420898438 1203.86230469 c 0,11,12
 845.474609375 1163.05273438 845.474609375 1163.05273438 882.844726562 1093.04785156 c 0,13,14
 920 1023.44335938 920 1023.44335938 920 926.48046875 c 0,15,16
 920 873.016601562 920 873.016601562 897.999023438 828.146484375 c 0,17,18
 887.053710938 805.825195312 887.053710938 805.825195312 873.779296875 788.250976562 c 128,-1,19
 860.505859375 770.67578125 860.505859375 770.67578125 844.874023438 757.89453125 c 0,20,21
 814.717773438 733.236328125 814.717773438 733.236328125 784.478515625 716.080078125 c 0,22,23
 781.900390625 714.618164062 781.900390625 714.618164062 779.284179688 713.190429688 c 128,-1,24
 776.66796875 711.76171875 776.66796875 711.76171875 774.125 710.427734375 c 128,-1,25
 771.581054688 709.092773438 771.581054688 709.092773438 769.046875 707.8125 c 128,-1,26
 766.51171875 706.53125 766.51171875 706.53125 764.07421875 705.3515625 c 128,-1,27
 761.635742188 704.170898438 761.635742188 704.170898438 759.255859375 703.064453125 c 128,-1,28
 756.875 701.958984375 756.875 701.958984375 754.615234375 700.959960938 c 128,-1,29
 752.35546875 699.9609375 752.35546875 699.9609375 750.202148438 699.057617188 c 128,-1,30
 748.047851562 698.154296875 748.047851562 698.154296875 746.038085938 697.36328125 c 128,-1,31
 744.029296875 696.573242188 744.029296875 696.573242188 742.172851562 695.8984375 c 1,32,33
 751.877929688 692.143554688 751.877929688 692.143554688 764.344726562 687.010742188 c 0,34,35
 773.705078125 683.157226562 773.705078125 683.157226562 782.786132812 678.966796875 c 0,36,37
 785.813476562 677.569335938 785.813476562 677.569335938 788.809570312 676.134765625 c 128,-1,38
 791.805664062 674.700195312 791.805664062 674.700195312 794.771484375 673.227539062 c 128,-1,39
 797.737304688 671.755859375 797.737304688 671.755859375 800.672851562 670.245117188 c 0,40,41
 809.479492188 665.713867188 809.479492188 665.713867188 818.002929688 660.846679688 c 0,42,43
 820.889648438 659.198242188 820.889648438 659.198242188 823.846679688 657.409179688 c 128,-1,44
 826.803710938 655.620117188 826.803710938 655.620117188 829.825195312 653.694335938 c 128,-1,45
 832.845703125 651.767578125 832.845703125 651.767578125 835.938476562 649.700195312 c 0,46,47
 845.196289062 643.51171875 845.196289062 643.51171875 855.056640625 636.08984375 c 0,48,49
 858.338867188 633.619140625 858.338867188 633.619140625 861.696289062 631.006835938 c 128,-1,50
 865.052734375 628.395507812 865.052734375 628.395507812 868.48046875 625.64453125 c 128,-1,51
 871.908203125 622.893554688 871.908203125 622.893554688 875.411132812 620.000976562 c 0,52,53
 907.368164062 593.612304688 907.368164062 593.612304688 930.098632812 562.586914062 c 0,54,55
 937.755859375 552.135742188 937.755859375 552.135742188 944.579101562 540.07421875 c 128,-1,56
 951.40234375 528.012695312 951.40234375 528.012695312 957.3671875 514.41015625 c 128,-1,57
 963.33203125 500.807617188 963.33203125 500.807617188 968.482421875 485.594726562 c 0,58,59
 984 439.763671875 984 439.763671875 984 387.943359375 c 0,60,61
 984 366.625976562 984 366.625976562 982.360351562 346.533203125 c 128,-1,62
 980.720703125 326.440429688 980.720703125 326.440429688 977.431640625 307.532226562 c 128,-1,63
 974.142578125 288.624023438 974.142578125 288.624023438 969.206054688 270.947265625 c 128,-1,64
 964.270507812 253.271484375 964.270507812 253.271484375 957.669921875 236.79296875 c 128,-1,65
 951.0703125 220.314453125 951.0703125 220.314453125 942.81640625 205.077148438 c 0,66,67
 922.12109375 166.875976562 922.12109375 166.875976562 891.178710938 136.5390625 c 128,-1,68
 860.274414062 106.240234375 860.274414062 106.240234375 819.328125 83.9287109375 c 0,69,70
 778.837890625 61.865234375 778.837890625 61.865234375 730.952924472 45.853515625 c 0,71,72
 682.016503926 29.841796875 682.016503926 29.841796875 625.688577029 19.857421875 c 0,73,74
 513.560687972 0 513.560687972 0 362.950480943 0 c 2,75,-1
 106 0 l 1,76,-1
 101 0 l 1,77,-1
 96 0 l 1,78,-1
 96 5 l 1,79,-1
 96 9.9609375 l 1,80,-1
 96 1270.0390625 l 1,81,-1
 96 1275 l 1,82,-1
 96 1280 l 1,0,-1
639.203272162 936.013671875 m 0,83,84
 639.203272162 1018.00878906 639.203272162 1018.00878906 571.471507258 1052.68652344 c 0,85,86
 537.573566226 1070.04101562 537.573566226 1070.04101562 488.047067442 1079.12304688 c 128,-1,87
 438.520568658 1088.20507812 438.520568658 1088.20507812 373.349482832 1088.9609375 c 1,88,-1
 373.349482832 783.06640625 l 1,89,90
 503.570432978 784.576171875 503.570432978 784.576171875 571.471507258 819.340820312 c 0,91,92
 594.212060618 830.983398438 594.212060618 830.983398438 609.208463245 847.612304688 c 128,-1,93
 624.145757866 864.176757812 624.145757866 864.176757812 631.641454603 886.106445312 c 128,-1,94
 639.203272162 908.227539062 639.203272162 908.227539062 639.203272162 936.013671875 c 0,83,84
698.220112457 378.990234375 m 0,95,96
 698.220112457 484.904296875 698.220112457 484.904296875 617.422472541 525.108398438 c 0,97,98
 535.900509082 565.672851562 535.900509082 565.672851562 373.349482832 566.94921875 c 1,99,-1
 373.349482832 191.030273438 l 1,100,101
 535.900509082 192.306640625 535.900509082 192.306640625 617.422472541 232.87109375 c 0,102,103
 657.865373046 252.99609375 657.865373046 252.99609375 677.975119185 289.063476562 c 0,104,105
 684.691391696 301.110351562 684.691391696 301.110351562 689.182598388 315.0625 c 128,-1,106
 693.67380508 329.014648438 693.67380508 329.014648438 695.946958769 345.026367188 c 128,-1,107
 698.220112457 361.038085938 698.220112457 361.038085938 698.220112457 378.990234375 c 0,95,96
EndSplineSet
EndChar

StartChar: C
Encoding: 67 67 38
Width: 1024
VWidth: 0
GlyphClass: 2
Flags: W
LayerCount: 2
Fore
SplineSet
112 640 m 0,0,1
 112 939.252929688 112 939.252929688 272.623046875 1113.44238281 c 0,2,3
 354.327148438 1200.72753906 354.327148438 1200.72753906 469.633369705 1244.36328125 c 128,-1,4
 585.045035739 1288 585.045035739 1288 730 1288 c 0,5,6
 784.37109375 1288 784.37109375 1288 833.814453125 1283.96679688 c 0,7,8
 846.172851562 1282.95800781 846.172851562 1282.95800781 856.82421875 1281.95019531 c 128,-1,9
 867.475585938 1280.94140625 867.475585938 1280.94140625 876.4296875 1279.93261719 c 0,10,11
 894.413085938 1277.90625 894.413085938 1277.90625 905.766601562 1275.84277344 c 2,12,-1
 927.744140625 1272.05566406 l 1,13,-1
 931.849609375 1271.34765625 l 1,14,-1
 936 1270.63183594 l 1,15,-1
 936 1266.41992188 l 1,16,-1
 936 1262.46484375 l 1,17,-1
 936 1093.73925781 l 1,18,-1
 936 1089 l 1,19,-1
 936 1084 l 1,20,-1
 931 1084 l 1,21,-1
 926 1084 l 1,22,-1
 730 1084 l 2,23,24
 582.680962773 1084 582.680962773 1084 495.278728526 966.717773438 c 0,25,26
 406.669286661 847.813476562 406.669286661 847.813476562 406.669286661 640 c 0,27,28
 406.669286661 398.4453125 406.669286661 398.4453125 490.198186709 296.65234375 c 0,29,30
 572.791727394 196 572.791727394 196 730 196 c 2,31,-1
 926 196 l 1,32,-1
 931 196 l 1,33,-1
 936 196 l 1,34,-1
 936 191 l 1,35,-1
 936 186.245117188 l 1,36,-1
 936 16.970703125 l 1,37,-1
 936 13.123046875 l 1,38,-1
 936 9.03515625 l 1,39,-1
 931.994140625 8.22265625 l 1,40,-1
 928.037109375 7.419921875 l 2,41,42
 852.029296875 -8 852.029296875 -8 730 -8 c 0,43,44
 580.979394071 -8 580.979394071 -8 467.613637861 25.4404296875 c 0,45,46
 410.69767505 42.26171875 410.69767505 42.26171875 361.533414863 69.2919921875 c 0,47,48
 313.734375 96.322265625 313.734375 96.322265625 273.654296875 133.528320312 c 0,49,50
 193.251953125 208.165039062 193.251953125 208.165039062 152.46484375 335.688476562 c 0,51,52
 112 462.205078125 112 462.205078125 112 640 c 0,0,1
EndSplineSet
EndChar

StartChar: D
Encoding: 68 68 39
Width: 1024
VWidth: 0
GlyphClass: 2
Flags: W
LayerCount: 2
Fore
SplineSet
96 1280 m 1,0,-1
 101 1280 l 1,1,-1
 106 1280 l 1,2,-1
 362.950480943 1280 l 2,3,4
 514.161786347 1280 514.161786347 1280 626.839680417 1247.07226562 c 0,5,6
 664.582647388 1236.03125 664.582647388 1236.03125 699.013562312 1220.45800781 c 128,-1,7
 733.443475406 1204.88476562 733.443475406 1204.88476562 763.893554688 1184.77441406 c 128,-1,8
 794.22265625 1164.66503906 794.22265625 1164.66503906 821.274414062 1140.04101562 c 0,9,10
 862.025390625 1102.94824219 862.025390625 1102.94824219 892.583984375 1053.00097656 c 128,-1,11
 923.143554688 1003.05371094 923.143554688 1003.05371094 943.520507812 940.359375 c 0,12,13
 984 815.815429688 984 815.815429688 984 640 c 128,-1,14
 984 464.184570312 984 464.184570312 943.520507812 339.640625 c 0,15,16
 933.349609375 308.345703125 933.349609375 308.345703125 920.6328125 280.2109375 c 128,-1,17
 907.916992188 252.075195312 907.916992188 252.075195312 892.6484375 227.10546875 c 128,-1,18
 877.366210938 202.111328125 877.366210938 202.111328125 859.520507812 180.319335938 c 128,-1,19
 841.673828125 158.528320312 841.673828125 158.528320312 821.274414062 139.958984375 c 0,20,21
 780.697265625 103.0234375 780.697265625 103.0234375 732.628987108 76.2578125 c 0,22,23
 683.462145519 49.4912109375 683.462145519 49.4912109375 626.838678586 32.9267578125 c 0,24,25
 514.161786347 0 514.161786347 0 362.950480943 0 c 2,26,-1
 106 0 l 1,27,-1
 101 0 l 1,28,-1
 96 0 l 1,29,-1
 96 5 l 1,30,-1
 96 9.9609375 l 1,31,-1
 96 1270.0390625 l 1,32,-1
 96 1275 l 1,33,-1
 96 1280 l 1,0,-1
631.409029898 949.416015625 m 128,-1,35
 619.878961233 970.274414062 619.878961233 970.274414062 606.12282492 987.198242188 c 0,36,37
 566.158799453 1036.36523438 566.158799453 1036.36523438 507.873295513 1061.7734375 c 128,-1,38
 449.587791574 1087.18164062 449.587791574 1087.18164062 373.349482832 1088.9140625 c 1,39,-1
 373.349482832 191.0859375 l 1,40,41
 526.270913113 194.561523438 526.270913113 194.561523438 606.12282492 292.801757812 c 0,42,43
 689.788705916 395.735351562 689.788705916 395.735351562 689.788705916 640 c 0,44,45
 689.788705916 721.8203125 689.788705916 721.8203125 680.308382711 787.981445312 c 0,46,47
 677.153618072 809.99609375 677.153618072 809.99609375 672.973980704 830.21875 c 128,-1,48
 668.793341505 850.442382812 668.793341505 850.442382812 663.606864359 868.814453125 c 128,-1,49
 658.420387213 887.186523438 658.420387213 887.186523438 652.220057474 903.755859375 c 0,50,34
 642.939098563 928.557617188 642.939098563 928.557617188 631.409029898 949.416015625 c 128,-1,35
EndSplineSet
EndChar

StartChar: E
Encoding: 69 69 40
Width: 1024
VWidth: 0
GlyphClass: 2
Flags: W
LayerCount: 2
Fore
SplineSet
128 1280 m 1,0,-1
 133 1280 l 1,1,-1
 138 1280 l 1,2,-1
 958 1280 l 1,3,-1
 963 1280 l 1,4,-1
 968 1280 l 1,5,-1
 968 1275 l 1,6,-1
 968 1270 l 1,7,-1
 968 1093.73828125 l 1,8,-1
 968 1089 l 1,9,-1
 968 1084 l 1,10,-1
 963 1084 l 1,11,-1
 958 1084 l 1,12,-1
 405.547930269 1084 l 1,13,-1
 405.547930269 778 l 1,14,-1
 926 778 l 1,15,-1
 931 778 l 1,16,-1
 936 778 l 1,17,-1
 936 773 l 1,18,-1
 936 768 l 1,19,-1
 936 582 l 1,20,-1
 936 577 l 1,21,-1
 936 572 l 1,22,-1
 931 572 l 1,23,-1
 926 572 l 1,24,-1
 405.547930269 572 l 1,25,-1
 405.547930269 196 l 1,26,-1
 958 196 l 1,27,-1
 963 196 l 1,28,-1
 968 196 l 1,29,-1
 968 191 l 1,30,-1
 968 186.26171875 l 1,31,-1
 968 10 l 1,32,-1
 968 5 l 1,33,-1
 968 0 l 1,34,-1
 963 0 l 1,35,-1
 958 0 l 1,36,-1
 138 0 l 1,37,-1
 133 0 l 1,38,-1
 128 0 l 1,39,-1
 128 5 l 1,40,-1
 128 9.9609375 l 1,41,-1
 128 1270.0390625 l 1,42,-1
 128 1275 l 1,43,-1
 128 1280 l 1,0,-1
EndSplineSet
EndChar

StartChar: F
Encoding: 70 70 41
Width: 1024
VWidth: 0
GlyphClass: 2
Flags: W
LayerCount: 2
Fore
SplineSet
128 1280 m 1,0,-1
 133 1280 l 1,1,-1
 138 1280 l 1,2,-1
 958 1280 l 1,3,-1
 963 1280 l 1,4,-1
 968 1280 l 1,5,-1
 968 1275 l 1,6,-1
 968 1270 l 1,7,-1
 968 1093.73828125 l 1,8,-1
 968 1089 l 1,9,-1
 968 1084 l 1,10,-1
 963 1084 l 1,11,-1
 958 1084 l 1,12,-1
 405.547930269 1084 l 1,13,-1
 405.547930269 778 l 1,14,-1
 926 778 l 1,15,-1
 931 778 l 1,16,-1
 936 778 l 1,17,-1
 936 773 l 1,18,-1
 936 768 l 1,19,-1
 936 582 l 1,20,-1
 936 577 l 1,21,-1
 936 572 l 1,22,-1
 931 572 l 1,23,-1
 926 572 l 1,24,-1
 405.547930269 572 l 1,25,-1
 405.547930269 9.9560546875 l 1,26,-1
 405.547930269 5 l 1,27,-1
 405.547930269 0 l 1,28,-1
 400.400211054 0 l 1,29,-1
 395.090620199 0 l 1,30,-1
 138 0 l 1,31,-1
 133 0 l 1,32,-1
 128 0 l 1,33,-1
 128 5 l 1,34,-1
 128 9.9609375 l 1,35,-1
 128 1270.0390625 l 1,36,-1
 128 1275 l 1,37,-1
 128 1280 l 1,0,-1
EndSplineSet
EndChar

StartChar: G
Encoding: 71 71 42
Width: 1024
VWidth: 0
GlyphClass: 2
Flags: W
LayerCount: 2
Fore
SplineSet
80 634.7265625 m 0,0,1
 80 936.50390625 80 936.50390625 245.7265625 1112.13378906 c 0,2,3
 416.246103453 1288 416.246103453 1288 717.890291865 1288 c 0,4,5
 775.3515625 1288 775.3515625 1288 827.767578125 1283.97070312 c 0,6,7
 840.868164062 1282.96289062 840.868164062 1282.96289062 852.139648438 1281.95507812 c 128,-1,8
 863.411132812 1280.94824219 863.411132812 1280.94824219 872.866210938 1279.93945312 c 128,-1,9
 882.321289062 1278.93164062 882.321289062 1278.93164062 890.041992188 1277.90917969 c 128,-1,10
 897.762695312 1276.88671875 897.762695312 1276.88671875 903.658203125 1275.86132812 c 2,11,-1
 927.602539062 1272.07910156 l 1,12,-1
 931.780273438 1271.41894531 l 1,13,-1
 936 1270.75195312 l 1,14,-1
 936 1266.48046875 l 1,15,-1
 936 1262.46484375 l 1,16,-1
 936 1093.73925781 l 1,17,-1
 936 1089 l 1,18,-1
 936 1084 l 1,19,-1
 931 1084 l 1,20,-1
 926 1084 l 1,21,-1
 717.890291865 1084 l 2,22,23
 558.704414685 1084 558.704414685 1084 466.975800818 967.806640625 c 0,24,25
 374.211294084 850.30078125 374.211294084 850.30078125 374.211294084 644.955078125 c 0,26,27
 374.211294084 522.98046875 374.211294084 522.98046875 387.335275273 436.012695312 c 128,-1,28
 400.460258293 349.044921875 400.460258293 349.044921875 426.404665992 297.70703125 c 0,29,30
 476.792739113 198 476.792739113 198 572.477582119 198 c 0,31,32
 587.605224559 198 587.605224559 198 600.775289957 199.4609375 c 128,-1,33
 613.946357185 200.921875 613.946357185 200.921875 625.12378147 203.818359375 c 0,34,35
 647.216150415 209.54296875 647.216150415 209.54296875 661.850892187 220.671875 c 0,36,37
 690.650517168 242.573242188 690.650517168 242.573242188 690.650517168 295.366210938 c 2,38,-1
 690.650517168 572 l 1,39,-1
 532.431406541 572 l 1,40,-1
 527.161777453 572 l 1,41,-1
 522.032404652 572 l 1,42,-1
 522.032404652 577 l 1,43,-1
 522.032404652 582 l 1,44,-1
 522.032404652 768 l 1,45,-1
 522.032404652 773 l 1,46,-1
 522.032404652 778 l 1,47,-1
 527.161777453 778 l 1,48,-1
 532.431406541 778 l 1,49,-1
 958 778 l 1,50,-1
 963 778 l 1,51,-1
 968 778 l 1,52,-1
 968 773.03125 l 1,53,-1
 968 768.095703125 l 1,54,-1
 968 294.163085938 l 2,55,56
 968 132.047851562 968 132.047851562 867.276367188 61.4541015625 c 0,57,58
 767.205078125 -7.763671875 767.205078125 -7.763671875 572.477582119 -8 c 0,59,60
 532.226031263 -8 532.226031263 -8 495.438810708 -4.2236328125 c 0,61,62
 477.026165649 -2.3486328125 477.026165649 -2.3486328125 459.449047331 0.474609375 c 0,63,64
 441.872930844 1.3212890625 441.872930844 1.3212890625 425.133342928 2.4521484375 c 128,-1,65
 408.361696433 3.5849609375 408.361696433 3.5849609375 392.487690178 5 c 0,66,67
 376.614685753 9.7216796875 376.614685753 9.7216796875 361.550158643 15.4150390625 c 0,68,69
 274.005859375 49.583984375 274.005859375 49.583984375 209.397460938 124.922851562 c 128,-1,70
 144.87890625 200.158203125 144.87890625 200.158203125 112.3046875 328.498046875 c 0,71,72
 80 455.78125 80 455.78125 80 634.7265625 c 0,0,1
EndSplineSet
EndChar

StartChar: H
Encoding: 72 72 43
Width: 1024
VWidth: 0
GlyphClass: 2
Flags: W
LayerCount: 2
Fore
SplineSet
96 1280 m 1,0,-1
 101 1280 l 1,1,-1
 106 1280 l 1,2,-1
 362.992618529 1280 l 1,3,-1
 368.274005176 1280 l 1,4,-1
 373.408965228 1280 l 1,5,-1
 373.408965228 1275 l 1,6,-1
 373.408965228 1270.04980469 l 1,7,-1
 373.408965228 778 l 1,8,-1
 690.591034772 778 l 1,9,-1
 690.591034772 1270.04980469 l 1,10,-1
 690.591034772 1275 l 1,11,-1
 690.591034772 1280 l 1,12,-1
 695.725994824 1280 l 1,13,-1
 701.007381471 1280 l 1,14,-1
 958 1280 l 1,15,-1
 963 1280 l 1,16,-1
 968 1280 l 1,17,-1
 968 1275 l 1,18,-1
 968 1270.0390625 l 1,19,-1
 968 9.9609375 l 1,20,-1
 968 5 l 1,21,-1
 968 0 l 1,22,-1
 963 0 l 1,23,-1
 958 0 l 1,24,-1
 701.007381471 0 l 1,25,-1
 695.725994824 0 l 1,26,-1
 690.591034772 0 l 1,27,-1
 690.591034772 5 l 1,28,-1
 690.591034772 9.9560546875 l 1,29,-1
 690.591034772 572 l 1,30,-1
 373.408965228 572 l 1,31,-1
 373.408965228 9.9560546875 l 1,32,-1
 373.408965228 5 l 1,33,-1
 373.408965228 0 l 1,34,-1
 368.274005176 0 l 1,35,-1
 362.992618529 0 l 1,36,-1
 106 0 l 1,37,-1
 101 0 l 1,38,-1
 96 0 l 1,39,-1
 96 5 l 1,40,-1
 96 9.9609375 l 1,41,-1
 96 1270.0390625 l 1,42,-1
 96 1275 l 1,43,-1
 96 1280 l 1,0,-1
EndSplineSet
EndChar

StartChar: I
Encoding: 73 73 44
Width: 1024
VWidth: 0
GlyphClass: 2
Flags: W
LayerCount: 2
Fore
SplineSet
160 1280 m 1,0,-1
 165 1280 l 1,1,-1
 170 1280 l 1,2,-1
 894 1280 l 1,3,-1
 899 1280 l 1,4,-1
 904 1280 l 1,5,-1
 904 1275 l 1,6,-1
 904 1270 l 1,7,-1
 904 1093.73828125 l 1,8,-1
 904 1089 l 1,9,-1
 904 1084 l 1,10,-1
 899 1084 l 1,11,-1
 894 1084 l 1,12,-1
 680 1084 l 1,13,-1
 680 196 l 1,14,-1
 894 196 l 1,15,-1
 899 196 l 1,16,-1
 904 196 l 1,17,-1
 904 191 l 1,18,-1
 904 186.26171875 l 1,19,-1
 904 10 l 1,20,-1
 904 5 l 1,21,-1
 904 0 l 1,22,-1
 899 0 l 1,23,-1
 894 0 l 1,24,-1
 170 0 l 1,25,-1
 165 0 l 1,26,-1
 160 0 l 1,27,-1
 160 5 l 1,28,-1
 160 10 l 1,29,-1
 160 186.26171875 l 1,30,-1
 160 191 l 1,31,-1
 160 196 l 1,32,-1
 165 196 l 1,33,-1
 170 196 l 1,34,-1
 384 196 l 1,35,-1
 384 1084 l 1,36,-1
 170 1084 l 1,37,-1
 165 1084 l 1,38,-1
 160 1084 l 1,39,-1
 160 1089 l 1,40,-1
 160 1093.73828125 l 1,41,-1
 160 1270 l 1,42,-1
 160 1275 l 1,43,-1
 160 1280 l 1,0,-1
EndSplineSet
EndChar

StartChar: J
Encoding: 74 74 45
Width: 1024
VWidth: 0
GlyphClass: 2
Flags: W
LayerCount: 2
Fore
SplineSet
196 1280 m 1,0,-1
 201 1280 l 1,1,-1
 206 1280 l 1,2,-1
 894 1280 l 1,3,-1
 899 1280 l 1,4,-1
 904 1280 l 1,5,-1
 904 1275 l 1,6,-1
 904 1270.0390625 l 1,7,-1
 904 527.65625 l 2,8,9
 904 509.250976562 904 509.250976562 903.407226562 491.517578125 c 128,-1,10
 902.814453125 473.78515625 902.814453125 473.78515625 901.627929688 456.708007812 c 128,-1,11
 900.440429688 439.630859375 900.440429688 439.630859375 898.658203125 423.221679688 c 128,-1,12
 896.875976562 406.813476562 896.875976562 406.813476562 894.499023438 391.064453125 c 128,-1,13
 892.12109375 375.315429688 892.12109375 375.315429688 889.145507812 360.231445312 c 128,-1,14
 886.169921875 345.146484375 886.169921875 345.146484375 882.59765625 330.727539062 c 128,-1,15
 879.025390625 316.307617188 879.025390625 316.307617188 874.852539062 302.547851562 c 128,-1,16
 870.6796875 288.788085938 870.6796875 288.788085938 865.908203125 275.696289062 c 0,17,18
 827.474609375 170.245117188 827.474609375 170.245117188 751.346679688 108.458007812 c 0,19,20
 675.698242188 47.060546875 675.698242188 47.060546875 568.87121671 19.4248046875 c 0,21,22
 461.404094788 -8 461.404094788 -8 321 -8 c 0,23,24
 270.599609375 -8 270.599609375 -8 224.1328125 -3.962890625 c 128,-1,25
 177.626953125 0.08203125 177.626953125 0.08203125 156.110351562 4.1806640625 c 2,26,-1
 136.088867188 7.9765625 l 1,27,-1
 132.069335938 8.73828125 l 1,28,-1
 128 9.5087890625 l 1,29,-1
 128 13.650390625 l 1,30,-1
 128 17.5361328125 l 1,31,-1
 128 186.260742188 l 1,32,-1
 128 191 l 1,33,-1
 128 196 l 1,34,-1
 133 196 l 1,35,-1
 138 196 l 1,36,-1
 321 196 l 2,37,38
 469.534624563 196 469.534624563 196 547.749855408 271.48828125 c 0,39,40
 586.539152443 308.924804688 586.539152443 308.924804688 606.228334032 372.221679688 c 0,41,42
 626.074397497 436.017578125 626.074397497 436.017578125 626.074397497 526.013671875 c 2,43,-1
 626.074397497 1084 l 1,44,-1
 206 1084 l 1,45,-1
 201 1084 l 1,46,-1
 196 1084 l 1,47,-1
 196 1089 l 1,48,-1
 196 1093.73828125 l 1,49,-1
 196 1270 l 1,50,-1
 196 1275 l 1,51,-1
 196 1280 l 1,0,-1
EndSplineSet
EndChar

StartChar: K
Encoding: 75 75 46
Width: 1024
VWidth: 0
GlyphClass: 2
Flags: W
LayerCount: 2
Fore
SplineSet
684.906522947 1280 m 1,0,-1
 687.788629632 1280 l 1,1,-1
 690.784780107 1280 l 1,2,-1
 958 1280 l 1,3,-1
 966.783203125 1280 l 1,4,-1
 975.6015625 1280 l 1,5,-1
 971.073242188 1277.49121094 l 1,6,-1
 966.577148438 1275 l 1,7,-1
 600.918272761 672.004882812 l 1,8,-1
 998.624023438 5 l 1,9,-1
 1003.02441406 2.51171875 l 1,10,-1
 1007.46777344 0 l 1,11,-1
 998.716796875 0 l 1,12,-1
 990 0 l 1,13,-1
 725.465096811 0 l 1,14,-1
 722.449939037 0 l 1,15,-1
 719.548825055 0 l 1,16,-1
 718.057252314 2.4287109375 l 1,17,-1
 716.533667281 4.908203125 l 1,18,-1
 343.030247755 613.459960938 l 1,19,-1
 343.030247755 10 l 1,20,-1
 343.030247755 5 l 1,21,-1
 343.030247755 0 l 1,22,-1
 338 0 l 1,23,-1
 333 0 l 1,24,-1
 106 0 l 1,25,-1
 101 0 l 1,26,-1
 96 0 l 1,27,-1
 96 5 l 1,28,-1
 96 9.9609375 l 1,29,-1
 96 1270.0390625 l 1,30,-1
 96 1275 l 1,31,-1
 96 1280 l 1,32,-1
 101 1280 l 1,33,-1
 106 1280 l 1,34,-1
 333 1280 l 1,35,-1
 338 1280 l 1,36,-1
 343.030247755 1280 l 1,37,-1
 343.030247755 1275 l 1,38,-1
 343.030247755 1270 l 1,39,-1
 343.030247755 730.135742188 l 1,40,-1
 681.884362485 1275.14257812 l 1,41,-1
 683.41094867 1277.59570312 l 1,42,-1
 684.906522947 1280 l 1,0,-1
EndSplineSet
EndChar

StartChar: L
Encoding: 76 76 47
Width: 1024
VWidth: 0
GlyphClass: 2
Flags: W
LayerCount: 2
Fore
SplineSet
128 1280 m 1,0,-1
 133 1280 l 1,1,-1
 138 1280 l 1,2,-1
 395.090620199 1280 l 1,3,-1
 400.400211054 1280 l 1,4,-1
 405.547930269 1280 l 1,5,-1
 405.547930269 1275 l 1,6,-1
 405.547930269 1270.04589844 l 1,7,-1
 405.547930269 196 l 1,8,-1
 958 196 l 1,9,-1
 963 196 l 1,10,-1
 968 196 l 1,11,-1
 968 191 l 1,12,-1
 968 186.26171875 l 1,13,-1
 968 10 l 1,14,-1
 968 5 l 1,15,-1
 968 0 l 1,16,-1
 963 0 l 1,17,-1
 958 0 l 1,18,-1
 138 0 l 1,19,-1
 133 0 l 1,20,-1
 128 0 l 1,21,-1
 128 5 l 1,22,-1
 128 9.9609375 l 1,23,-1
 128 1270.0390625 l 1,24,-1
 128 1275 l 1,25,-1
 128 1280 l 1,0,-1
EndSplineSet
EndChar

StartChar: M
Encoding: 77 77 48
Width: 1024
VWidth: 0
GlyphClass: 2
Flags: W
LayerCount: 2
Fore
SplineSet
757.4375 1280 m 1,0,-1
 760.21875 1280 l 1,1,-1
 763 1280 l 1,2,-1
 990 1280 l 1,3,-1
 995 1280 l 1,4,-1
 1000 1280 l 1,5,-1
 1000 1275 l 1,6,-1
 1000 1270.0390625 l 1,7,-1
 1000 9.9609375 l 1,8,-1
 1000 5 l 1,9,-1
 1000 0 l 1,10,-1
 995 0 l 1,11,-1
 990 0 l 1,12,-1
 763 0 l 1,13,-1
 758 0 l 1,14,-1
 752.971460136 0 l 1,15,-1
 752.971460136 5 l 1,16,-1
 752.971460136 10 l 1,17,-1
 752.971460136 650 l 1,18,-1
 753.019414012 650.9765625 l 1,19,-1
 783.228515625 958.821289062 l 1,20,-1
 608.146758769 645.219726562 l 1,21,-1
 606.664184773 642.587890625 l 1,22,-1
 605.206586753 640 l 1,23,-1
 602.183494493 640 l 1,24,-1
 599.052506013 640 l 1,25,-1
 464.947493987 640 l 1,26,-1
 461.816505507 640 l 1,27,-1
 458.793413247 640 l 1,28,-1
 457.335815227 642.587890625 l 1,29,-1
 455.848246035 645.229492188 l 1,30,-1
 280.771484375 958.821289062 l 1,31,-1
 310.980585988 650.9765625 l 1,32,-1
 311.028539864 650.494140625 l 1,33,-1
 311.028539864 10 l 1,34,-1
 311.028539864 5 l 1,35,-1
 311.028539864 0 l 1,36,-1
 306 0 l 1,37,-1
 301 0 l 1,38,-1
 74 0 l 1,39,-1
 69 0 l 1,40,-1
 64 0 l 1,41,-1
 64 5 l 1,42,-1
 64 9.9609375 l 1,43,-1
 64 1270.0390625 l 1,44,-1
 64 1275 l 1,45,-1
 64 1280 l 1,46,-1
 69 1280 l 1,47,-1
 74 1280 l 1,48,-1
 301 1280 l 1,49,-1
 303.78125 1280 l 1,50,-1
 306.5625 1280 l 1,51,-1
 308.029296875 1277.63671875 l 1,52,-1
 309.482421875 1275.29589844 l 1,53,-1
 532 932.806640625 l 1,54,-1
 754.517578125 1275.29589844 l 1,55,-1
 755.970703125 1277.63671875 l 1,56,-1
 757.4375 1280 l 1,0,-1
EndSplineSet
EndChar

StartChar: N
Encoding: 78 78 49
Width: 1024
VWidth: 0
GlyphClass: 2
Flags: W
LayerCount: 2
Fore
SplineSet
96 1280 m 1,0,-1
 101 1280 l 1,1,-1
 106 1280 l 1,2,-1
 333 1280 l 1,3,-1
 336.168945312 1280 l 1,4,-1
 339.337890625 1280 l 1,5,-1
 340.690429688 1277.13378906 l 1,6,-1
 342.039574505 1274.29199219 l 1,7,-1
 660.758120378 634.315429688 l 1,8,-1
 660.924605411 633.981445312 l 1,9,-1
 734.838867188 451.892578125 l 1,10,-1
 720.996617564 629.224609375 l 1,11,-1
 720.966529907 629.606445312 l 1,12,-1
 720.966529907 1270 l 1,13,-1
 720.966529907 1275 l 1,14,-1
 720.966529907 1280 l 1,15,-1
 726 1280 l 1,16,-1
 731 1280 l 1,17,-1
 958 1280 l 1,18,-1
 963 1280 l 1,19,-1
 968 1280 l 1,20,-1
 968 1275 l 1,21,-1
 968 1270.0390625 l 1,22,-1
 968 9.9609375 l 1,23,-1
 968 5 l 1,24,-1
 968 0 l 1,25,-1
 963 0 l 1,26,-1
 958 0 l 1,27,-1
 731 0 l 1,28,-1
 727.831054688 0 l 1,29,-1
 724.662109375 0 l 1,30,-1
 723.309570312 2.8662109375 l 1,31,-1
 721.960425495 5.7080078125 l 1,32,-1
 403.241879622 645.684570312 l 1,33,-1
 403.075394589 646.018554688 l 1,34,-1
 329.161132812 828.107421875 l 1,35,-1
 343.003382436 650.775390625 l 1,36,-1
 343.033470093 650.393554688 l 1,37,-1
 343.033470093 10 l 1,38,-1
 343.033470093 5 l 1,39,-1
 343.033470093 0 l 1,40,-1
 338 0 l 1,41,-1
 333 0 l 1,42,-1
 106 0 l 1,43,-1
 101 0 l 1,44,-1
 96 0 l 1,45,-1
 96 5 l 1,46,-1
 96 9.9609375 l 1,47,-1
 96 1270.0390625 l 1,48,-1
 96 1275 l 1,49,-1
 96 1280 l 1,0,-1
EndSplineSet
EndChar

StartChar: O
Encoding: 79 79 50
Width: 1024
VWidth: 0
GlyphClass: 2
Flags: W
LayerCount: 2
Fore
SplineSet
109.755859375 333.0234375 m 0,0,1
 94.8544921875 396.942382812 94.8544921875 396.942382812 87.4228515625 473.725585938 c 128,-1,2
 79.99609375 550.45703125 79.99609375 550.45703125 80 640.033203125 c 0,3,4
 80 819.40234375 80 819.40234375 109.755859375 947.041992188 c 0,5,6
 139.745117188 1075.6875 139.745117188 1075.6875 198.575195312 1151.25390625 c 0,7,8
 228.073242188 1189.14355469 228.073242188 1189.14355469 262.737304688 1216.75195312 c 128,-1,9
 297.400390625 1244.36035156 297.400390625 1244.36035156 337.497448681 1261.625 c 0,10,11
 379.05174951 1278.80761719 379.05174951 1278.80761719 427.666878672 1287.37011719 c 128,-1,12
 476.282007834 1296 476.282007834 1296 532.000000026 1296 c 128,-1,13
 587.712988086 1296 587.712988086 1296 636.332120553 1287.37011719 c 128,-1,14
 684.951253019 1278.80664062 684.951253019 1278.80664062 726.498548066 1261.62890625 c 0,15,16
 753.498046875 1250.10839844 753.498046875 1250.10839844 777.750976562 1233.95605469 c 0,17,18
 789.8671875 1225.88769531 789.8671875 1225.88769531 801.40625 1216.68066406 c 128,-1,19
 812.9453125 1207.47363281 812.9453125 1207.47363281 823.903320312 1197.1328125 c 0,20,21
 845.797851562 1176.47167969 845.797851562 1176.47167969 865.424804688 1151.26269531 c 128,-1,22
 885.135742188 1125.9453125 885.135742188 1125.9453125 901.592773438 1094.70898438 c 128,-1,23
 918.010742188 1063.54785156 918.010742188 1063.54785156 931.158203125 1026.63671875 c 128,-1,24
 944.282226562 989.794921875 944.282226562 989.794921875 954.244140625 947.063476562 c 0,25,26
 984 819.432617188 984 819.432617188 984 640.075195312 c 0,27,28
 984 550.500976562 984 550.500976562 976.577148438 473.778320312 c 0,29,30
 975.515625 462.815429688 975.515625 462.815429688 974.302734375 452.116210938 c 128,-1,31
 973.08984375 441.416992188 973.08984375 441.416992188 971.723632812 430.975585938 c 128,-1,32
 970.357421875 420.53515625 970.357421875 420.53515625 968.838867188 410.356445312 c 128,-1,33
 967.321289062 400.177734375 967.321289062 400.177734375 965.649414062 390.2578125 c 128,-1,34
 963.977539062 380.337890625 963.977539062 380.337890625 962.154296875 370.6796875 c 128,-1,35
 960.330078125 361.021484375 960.330078125 361.021484375 958.352539062 351.622070312 c 128,-1,36
 956.375 342.22265625 956.375 342.22265625 954.244140625 333.084960938 c 0,37,38
 939.266601562 268.837890625 939.266601562 268.837890625 917.083984375 217.791992188 c 128,-1,39
 894.90234375 166.747070312 894.90234375 166.747070312 865.424804688 128.88671875 c 0,40,41
 805.642578125 53.076171875 805.642578125 53.076171875 726.50255137 18.5224609375 c 0,42,43
 705.679362954 9.912109375 705.679362954 9.912109375 683.118740379 3.4765625 c 128,-1,44
 660.55911863 -3.0087890625 660.55911863 -3.0087890625 636.224031331 -7.322265625 c 0,45,46
 587.639927779 -16 587.639927779 -16 532.000000026 -16 c 128,-1,47
 476.360072272 -16 476.360072272 -16 427.782974503 -7.32421875 c 128,-1,48
 379.091782555 1.2421875 379.091782555 1.2421875 337.497448681 18.4404296875 c 0,49,50
 257.635742188 52.9482421875 257.635742188 52.9482421875 198.575195312 128.811523438 c 0,51,52
 139.745117188 204.377929688 139.745117188 204.377929688 109.755859375 333.0234375 c 0,0,1
590.550330159 1073.109375 m 0,53,54
 577.855851553 1081.59082031 577.855851553 1081.59082031 563.315849567 1085.78710938 c 128,-1,55
 548.714797187 1090 548.714797187 1090 532.000000026 1090 c 128,-1,56
 515.338246649 1090 515.338246649 1090 500.717177746 1085.77246094 c 128,-1,57
 486.09710967 1081.54394531 486.09710967 1081.54394531 473.351588932 1073.01953125 c 128,-1,58
 460.607069019 1064.49414062 460.607069019 1064.49414062 449.64502044 1051.59667969 c 0,59,60
 432.908205104 1031.90332031 432.908205104 1031.90332031 419.170865673 996.651367188 c 0,61,62
 414.556056397 984.807617188 414.556056397 984.807617188 410.329567659 971.259765625 c 128,-1,63
 406.103078921 957.7109375 406.103078921 957.7109375 402.256904111 942.412109375 c 128,-1,64
 398.409728476 927.11328125 398.409728476 927.11328125 394.96588577 910.131835938 c 0,65,66
 374.119678352 807.344726562 374.119678352 807.344726562 374.119678352 640 c 0,67,68
 374.119678352 584.138671875 374.119678352 584.138671875 376.448600752 535.438476562 c 0,69,70
 377.613562364 511.095703125 377.613562364 511.095703125 379.353999001 488.57421875 c 128,-1,71
 381.095436463 466.052734375 381.095436463 466.052734375 383.412348949 445.358398438 c 0,72,73
 388.041169791 404.013671875 388.041169791 404.013671875 394.96588577 369.868164062 c 0,74,75
 415.511845349 268.56640625 415.511845349 268.56640625 449.64502044 228.403320312 c 0,76,77
 482.284962949 190 482.284962949 190 532.000000026 190 c 0,78,79
 548.715798013 190 548.715798013 190 563.316850393 194.212890625 c 0,80,81
 570.591855517 196.3125 570.591855517 196.3125 577.392469056 199.477539062 c 128,-1,82
 584.193082595 202.643554688 584.193082595 202.643554688 590.550330159 206.890625 c 128,-1,83
 596.924591767 211.149414062 596.924591767 211.149414062 602.874503098 216.5234375 c 128,-1,84
 608.824414428 221.896484375 608.824414428 221.896484375 614.354979611 228.403320312 c 0,85,86
 648.488154702 268.56640625 648.488154702 268.56640625 669.034114281 369.868164062 c 0,87,88
 671.110828497 380.106445312 671.110828497 380.106445312 672.98137253 390.997070312 c 128,-1,89
 674.850915737 401.887695312 674.850915737 401.887695312 676.517291239 413.440429688 c 128,-1,90
 678.182665916 424.993164062 678.182665916 424.993164062 679.641870411 437.1953125 c 128,-1,91
 681.100074079 449.397460938 681.100074079 449.397460938 682.353108391 462.262695312 c 128,-1,92
 683.606142703 475.126953125 683.606142703 475.126953125 684.650004355 488.638671875 c 0,93,94
 689.880321699 556.259765625 689.880321699 556.259765625 689.880321699 640 c 0,95,96
 689.880321699 807.344726562 689.880321699 807.344726562 669.034114281 910.131835938 c 0,97,98
 648.488154702 1011.43359375 648.488154702 1011.43359375 614.354979611 1051.59667969 c 0,99,100
 608.824414428 1058.10351562 608.824414428 1058.10351562 602.874503098 1063.4765625 c 128,-1,101
 596.924591767 1068.85058594 596.924591767 1068.85058594 590.550330159 1073.109375 c 0,53,54
EndSplineSet
EndChar

StartChar: P
Encoding: 80 80 51
Width: 1024
VWidth: 0
GlyphClass: 2
Flags: W
LayerCount: 2
Fore
SplineSet
96 1280 m 1,0,-1
 101 1280 l 1,1,-1
 106 1280 l 1,2,-1
 576.885399956 1280 l 2,3,4
 609.034144716 1280 609.034144716 1280 638.99288773 1277.09960938 c 128,-1,5
 668.950628914 1274.21777344 668.950628914 1274.21777344 696.740408624 1268.44433594 c 0,6,7
 724.324813056 1262.66503906 724.324813056 1262.66503906 749.2578125 1253.96191406 c 0,8,9
 773.83984375 1245.25976562 773.83984375 1245.25976562 796.099609375 1233.63085938 c 128,-1,10
 818.36328125 1221.99902344 818.36328125 1221.99902344 838.470703125 1207.453125 c 128,-1,11
 858.579101562 1192.90625 858.579101562 1192.90625 876.5078125 1175.45996094 c 0,12,13
 930.310546875 1123.10839844 930.310546875 1123.10839844 957.19140625 1051.75097656 c 128,-1,14
 984 980.584960938 984 980.584960938 984 890.990234375 c 0,15,16
 984 710.586914062 984 710.586914062 855.34375 605.9296875 c 0,17,18
 791.270507812 553.892578125 791.270507812 553.892578125 701.674424453 527.946289062 c 0,19,20
 610.70720186 502 610.70720186 502 494.684195334 502 c 2,21,-1
 373.349482832 502 l 1,22,-1
 373.349482832 9.9501953125 l 1,23,-1
 373.349482832 5 l 1,24,-1
 373.349482832 0 l 1,25,-1
 368.220110032 0 l 1,26,-1
 362.950480943 0 l 1,27,-1
 106 0 l 1,28,-1
 101 0 l 1,29,-1
 96 0 l 1,30,-1
 96 5 l 1,31,-1
 96 9.9609375 l 1,32,-1
 96 1270.0390625 l 1,33,-1
 96 1275 l 1,34,-1
 96 1280 l 1,0,-1
626.409895079 1071.98730469 m 0,35,36
 604.748313302 1084 604.748313302 1084 576.885399956 1084 c 2,37,-1
 373.349482832 1084 l 1,38,-1
 373.349482832 708 l 1,39,-1
 494.684195334 708 l 2,40,41
 589.517482308 708 589.517482308 708 643.923898067 758.661132812 c 128,-1,42
 698.220112457 809.21875 698.220112457 809.21875 698.220112457 896 c 0,43,44
 698.220112457 913.791015625 698.220112457 913.791015625 696.838588025 930.091796875 c 128,-1,45
 695.460069085 946.357421875 695.460069085 946.357421875 692.72707514 961.040039062 c 0,46,47
 691.363583659 968.3671875 691.363583659 968.3671875 689.664478919 975.318359375 c 128,-1,48
 687.965374178 982.26953125 687.965374178 982.26953125 685.930656179 988.844726562 c 0,49,50
 681.872240316 1001.96582031 681.872240316 1001.96582031 676.512446472 1013.54003906 c 0,51,52
 673.838560534 1019.31347656 673.838560534 1019.31347656 670.840081473 1024.71679688 c 128,-1,53
 667.841602412 1030.11914062 667.841602412 1030.11914062 664.518530228 1035.15234375 c 0,54,55
 656.302517271 1047.59960938 656.302517271 1047.59960938 646.777111688 1056.78710938 c 128,-1,56
 637.252707934 1065.97460938 637.252707934 1065.97460938 626.409895079 1071.98730469 c 0,35,36
EndSplineSet
EndChar

StartChar: Q
Encoding: 81 81 52
Width: 1024
VWidth: 0
GlyphClass: 2
Flags: W
LayerCount: 2
Fore
SplineSet
217.75 1232.68261719 m 0,0,1
 254.583984375 1259.37792969 254.583984375 1259.37792969 299.365694939 1275 c 0,2,3
 391.362867915 1296 391.362867915 1296 532 1296 c 128,-1,4
 672.637132085 1296 672.637132085 1296 764.635302559 1275 c 0,5,6
 854.130859375 1243.72070312 854.130859375 1243.72070312 911.944335938 1168.36914062 c 0,7,8
 926.322265625 1149.62890625 926.322265625 1149.62890625 938.568359375 1128.31445312 c 128,-1,9
 950.814453125 1106.99902344 950.814453125 1106.99902344 960.913085938 1083.14257812 c 128,-1,10
 971.012695312 1059.28613281 971.012695312 1059.28613281 978.981445312 1032.90820312 c 128,-1,11
 986.950195312 1006.53125 986.950195312 1006.53125 992.802734375 977.595703125 c 0,12,13
 1016 862.91796875 1016 862.91796875 1016 687.149414062 c 0,14,15
 1016 399.474609375 1016 399.474609375 939.15625 267.072265625 c 0,16,17
 863.079101562 135.990234375 863.079101562 135.990234375 676.000692688 106.598632812 c 1,18,-1
 676.000692688 -147 l 1,19,-1
 676.000692688 -152 l 1,20,-1
 676.000692688 -157 l 1,21,-1
 670.893506956 -157 l 1,22,-1
 665.672606543 -157 l 1,23,-1
 398.327393457 -157 l 1,24,-1
 393.106493044 -157 l 1,25,-1
 387.999307312 -157 l 1,26,-1
 387.999307312 -152 l 1,27,-1
 387.999307312 -147 l 1,28,-1
 387.999307312 106.598632812 l 1,29,30
 200.920898438 135.990234375 200.920898438 135.990234375 124.84375 267.072265625 c 0,31,32
 48 399.474609375 48 399.474609375 48 687.149414062 c 0,33,34
 48 862.91796875 48 862.91796875 71.197265625 977.595703125 c 0,35,36
 82.896484375 1035.42871094 82.896484375 1035.42871094 103.061523438 1083.08496094 c 128,-1,37
 123.280273438 1130.86425781 123.280273438 1130.86425781 152.055664062 1168.36914062 c 0,38,39
 166.479492188 1187.16796875 166.479492188 1187.16796875 182.907226562 1203.25195312 c 128,-1,40
 199.333984375 1219.3359375 199.333984375 1219.3359375 217.75 1232.68261719 c 0,0,1
654.85674426 1051.04296875 m 128,-1,42
 643.583030757 1060.7578125 643.583030757 1060.7578125 630.364197688 1068.04101562 c 0,43,44
 590.509196536 1090 590.509196536 1090 532 1090 c 0,45,46
 508.471035736 1090 508.471035736 1090 487.985435469 1086.453125 c 128,-1,47
 467.605569907 1082.92578125 467.605569907 1082.92578125 450.197248542 1075.89453125 c 0,48,49
 441.521017782 1072.38964844 441.521017782 1072.38964844 433.572959988 1068.01074219 c 128,-1,50
 425.62589969 1063.63085938 425.62589969 1063.63085938 418.389057409 1058.37011719 c 0,51,52
 403.916370343 1047.84960938 403.916370343 1047.84960938 392.257622915 1033.8359375 c 128,-1,53
 380.55498561 1019.77246094 380.55498561 1019.77246094 371.566538222 1002.08496094 c 0,54,55
 348.623104822 956.936523438 348.623104822 956.936523438 336.899520076 874.708007812 c 0,56,57
 325.111098011 792.017578125 325.111098011 792.017578125 325.111098011 673 c 0,58,59
 325.111098011 609.461914062 325.111098011 609.461914062 328.33999649 556.509765625 c 128,-1,60
 331.567897471 503.55859375 331.567897471 503.55859375 337.967839591 461.557617188 c 128,-1,61
 344.368779208 419.557617188 344.368779208 419.557617188 353.925800008 388.342773438 c 0,62,63
 357.265420677 377.436523438 357.265420677 377.436523438 361.138702356 367.459960938 c 128,-1,64
 365.011984035 357.484375 365.011984035 357.484375 369.40196927 348.47265625 c 128,-1,65
 373.791954505 339.461914062 373.791954505 339.461914062 378.690663319 331.401367188 c 128,-1,66
 383.589372133 323.33984375 383.589372133 323.33984375 389.006779498 316.209960938 c 0,67,68
 407.775687061 291.504882812 407.775687061 291.504882812 432.904636855 277.213867188 c 1,69,-1
 432.904636855 673 l 1,70,-1
 432.904636855 678 l 1,71,-1
 432.904636855 683 l 1,72,-1
 438.011822586 683 l 1,73,-1
 443.233720497 683 l 1,74,-1
 620.766279503 683 l 1,75,-1
 625.988177414 683 l 1,76,-1
 631.095363145 683 l 1,77,-1
 631.095363145 678 l 1,78,-1
 631.095363145 673 l 1,79,-1
 631.095363145 277.212890625 l 1,80,81
 658.28214969 292.626953125 658.28214969 292.626953125 677.992694622 320.282226562 c 128,-1,82
 697.702242058 347.938476562 697.702242058 347.938476562 710.074199992 388.342773438 c 0,83,84
 719.631220792 419.557617188 719.631220792 419.557617188 726.032160409 461.557617188 c 128,-1,85
 732.432102529 503.55859375 732.432102529 503.55859375 735.66000351 556.509765625 c 128,-1,86
 738.888901989 609.461914062 738.888901989 609.461914062 738.888901989 673 c 0,87,88
 738.888901989 712.783203125 738.888901989 712.783203125 737.563228193 748.578125 c 128,-1,89
 736.237554397 784.360351562 736.237554397 784.360351562 733.605159251 815.939453125 c 128,-1,90
 730.975756597 847.48828125 730.975756597 847.48828125 727.058585041 874.997070312 c 128,-1,91
 723.147398468 902.459960938 723.147398468 902.459960938 717.964402949 925.764648438 c 0,92,93
 716.239730267 933.51953125 716.239730267 933.51953125 714.375407976 940.819335938 c 128,-1,94
 712.512083181 948.119140625 712.512083181 948.119140625 710.516091258 954.943359375 c 128,-1,95
 708.520099334 961.767578125 708.520099334 961.767578125 706.38844779 968.133789062 c 0,96,97
 703.199449199 977.66015625 703.199449199 977.66015625 699.708208953 986.150390625 c 128,-1,98
 696.216968707 994.640625 696.216968707 994.640625 692.433461778 1002.08496094 c 0,99,100
 684.929290243 1016.85058594 684.929290243 1016.85058594 675.529874003 1029.08886719 c 128,-1,41
 666.130457763 1041.32714844 666.130457763 1041.32714844 654.85674426 1051.04296875 c 128,-1,42
EndSplineSet
EndChar

StartChar: R
Encoding: 82 82 53
Width: 1024
VWidth: 0
GlyphClass: 2
Flags: W
LayerCount: 2
Fore
SplineSet
96 1280 m 1,0,-1
 101 1280 l 1,1,-1
 106 1280 l 1,2,-1
 588.919154234 1280 l 2,3,4
 621.759074088 1280 621.759074088 1280 652.005499769 1277.75 c 128,-1,5
 682.25192545 1275.51757812 682.25192545 1275.51757812 709.92686964 1271.04589844 c 128,-1,6
 737.479743502 1266.56738281 737.479743502 1266.56738281 762.21484375 1259.79980469 c 0,7,8
 786.447265625 1253.03222656 786.447265625 1253.03222656 808.022460938 1243.96484375 c 128,-1,9
 829.624023438 1234.88671875 829.624023438 1234.88671875 848.727539062 1223.50195312 c 128,-1,10
 867.830078125 1212.1171875 867.830078125 1212.1171875 884.411132812 1198.42871094 c 0,11,12
 909.458984375 1177.74902344 909.458984375 1177.74902344 928.197265625 1150.28320312 c 128,-1,13
 946.935546875 1122.81640625 946.935546875 1122.81640625 959.329101562 1088.68945312 c 0,14,15
 984 1020.74902344 984 1020.74902344 984 926.493164062 c 0,16,17
 984 691.206054688 984 691.206054688 782.72265625 613.483398438 c 1,18,-1
 999.41796875 13.2060546875 l 1,19,-1
 1001.79003906 6.6337890625 l 1,20,-1
 1004.18457031 0 l 1,21,-1
 997.083007812 0 l 1,22,-1
 990 0 l 1,23,-1
 732.93812697 0 l 1,24,-1
 729.136937014 0 l 1,25,-1
 725.462820269 0 l 1,26,-1
 724.28514178 3.396484375 l 1,27,-1
 723.094455798 6.830078125 l 1,28,-1
 523.626537613 582 l 1,29,-1
 343.03049196 582 l 1,30,-1
 343.03049196 10 l 1,31,-1
 343.03049196 5 l 1,32,-1
 343.03049196 0 l 1,33,-1
 338 0 l 1,34,-1
 333 0 l 1,35,-1
 106 0 l 1,36,-1
 101 0 l 1,37,-1
 96 0 l 1,38,-1
 96 5 l 1,39,-1
 96 9.9609375 l 1,40,-1
 96 1270.0390625 l 1,41,-1
 96 1275 l 1,42,-1
 96 1280 l 1,0,-1
612.79791135 1083.00488281 m 128,-1,44
 601.394341484 1084 601.394341484 1084 588.919154234 1084 c 2,45,-1
 343.03049196 1084 l 1,46,-1
 343.03049196 778 l 1,47,-1
 490.103224039 778 l 2,48,49
 551.840792513 778 551.840792513 778 598.381605776 787.073242188 c 128,-1,50
 644.922419039 796.145507812 644.922419039 796.145507812 676.075366989 814.060546875 c 0,51,52
 736.225020627 848.651367188 736.225020627 848.651367188 736.225020627 931 c 0,53,54
 736.225020627 973.149414062 736.225020627 973.149414062 726.91365613 1002.70800781 c 128,-1,55
 717.602291632 1032.26757812 717.602291632 1032.26757812 699.384796102 1049.36035156 c 0,56,57
 687.242800812 1060.75390625 687.242800812 1060.75390625 671.202559649 1068.39257812 c 128,-1,58
 655.044250465 1076.08886719 655.044250465 1076.08886719 634.523427934 1080.02832031 c 0,59,43
 624.201481217 1082.00976562 624.201481217 1082.00976562 612.79791135 1083.00488281 c 128,-1,44
EndSplineSet
EndChar

StartChar: S
Encoding: 83 83 54
Width: 1024
VWidth: 0
GlyphClass: 2
Flags: W
LayerCount: 2
Fore
SplineSet
112 923.33984375 m 0,0,1
 112 1120.41894531 112 1120.41894531 265.65625 1205.00878906 c 0,2,3
 420.340348304 1288 420.340348304 1288 723.373073962 1288 c 0,4,5
 780.356445312 1288 780.356445312 1288 831.2890625 1283.96875 c 0,6,7
 856.787109375 1281.94921875 856.787109375 1281.94921875 875.350585938 1279.92675781 c 128,-1,8
 893.915039062 1277.90429688 893.915039062 1277.90429688 905.725585938 1275.85058594 c 2,9,-1
 927.744140625 1272.05566406 l 1,10,-1
 931.849609375 1271.34765625 l 1,11,-1
 936 1270.63183594 l 1,12,-1
 936 1266.41992188 l 1,13,-1
 936 1262.46484375 l 1,14,-1
 936 1093.73925781 l 1,15,-1
 936 1089 l 1,16,-1
 936 1084 l 1,17,-1
 931 1084 l 1,18,-1
 926 1084 l 1,19,-1
 723.373073962 1084 l 2,20,21
 709.53879486 1084 709.53879486 1084 696.249511618 1083.74023438 c 128,-1,22
 682.961230206 1083.47949219 682.961230206 1083.47949219 670.224957469 1082.95996094 c 128,-1,23
 657.488684731 1082.44042969 657.488684731 1082.44042969 645.304420669 1081.66113281 c 128,-1,24
 633.121158436 1080.88183594 633.121158436 1080.88183594 621.484895726 1079.84375 c 0,25,26
 605.980564971 1078.45996094 605.980564971 1078.45996094 591.484075825 1076.625 c 128,-1,27
 576.98858851 1074.79101562 576.98858851 1074.79101562 563.534003215 1072.51171875 c 128,-1,28
 550.079417919 1070.23242188 550.079417919 1070.23242188 537.640688878 1067.50683594 c 128,-1,29
 525.219992787 1064.78417969 525.219992787 1064.78417969 513.777083387 1061.61425781 c 128,-1,30
 502.334173987 1058.4453125 502.334173987 1058.4453125 491.917139147 1054.84765625 c 128,-1,31
 481.501106137 1051.25 481.501106137 1051.25 472.070874463 1047.21484375 c 0,32,33
 430.806472845 1029.55761719 430.806472845 1029.55761719 410.508382549 1000.7890625 c 128,-1,34
 390.211294084 972.01953125 390.211294084 972.01953125 390.211294084 931.397460938 c 0,35,36
 390.211294084 904.209960938 390.211294084 904.209960938 398.09069195 881.401367188 c 128,-1,37
 405.940034898 858.684570312 405.940034898 858.684570312 421.652746423 839.985351562 c 0,38,39
 453.809505828 801.717773438 453.809505828 801.717773438 504.74257481 779.905273438 c 0,40,41
 557.396788805 757.356445312 557.396788805 757.356445312 621.618139199 738.2109375 c 0,42,43
 686.927477651 718.739257812 686.927477651 718.739257812 751.440429688 692.278320312 c 0,44,45
 782.706054688 678.927734375 782.706054688 678.927734375 811.190429688 662.924804688 c 128,-1,46
 839.690429688 646.913085938 839.690429688 646.913085938 865.41015625 628.240234375 c 0,47,48
 891.758789062 609.110351562 891.758789062 609.110351562 913.200195312 582.068359375 c 0,49,50
 923.89453125 568.58203125 923.89453125 568.58203125 933.35546875 553.16796875 c 128,-1,51
 942.81640625 537.75390625 942.81640625 537.75390625 951.048828125 520.418945312 c 0,52,53
 967.569335938 485.629882812 967.569335938 485.629882812 975.796875 444.61328125 c 128,-1,54
 984 403.712890625 984 403.712890625 984 356.66015625 c 0,55,56
 984 255.786132812 984 255.786132812 940.047851562 184.051757812 c 128,-1,57
 896.037109375 112.221679688 896.037109375 112.221679688 810.423828125 70.3154296875 c 0,58,59
 725.53302079 29.0341796875 725.53302079 29.0341796875 607.027477974 10.4638671875 c 0,60,61
 489.210192798 -8 489.210192798 -8 332 -8 c 0,62,63
 269.677734375 -8 269.677734375 -8 212.79296875 -3.974609375 c 128,-1,64
 155.856445312 0.056640625 155.856445312 0.056640625 130.483398438 4.1162109375 c 2,65,-1
 104.517578125 7.90234375 l 1,66,-1
 100.278320312 8.5205078125 l 1,67,-1
 96 9.1435546875 l 1,68,-1
 96 13.4677734375 l 1,69,-1
 96 17.5341796875 l 1,70,-1
 96 186.260742188 l 1,71,-1
 96 191 l 1,72,-1
 96 196 l 1,73,-1
 101 196 l 1,74,-1
 106 196 l 1,75,-1
 332 196 l 2,76,77
 347.245784064 196 347.245784064 196 362.153023766 196.260742188 c 128,-1,78
 377.059261637 196.520507812 377.059261637 196.520507812 391.366404795 197.041992188 c 128,-1,79
 405.674549783 197.5625 405.674549783 197.5625 419.384601888 198.342773438 c 128,-1,80
 433.093652162 199.123046875 433.093652162 199.123046875 446.208616875 200.1640625 c 0,81,82
 472.41850969 202.243164062 472.41850969 202.243164062 496.052695967 205.33984375 c 128,-1,83
 519.687884076 208.436523438 519.687884076 208.436523438 540.731336356 212.543945312 c 0,84,85
 582.706035888 220.73828125 582.706035888 220.73828125 614.641390725 232.943359375 c 0,86,87
 706.650517168 268.103515625 706.650517168 268.103515625 706.650517168 348.602539062 c 0,88,89
 706.650517168 362.2265625 706.650517168 362.2265625 704.677912667 374.719726562 c 128,-1,90
 702.705308166 387.212890625 702.705308166 387.212890625 698.771119301 398.598632812 c 128,-1,91
 694.84294142 409.967773438 694.84294142 409.967773438 688.958188328 420.311523438 c 128,-1,92
 683.074437067 430.654296875 683.074437067 430.654296875 675.209064829 440.014648438 c 0,93,94
 668.783323199 447.661132812 668.783323199 447.661132812 661.624241552 454.640625 c 128,-1,95
 654.464158074 461.619140625 654.464158074 461.619140625 646.546690644 467.951171875 c 128,-1,96
 638.625215891 474.28515625 638.625215891 474.28515625 629.951366338 479.959960938 c 128,-1,97
 621.270503972 485.641601562 621.270503972 485.641601562 611.818232024 490.673828125 c 0,98,99
 609.925773973 491.680664062 609.925773973 491.680664062 608.003261003 492.661132812 c 128,-1,100
 606.080748034 493.642578125 606.080748034 493.642578125 604.126176484 494.59765625 c 128,-1,101
 602.171604934 495.552734375 602.171604934 495.552734375 600.186978466 496.481445312 c 128,-1,102
 598.201350167 497.411132812 598.201350167 497.411132812 596.183663288 498.314453125 c 128,-1,103
 594.166978239 499.217773438 594.166978239 499.217773438 592.119236442 500.094726562 c 0,104,105
 581.60302037 504.59765625 581.60302037 504.59765625 570.622956718 508.965820312 c 128,-1,106
 559.639887575 513.3359375 559.639887575 513.3359375 548.185958038 517.573242188 c 128,-1,107
 536.732028501 521.810546875 536.732028501 521.810546875 524.812247723 525.913085938 c 128,-1,108
 512.888459623 530.016601562 512.888459623 530.016601562 500.496816621 533.986328125 c 128,-1,109
 488.102168126 537.955078125 488.102168126 537.955078125 475.243672053 541.7890625 c 0,110,111
 442.573975367 551.529296875 442.573975367 551.529296875 409.942348246 563.004882812 c 128,-1,112
 377.310721124 574.48046875 377.310721124 574.48046875 344.638018947 587.719726562 c 0,113,114
 313.293945312 601.072265625 313.293945312 601.072265625 284.809570312 617.075195312 c 128,-1,115
 256.309570312 633.086914062 256.309570312 633.086914062 230.58984375 651.759765625 c 0,116,117
 178.03515625 689.915039062 178.03515625 689.915039062 144.951171875 759.581054688 c 0,118,119
 112 828.967773438 112 828.967773438 112 923.33984375 c 0,0,1
EndSplineSet
EndChar

StartChar: T
Encoding: 84 84 55
Width: 1024
VWidth: 0
GlyphClass: 2
Flags: W
LayerCount: 2
Fore
SplineSet
64 1280 m 1,0,-1
 69 1280 l 1,1,-1
 74 1280 l 1,2,-1
 990 1280 l 1,3,-1
 995 1280 l 1,4,-1
 1000 1280 l 1,5,-1
 1000 1275 l 1,6,-1
 1000 1270 l 1,7,-1
 1000 1093.73828125 l 1,8,-1
 1000 1089 l 1,9,-1
 1000 1084 l 1,10,-1
 995 1084 l 1,11,-1
 990 1084 l 1,12,-1
 676.459053063 1084 l 1,13,-1
 676.459053063 9.9541015625 l 1,14,-1
 676.459053063 5 l 1,15,-1
 676.459053063 0 l 1,16,-1
 671.343972968 0 l 1,17,-1
 666.105012026 0 l 1,18,-1
 397.894987974 0 l 1,19,-1
 392.656027032 0 l 1,20,-1
 387.540946937 0 l 1,21,-1
 387.540946937 5 l 1,22,-1
 387.540946937 9.9541015625 l 1,23,-1
 387.540946937 1084 l 1,24,-1
 74 1084 l 1,25,-1
 69 1084 l 1,26,-1
 64 1084 l 1,27,-1
 64 1089 l 1,28,-1
 64 1093.73828125 l 1,29,-1
 64 1270 l 1,30,-1
 64 1275 l 1,31,-1
 64 1280 l 1,0,-1
EndSplineSet
EndChar

StartChar: U
Encoding: 85 85 56
Width: 1024
VWidth: 0
GlyphClass: 2
Flags: W
LayerCount: 2
Fore
SplineSet
96 1280 m 1,0,-1
 101 1280 l 1,1,-1
 106 1280 l 1,2,-1
 362.992618529 1280 l 1,3,-1
 368.274005176 1280 l 1,4,-1
 373.408965228 1280 l 1,5,-1
 373.408965228 1275 l 1,6,-1
 373.408965228 1270.04589844 l 1,7,-1
 373.408965228 578.788085938 l 2,8,9
 373.408965228 355.845703125 373.408965228 355.845703125 409.624474499 270.720703125 c 0,10,11
 443.967528612 190 443.967528612 190 532 190 c 0,12,13
 576.43445412 190 576.43445412 190 606.692607394 209.9140625 c 128,-1,14
 636.987868778 229.8515625 636.987868778 229.8515625 654.375525501 270.720703125 c 0,15,16
 672.264643166 312.768554688 672.264643166 312.768554688 681.403267383 389.787109375 c 0,17,18
 690.591034772 467.20703125 690.591034772 467.20703125 690.591034772 578.788085938 c 2,19,-1
 690.591034772 1270.04589844 l 1,20,-1
 690.591034772 1275 l 1,21,-1
 690.591034772 1280 l 1,22,-1
 695.725994824 1280 l 1,23,-1
 701.007381471 1280 l 1,24,-1
 958 1280 l 1,25,-1
 963 1280 l 1,26,-1
 968 1280 l 1,27,-1
 968 1275 l 1,28,-1
 968 1270.03808594 l 1,29,-1
 968 576.819335938 l 2,30,31
 968 534.750976562 968 534.750976562 966.680664062 496.375976562 c 128,-1,32
 965.361328125 458 965.361328125 458 962.717773438 423.2421875 c 128,-1,33
 960.07421875 388.483398438 960.07421875 388.483398438 956.099609375 357.360351562 c 128,-1,34
 952.125976562 326.23828125 952.125976562 326.23828125 946.819335938 298.745117188 c 0,35,36
 924.986328125 187.69921875 924.986328125 187.69921875 874.692382812 116.2265625 c 0,37,38
 849.088867188 80.0634765625 849.088867188 80.0634765625 816.015625 54.3994140625 c 128,-1,39
 782.942382812 28.734375 782.942382812 28.734375 742.509765625 13.6767578125 c 0,40,41
 659.579687163 -16 659.579687163 -16 532 -16 c 0,42,43
 489.520240634 -16 489.520240634 -16 451.983883239 -12.6982421875 c 128,-1,44
 414.447525845 -9.3955078125 414.447525845 -9.3955078125 381.655991889 -2.74609375 c 128,-1,45
 348.863455011 3.8525390625 348.863455011 3.8525390625 321.490234375 13.77734375 c 0,46,47
 240.580078125 43.90625 240.580078125 43.90625 189.307617188 116.318359375 c 0,48,49
 138.578125 187.959960938 138.578125 187.959960938 117.176757812 298.83984375 c 0,50,51
 106.565429688 353.814453125 106.565429688 353.814453125 101.280273438 423.345703125 c 128,-1,52
 96 492.782226562 96 492.782226562 96 576.875 c 2,53,-1
 96 1270.0390625 l 1,54,-1
 96 1275 l 1,55,-1
 96 1280 l 1,0,-1
EndSplineSet
EndChar

StartChar: V
Encoding: 86 86 57
Width: 1024
VWidth: 0
GlyphClass: 2
Flags: W
LayerCount: 2
Fore
SplineSet
32 1280 m 1,0,-1
 38.57421875 1280 l 1,1,-1
 45.134765625 1280 l 1,2,-1
 280.181814022 1280 l 1,3,-1
 284.063871074 1280 l 1,4,-1
 287.932981297 1280 l 1,5,-1
 288.974703122 1276.34570312 l 1,6,-1
 290.017420858 1272.68652344 l 1,7,-1
 510.70708595 504.686523438 l 1,8,-1
 510.851492895 504.182617188 l 1,9,-1
 535.134765625 365.634765625 l 1,10,-1
 559.329402368 503.676757812 l 1,11,-1
 559.5624453 504.686523438 l 1,12,-1
 780.249122662 1272.67578125 l 1,13,-1
 781.294828128 1276.34570312 l 1,14,-1
 782.335554043 1280 l 1,15,-1
 786.205660176 1280 l 1,16,-1
 790.087717228 1280 l 1,17,-1
 1025.13476562 1280 l 1,18,-1
 1031.6953125 1280 l 1,19,-1
 1038.26953125 1280 l 1,20,-1
 1036.51367188 1273.71386719 l 1,21,-1
 1034.77246094 1267.47851562 l 1,22,-1
 678.30877433 7.29296875 l 1,23,-1
 677.257093404 3.6484375 l 1,24,-1
 676.212383849 -0 l 1,25,-1
 672.347257266 0 l 1,26,-1
 668.380547867 0 l 1,27,-1
 401.887987473 0 l 1,28,-1
 397.921278074 0 l 1,29,-1
 394.057147401 0 l 1,30,-1
 393.012437846 3.6484375 l 1,31,-1
 391.957769191 7.3017578125 l 1,32,-1
 35.4951171875 1267.48632812 l 1,33,-1
 33.755859375 1273.71386719 l 1,34,-1
 32 1280 l 1,0,-1
EndSplineSet
EndChar

StartChar: W
Encoding: 87 87 58
Width: 1024
VWidth: 0
GlyphClass: 2
Flags: W
LayerCount: 2
Fore
SplineSet
32 1280 m 1,0,-1
 37.392578125 1280 l 1,1,-1
 42.78125 1280 l 1,2,-1
 247.78125 1280 l 1,3,-1
 252.42578125 1280 l 1,4,-1
 257.0703125 1280 l 1,5,-1
 257.412109375 1275.36816406 l 1,6,-1
 257.75390625 1270.74023438 l 1,7,-1
 311.894839463 553.740234375 l 1,8,-1
 311.915757396 553.462890625 l 1,9,-1
 315.062412187 391.091796875 l 1,10,-1
 456.474612512 761.474609375 l 1,11,-1
 457.726700221 764.752929688 l 1,12,-1
 458.966834825 768 l 1,13,-1
 462.502961609 768 l 1,14,-1
 466.138697599 768 l 1,15,-1
 599.42278678 768 l 1,16,-1
 603.059518861 768 l 1,17,-1
 606.595645645 768 l 1,18,-1
 607.83578025 764.752929688 l 1,19,-1
 609.087867959 761.474609375 l 1,20,-1
 750.501064375 391.091796875 l 1,21,-1
 753.640746522 553.1875 l 1,22,-1
 753.667641008 553.740234375 l 1,23,-1
 807.80859375 1270.73730469 l 1,24,-1
 808.151367188 1275.36914062 l 1,25,-1
 808.494140625 1280 l 1,26,-1
 813.137695312 1280 l 1,27,-1
 817.78125 1280 l 1,28,-1
 1022.78125 1280 l 1,29,-1
 1028.17089844 1280 l 1,30,-1
 1033.56347656 1280 l 1,31,-1
 1033.15625 1274.66503906 l 1,32,-1
 1032.75292969 1269.37402344 l 1,33,-1
 936.75390625 9.216796875 l 1,34,-1
 936.407226562 4.6259765625 l 1,35,-1
 936.060546875 0 l 1,36,-1
 931.420898438 0 l 1,37,-1
 926.78125 0 l 1,38,-1
 720.211897263 0 l 1,39,-1
 716.728563357 0 l 1,40,-1
 713.343842565 0 l 1,41,-1
 712.029001057 3.05859375 l 1,42,-1
 710.70021426 6.150390625 l 1,43,-1
 532.781240235 420.0234375 l 1,44,-1
 354.863262303 6.150390625 l 1,45,-1
 353.534475506 3.05859375 l 1,46,-1
 352.219633997 0 l 1,47,-1
 348.833917113 0 l 1,48,-1
 345.350583208 0 l 1,49,-1
 138.78125 0 l 1,50,-1
 134.142578125 0 l 1,51,-1
 129.502929688 0 l 1,52,-1
 129.15625 4.6259765625 l 1,53,-1
 128.809570312 9.212890625 l 1,54,-1
 32.8095703125 1269.37402344 l 1,55,-1
 32.40625 1274.66503906 l 1,56,-1
 32 1280 l 1,0,-1
EndSplineSet
EndChar

StartChar: X
Encoding: 88 88 59
Width: 1024
VWidth: 0
GlyphClass: 2
Flags: W
LayerCount: 2
Fore
SplineSet
32 1280 m 1,0,-1
 40.4765625 1280 l 1,1,-1
 48.9208984375 1280 l 1,2,-1
 308.964607507 1280 l 1,3,-1
 312.144630466 1280 l 1,4,-1
 315.231064772 1280 l 1,5,-1
 316.661776417 1277.31738281 l 1,6,-1
 318.111404916 1274.59960938 l 1,7,-1
 538.920888907 860.741210938 l 1,8,-1
 759.730372897 1274.60058594 l 1,9,-1
 761.181992645 1277.31933594 l 1,10,-1
 762.612704289 1280 l 1,11,-1
 765.698142971 1280 l 1,12,-1
 768.876174682 1280 l 1,13,-1
 1028.92089844 1280 l 1,14,-1
 1037.36621094 1280 l 1,15,-1
 1045.84277344 1280 l 1,16,-1
 1041.7421875 1277.49023438 l 1,17,-1
 1037.67480469 1275 l 1,18,-1
 684.915205321 640.005859375 l 1,19,-1
 1037.68164062 5 l 1,20,-1
 1041.7421875 2.51171875 l 1,21,-1
 1045.84277344 0 l 1,22,-1
 1037.36621094 0 l 1,23,-1
 1028.92089844 0 l 1,24,-1
 768.876174682 0 l 1,25,-1
 765.698142971 0 l 1,26,-1
 762.612704289 0 l 1,27,-1
 761.181992645 2.6806640625 l 1,28,-1
 759.730372897 5.400390625 l 1,29,-1
 538.920888907 419.258789062 l 1,30,-1
 318.111404916 5.4013671875 l 1,31,-1
 316.661776417 2.6826171875 l 1,32,-1
 315.231064772 -0 l 1,33,-1
 312.144630466 0 l 1,34,-1
 308.964607507 0 l 1,35,-1
 48.9208984375 0 l 1,36,-1
 40.4765625 0 l 1,37,-1
 32 0 l 1,38,-1
 36.1005859375 2.509765625 l 1,39,-1
 40.1669921875 5 l 1,40,-1
 392.926572492 639.994140625 l 1,41,-1
 40.1611328125 1275 l 1,42,-1
 36.1005859375 1277.48828125 l 1,43,-1
 32 1280 l 1,0,-1
EndSplineSet
EndChar

StartChar: Y
Encoding: 89 89 60
Width: 1024
VWidth: 0
GlyphClass: 2
Flags: W
LayerCount: 2
Fore
SplineSet
32 1280 m 1,0,-1
 39.81640625 1280 l 1,1,-1
 47.6083984375 1280 l 1,2,-1
 298.251721878 1280 l 1,3,-1
 301.594360973 1280 l 1,4,-1
 304.841410747 1280 l 1,5,-1
 306.214511525 1277.11328125 l 1,6,-1
 307.603543857 1274.19335938 l 1,7,-1
 537.608379278 790.846679688 l 1,8,-1
 767.614210421 1274.19238281 l 1,9,-1
 769.003242753 1277.11328125 l 1,10,-1
 770.376343531 1280 l 1,11,-1
 773.623393305 1280 l 1,12,-1
 776.9660324 1280 l 1,13,-1
 1027.60839844 1280 l 1,14,-1
 1035.40039062 1280 l 1,15,-1
 1043.21875 1280 l 1,16,-1
 1039.93945312 1277.49023438 l 1,17,-1
 1036.6875 1275 l 1,18,-1
 681.117822897 515.479492188 l 1,19,-1
 681.117822897 9.9970703125 l 1,20,-1
 681.117822897 5 l 1,21,-1
 681.117822897 0 l 1,22,-1
 676.019725737 0 l 1,23,-1
 670.816082034 0 l 1,24,-1
 404.401672244 0 l 1,25,-1
 399.198028541 0 l 1,26,-1
 394.099931381 0 l 1,27,-1
 394.099931381 5 l 1,28,-1
 394.099931381 9.99609375 l 1,29,-1
 394.099931381 515.475585938 l 1,30,-1
 38.5234375 1275 l 1,31,-1
 35.27734375 1277.48828125 l 1,32,-1
 32 1280 l 1,0,-1
EndSplineSet
EndChar

StartChar: Z
Encoding: 90 90 61
Width: 1024
VWidth: 0
GlyphClass: 2
Flags: W
LayerCount: 2
Fore
SplineSet
128 1280 m 1,0,-1
 133 1280 l 1,1,-1
 138 1280 l 1,2,-1
 926 1280 l 1,3,-1
 931 1280 l 1,4,-1
 936 1280 l 1,5,-1
 936 1275 l 1,6,-1
 936 1270.04589844 l 1,7,-1
 936 1085.75390625 l 1,8,-1
 936 1084.40136719 l 1,9,-1
 936 1083.04882812 l 1,10,-1
 935.306640625 1081.88378906 l 1,11,-1
 934.602539062 1080.70117188 l 1,12,-1
 389.766621174 196 l 1,13,-1
 958 196 l 1,14,-1
 963 196 l 1,15,-1
 968 196 l 1,16,-1
 968 191 l 1,17,-1
 968 186.26171875 l 1,18,-1
 968 10 l 1,19,-1
 968 5 l 1,20,-1
 968 0 l 1,21,-1
 963 0 l 1,22,-1
 958 0 l 1,23,-1
 106 0 l 1,24,-1
 101 0 l 1,25,-1
 96 0 l 1,26,-1
 96 5 l 1,27,-1
 96 9.9541015625 l 1,28,-1
 96 194.24609375 l 1,29,-1
 96 195.598632812 l 1,30,-1
 96 196.951171875 l 1,31,-1
 96.693359375 198.116210938 l 1,32,-1
 97.396484375 199.296875 l 1,33,-1
 640.439925907 1084 l 1,34,-1
 138 1084 l 1,35,-1
 133 1084 l 1,36,-1
 128 1084 l 1,37,-1
 128 1089 l 1,38,-1
 128 1093.73828125 l 1,39,-1
 128 1270 l 1,40,-1
 128 1275 l 1,41,-1
 128 1280 l 1,0,-1
EndSplineSet
EndChar

StartChar: bracketleft
Encoding: 91 91 62
Width: 1024
VWidth: 0
GlyphClass: 2
Flags: W
LayerCount: 2
Fore
SplineSet
822 1231 m 1,0,-1
 532 1231 l 1,1,-1
 532 -50 l 1,2,-1
 822 -50 l 1,3,-1
 827 -50 l 1,4,-1
 832 -50 l 1,5,-1
 837 -50 l 1,6,-1
 842 -50 l 1,7,-1
 842 -55 l 1,8,-1
 842 -60 l 1,9,-1
 842 -65 l 1,10,-1
 842 -70 l 1,11,-1
 842 -256 l 1,12,-1
 842 -261 l 1,13,-1
 842 -266 l 1,14,-1
 842 -271 l 1,15,-1
 842 -276 l 1,16,-1
 837 -276 l 1,17,-1
 832 -276 l 1,18,-1
 827 -276 l 1,19,-1
 822 -276 l 1,20,-1
 256 -276 l 1,21,-1
 251 -276 l 1,22,-1
 246 -276 l 1,23,-1
 241 -276 l 1,24,-1
 236 -276 l 1,25,-1
 236 -271 l 1,26,-1
 236 -266 l 1,27,-1
 236 -261 l 1,28,-1
 236 -256 l 1,29,-1
 236 1437 l 1,30,-1
 236 1442 l 1,31,-1
 236 1447 l 1,32,-1
 236 1452 l 1,33,-1
 236 1457 l 1,34,-1
 241 1457 l 1,35,-1
 246 1457 l 1,36,-1
 251 1457 l 1,37,-1
 256 1457 l 1,38,-1
 822 1457 l 1,39,-1
 827 1457 l 1,40,-1
 832 1457 l 1,41,-1
 837 1457 l 1,42,-1
 842 1457 l 1,43,-1
 842 1452 l 1,44,-1
 842 1447 l 1,45,-1
 842 1442 l 1,46,-1
 842 1437 l 1,47,-1
 842 1251 l 1,48,-1
 842 1246 l 1,49,-1
 842 1241 l 1,50,-1
 842 1236 l 1,51,-1
 842 1231 l 1,52,-1
 837 1231 l 1,53,-1
 832 1231 l 1,54,-1
 827 1231 l 1,55,-1
 822 1231 l 1,0,-1
EndSplineSet
EndChar

StartChar: backslash
Encoding: 92 92 63
Width: 1024
VWidth: 0
GlyphClass: 2
Flags: W
LayerCount: 2
Fore
SplineSet
404.588951926 1439.83760479 m 1,0,-1
 905.605315598 -253.217692007 l 1,1,-1
 907.488432139 -259.581197603 l 1,2,-1
 909.387912352 -266 l 1,3,-1
 902.693956176 -266 l 1,4,-1
 896 -266 l 1,5,-1
 629 -266 l 1,6,-1
 625.26528777 -266 l 1,7,-1
 621.530575539 -266 l 1,8,-1
 620.470811807 -262.418802397 l 1,9,-1
 619.411048074 -258.837604793 l 1,10,-1
 118.411048074 1434.16239521 l 1,11,-1
 116.511567861 1440.5811976 l 1,12,-1
 114.612087648 1447 l 1,13,-1
 121.306043824 1447 l 1,14,-1
 128 1447 l 1,15,-1
 395 1447 l 1,16,-1
 398.73471223 1447 l 1,17,-1
 402.469424461 1447 l 1,18,-1
 403.529188193 1443.4188024 l 1,19,-1
 404.588951926 1439.83760479 l 1,0,-1
EndSplineSet
EndChar

StartChar: bracketright
Encoding: 93 93 64
Width: 1024
VWidth: 0
GlyphClass: 2
Flags: W
LayerCount: 2
Fore
SplineSet
182 1251 m 1,0,-1
 182 1437 l 1,1,-1
 182 1442 l 1,2,-1
 182 1447 l 1,3,-1
 182 1452 l 1,4,-1
 182 1457 l 1,5,-1
 187 1457 l 1,6,-1
 192 1457 l 1,7,-1
 197 1457 l 1,8,-1
 202 1457 l 1,9,-1
 768 1457 l 1,10,-1
 773 1457 l 1,11,-1
 778 1457 l 1,12,-1
 783 1457 l 1,13,-1
 788 1457 l 1,14,-1
 788 1452 l 1,15,-1
 788 1447 l 1,16,-1
 788 1442 l 1,17,-1
 788 1437 l 1,18,-1
 788 -256 l 1,19,-1
 788 -261 l 1,20,-1
 788 -266 l 1,21,-1
 788 -271 l 1,22,-1
 788 -276 l 1,23,-1
 783 -276 l 1,24,-1
 778 -276 l 1,25,-1
 773 -276 l 1,26,-1
 768 -276 l 1,27,-1
 202 -276 l 1,28,-1
 197 -276 l 1,29,-1
 192 -276 l 1,30,-1
 187 -276 l 1,31,-1
 182 -276 l 1,32,-1
 182 -271 l 1,33,-1
 182 -266 l 1,34,-1
 182 -261 l 1,35,-1
 182 -256 l 1,36,-1
 182 -70 l 1,37,-1
 182 -65 l 1,38,-1
 182 -60 l 1,39,-1
 182 -55 l 1,40,-1
 182 -50 l 1,41,-1
 187 -50 l 1,42,-1
 192 -50 l 1,43,-1
 197 -50 l 1,44,-1
 202 -50 l 1,45,-1
 492 -50 l 1,46,-1
 492 1231 l 1,47,-1
 202 1231 l 1,48,-1
 197 1231 l 1,49,-1
 192 1231 l 1,50,-1
 187 1231 l 1,51,-1
 182 1231 l 1,52,-1
 182 1236 l 1,53,-1
 182 1241 l 1,54,-1
 182 1246 l 1,55,-1
 182 1251 l 1,0,-1
EndSplineSet
EndChar

StartChar: asciicircum
Encoding: 94 94 65
Width: 1024
VWidth: 0
GlyphClass: 2
Flags: W
LayerCount: 2
Fore
SplineSet
384 1290 m 1,0,-1
 640 1290 l 1,1,-1
 643.090169944 1290 l 1,2,-1
 646.180339887 1290 l 1,3,-1
 647.562305899 1287.23606798 l 1,4,-1
 648.94427191 1284.47213595 l 1,5,-1
 968.94427191 644.472135955 l 1,6,-1
 972.562305899 637.236067977 l 1,7,-1
 976.180339887 630 l 1,8,-1
 968.090169944 630 l 1,9,-1
 960 630 l 1,10,-1
 706 630 l 1,11,-1
 702.881728296 630 l 1,12,-1
 699.763456592 630 l 1,13,-1
 698.391597593 632.800289504 l 1,14,-1
 697.019738593 635.600579008 l 1,15,-1
 512 1013.26973614 l 1,16,-1
 326.980261407 635.600579008 l 1,17,-1
 325.608402407 632.800289504 l 1,18,-1
 324.236543408 630 l 1,19,-1
 321.118271704 630 l 1,20,-1
 318 630 l 1,21,-1
 64 630 l 1,22,-1
 55.9098300563 630 l 1,23,-1
 47.8196601125 630 l 1,24,-1
 51.4376941013 637.236067977 l 1,25,-1
 55.05572809 644.472135955 l 1,26,-1
 375.05572809 1284.47213595 l 1,27,-1
 376.437694101 1287.23606798 l 1,28,-1
 377.819660113 1290 l 1,29,-1
 380.909830056 1290 l 1,30,-1
 384 1290 l 1,0,-1
EndSplineSet
EndChar

StartChar: underscore
Encoding: 95 95 66
Width: 1024
VWidth: 0
GlyphClass: 2
Flags: W
LayerCount: 2
Fore
SplineSet
85 -42 m 1,0,-1
 939 -42 l 1,1,-1
 944 -42 l 1,2,-1
 949 -42 l 1,3,-1
 949 -47 l 1,4,-1
 949 -52 l 1,5,-1
 949 -256 l 1,6,-1
 949 -261 l 1,7,-1
 949 -266 l 1,8,-1
 944 -266 l 1,9,-1
 939 -266 l 1,10,-1
 85 -266 l 1,11,-1
 80 -266 l 1,12,-1
 75 -266 l 1,13,-1
 75 -261 l 1,14,-1
 75 -256 l 1,15,-1
 75 -52 l 1,16,-1
 75 -47 l 1,17,-1
 75 -42 l 1,18,-1
 80 -42 l 1,19,-1
 85 -42 l 1,0,-1
EndSplineSet
EndChar

StartChar: grave
Encoding: 96 96 67
Width: 1024
VWidth: 0
GlyphClass: 2
Flags: W
LayerCount: 2
Fore
SplineSet
245.928932188 1109.07106781 m 1,0,-1
 426.928932188 1290.07106781 l 1,1,-1
 430.717053942 1293.85918957 l 1,2,-1
 434.505175696 1297.64731132 l 1,3,-1
 438.02330714 1293.60720192 l 1,4,-1
 441.541438584 1289.56709251 l 1,5,-1
 778.541438584 902.567092514 l 1,6,-1
 781.606041539 899.047800692 l 1,7,-1
 784.670644495 895.528508871 l 1,8,-1
 781.370856153 892.22872053 l 1,9,-1
 778.071067812 888.928932188 l 1,10,-1
 647.071067812 757.928932188 l 1,11,-1
 643.77127947 754.629143847 l 1,12,-1
 640.471491129 751.329355505 l 1,13,-1
 636.952199308 754.393958461 l 1,14,-1
 633.432907486 757.458561416 l 1,15,-1
 246.432907486 1094.45856142 l 1,16,-1
 242.392798083 1097.97669286 l 1,17,-1
 238.35268868 1101.4948243 l 1,18,-1
 242.140810434 1105.28294606 l 1,19,-1
 245.928932188 1109.07106781 l 1,0,-1
EndSplineSet
EndChar

StartChar: a
Encoding: 97 97 68
Width: 1024
VWidth: 0
GlyphClass: 2
Flags: W
LayerCount: 2
Fore
SplineSet
195.9375 1015.70605469 m 1,0,-1
 199.823242188 1016.55078125 l 2,1,2
 270.8984375 1032 270.8984375 1032 388.01195757 1032 c 0,3,4
 435.916054049 1032 435.916054049 1032 479.99859565 1029.83789062 c 128,-1,5
 524.08113725 1027.67578125 524.08113725 1027.67578125 564.416212277 1023.34179688 c 128,-1,6
 604.750286112 1019.05078125 604.750286112 1019.05078125 641.295844447 1012.60839844 c 0,7,8
 749.858398438 993.237304688 749.858398438 993.237304688 821.822265625 954.190429688 c 0,9,10
 858.236328125 934.43359375 858.236328125 934.43359375 885.674804688 907.942382812 c 128,-1,11
 913.11328125 881.452148438 913.11328125 881.452148438 931.435546875 848.314453125 c 0,12,13
 940.587890625 831.76171875 940.587890625 831.76171875 947.454101562 813.58203125 c 128,-1,14
 954.3203125 795.403320312 954.3203125 795.403320312 958.880859375 775.671875 c 128,-1,15
 963.44140625 755.939453125 963.44140625 755.939453125 965.720703125 734.672851562 c 128,-1,16
 968 713.40625 968 713.40625 968 690.6015625 c 2,17,-1
 988 261.001953125 l 2,18,19
 988 247.125 988 247.125 987.333984375 234.140625 c 128,-1,20
 986.668945312 221.15625 986.668945312 221.15625 985.327148438 208.865234375 c 0,21,22
 982.6484375 184.302734375 982.6484375 184.302734375 977.227539062 162.690429688 c 128,-1,23
 971.787109375 140.997070312 971.787109375 140.997070312 963.590820312 122.458007812 c 0,24,25
 959.479492188 113.159179688 959.479492188 113.159179688 954.647460938 104.619140625 c 128,-1,26
 949.81640625 96.0791015625 949.81640625 96.0791015625 944.264648438 88.3046875 c 0,27,28
 932.54296875 72.392578125 932.54296875 72.392578125 919.174804688 60.384765625 c 0,29,30
 850.826171875 0 850.826171875 0 702 0 c 2,31,-1
 494 0 l 2,32,33
 291.372070312 0 291.372070312 0 186.087890625 86.9111328125 c 0,34,35
 80 174.485351562 80 174.485351562 80 328.653320312 c 0,36,37
 80 459.583984375 80 459.583984375 187.572265625 537.810546875 c 0,38,39
 293.715820312 615 293.715820312 615 481.745677982 615 c 2,40,-1
 690.418393188 615 l 1,41,-1
 690.418393188 694.028320312 l 2,42,43
 690.418393188 729.985351562 690.418393188 729.985351562 672.265757218 755.2578125 c 128,-1,44
 654.113121248 780.530273438 654.113121248 780.530273438 617.140053368 795.858398438 c 0,45,46
 578.583097666 811.842773438 578.583097666 811.842773438 521.217724373 819.921875 c 128,-1,47
 463.851349887 828 463.851349887 828 388.01195757 828 c 2,48,-1
 202 828 l 1,49,-1
 197 828 l 1,50,-1
 192 828 l 1,51,-1
 192 833 l 1,52,-1
 192 837.754882812 l 1,53,-1
 192 1007.02929688 l 1,54,-1
 192 1010.8203125 l 1,55,-1
 192 1014.85058594 l 1,56,-1
 195.9375 1015.70605469 l 1,0,-1
692 256.047851562 m 2,57,-1
 692 409 l 1,58,-1
 494 409 l 2,59,60
 478.222350149 409 478.222350149 409 464.132937903 407.440429688 c 128,-1,61
 450.042487381 405.880859375 450.042487381 405.880859375 437.652733783 402.779296875 c 0,62,63
 413.046618763 396.622070312 413.046618763 396.622070312 394.769837351 384.467773438 c 0,64,65
 376.810768552 372.525390625 376.810768552 372.525390625 368.087169312 357.530273438 c 128,-1,66
 359.413407344 342.62109375 359.413407344 342.62109375 359.413407344 323.978515625 c 0,67,68
 359.413407344 303.150390625 359.413407344 303.150390625 363.421154674 285.62890625 c 128,-1,69
 367.428902004 268.107421875 367.428902004 268.107421875 375.312535547 254.014648438 c 128,-1,70
 383.19616909 239.920898438 383.19616909 239.920898438 394.998258184 228.946289062 c 0,71,72
 412.682183708 212.500976562 412.682183708 212.500976562 437.336059447 204.25 c 128,-1,73
 461.988896909 196 461.988896909 196 494 196 c 2,74,-1
 623 196 l 2,75,76
 692 196 692 196 692 256.047851562 c 2,57,-1
EndSplineSet
EndChar

StartChar: b
Encoding: 98 98 69
Width: 1024
VWidth: 0
GlyphClass: 2
Flags: W
LayerCount: 2
Fore
SplineSet
96 1280 m 1,0,-1
 101 1280 l 1,1,-1
 106 1280 l 1,2,-1
 362.949484396 1280 l 1,3,-1
 368.218865664 1280 l 1,4,-1
 373.34799724 1280 l 1,5,-1
 373.34799724 1275 l 1,6,-1
 373.34799724 1270 l 1,7,-1
 373.34799724 1011.00878906 l 1,8,9
 450.653627214 1024 450.653627214 1024 531.559667126 1024 c 0,10,11
 735.302397586 1024 735.302397586 1024 859.866210938 890.370117188 c 0,12,13
 984 757.102539062 984 757.102539062 984 535.638671875 c 1,14,15
 1004.078125 290.619140625 1004.078125 290.619140625 873.47265625 145.515625 c 0,16,17
 741.601146643 0 741.601146643 0 510 0 c 2,18,-1
 382 0 l 2,19,20
 233.170898438 0 233.170898438 0 164.821289062 60.6103515625 c 0,21,22
 96 121.639648438 96 121.639648438 96 261.90625 c 2,23,-1
 96 1270 l 1,24,-1
 96 1275 l 1,25,-1
 96 1280 l 1,0,-1
706.63335707 535.994140625 m 1,26,27
 706.63335707 684.16015625 706.63335707 684.16015625 659.690783529 757.255859375 c 0,28,29
 636.842105211 792.833007812 636.842105211 792.833007812 604.964352109 810.416992188 c 128,-1,30
 573.086599006 828 573.086599006 828 531.559667126 828 c 0,31,32
 505.437160294 828 505.437160294 828 478.64345851 825.8359375 c 128,-1,33
 451.848754942 823.671875 451.848754942 823.671875 425.500846821 819.5 c 128,-1,34
 399.152938699 815.328125 399.152938699 815.328125 373.415116735 809.231445312 c 1,35,-1
 392 256.103515625 l 2,36,37
 392 196 392 196 510 196 c 0,38,39
 612.018248831 196 612.018248831 196 668.315566304 280.291015625 c 0,40,41
 726.054052705 366.739257812 726.054052705 366.739257812 706.641371338 535.720703125 c 0,42,-1
 706.63335707 535.994140625 l 1,26,27
EndSplineSet
EndChar

StartChar: c
Encoding: 99 99 70
Width: 1024
VWidth: 0
GlyphClass: 2
Flags: W
LayerCount: 2
Fore
SplineSet
112 512.116210938 m 0,0,1
 112 752.821289062 112 752.821289062 266.245117188 892.586914062 c 0,2,3
 424.535780217 1032 424.535780217 1032 705 1032 c 0,4,5
 757.384765625 1032 757.384765625 1032 804.84765625 1027.96484375 c 0,6,7
 810.759765625 1027.4609375 810.759765625 1027.4609375 816.254882812 1026.95898438 c 128,-1,8
 821.75 1026.45605469 821.75 1026.45605469 826.856445312 1025.95214844 c 128,-1,9
 831.96484375 1025.44824219 831.96484375 1025.44824219 836.662109375 1024.9453125 c 0,10,11
 839.010742188 1024.69238281 839.010742188 1024.69238281 841.262695312 1024.43945312 c 128,-1,12
 843.514648438 1024.18652344 843.514648438 1024.18652344 845.666992188 1023.93359375 c 128,-1,13
 847.822265625 1023.68066406 847.822265625 1023.68066406 849.877929688 1023.42675781 c 128,-1,14
 851.932617188 1023.17285156 851.932617188 1023.17285156 853.885742188 1022.91796875 c 0,15,16
 857.798828125 1022.40917969 857.798828125 1022.40917969 861.314453125 1021.89746094 c 0,17,18
 863.076171875 1021.640625 863.076171875 1021.640625 864.740234375 1021.38378906 c 128,-1,19
 866.403320312 1021.12597656 866.403320312 1021.12597656 867.96875 1020.86816406 c 0,20,21
 871.109375 1020.34863281 871.109375 1020.34863281 873.806640625 1019.8359375 c 2,22,-1
 895.744140625 1016.05566406 l 1,23,-1
 899.849609375 1015.34765625 l 1,24,-1
 904 1014.63183594 l 1,25,-1
 904 1010.41992188 l 1,26,-1
 904 1006.46484375 l 1,27,-1
 904 837.739257812 l 1,28,-1
 904 833 l 1,29,-1
 904 828 l 1,30,-1
 899 828 l 1,31,-1
 894 828 l 1,32,-1
 705 828 l 2,33,34
 560.78500994 828 560.78500994 828 475.403465815 743.599609375 c 0,35,36
 389.814834498 658.994140625 389.814834498 658.994140625 389.814834498 512 c 0,37,38
 389.814834498 454.267578125 389.814834498 454.267578125 398.957986565 407.73046875 c 0,39,40
 408.059721194 361.40234375 408.059721194 361.40234375 425.947003666 326.588867188 c 0,41,42
 434.852763099 309.254882812 434.852763099 309.254882812 445.916270053 294.6796875 c 128,-1,43
 456.980787188 280.104492188 456.980787188 280.104492188 470.211133297 268.248046875 c 0,44,45
 550.827651646 196 550.827651646 196 705 196 c 2,46,-1
 894 196 l 1,47,-1
 899 196 l 1,48,-1
 904 196 l 1,49,-1
 904 191 l 1,50,-1
 904 186.245117188 l 1,51,-1
 904 16.970703125 l 1,52,-1
 904 13.15625 l 1,53,-1
 904 9.1025390625 l 1,54,-1
 900.033203125 8.2646484375 l 1,55,-1
 896.119140625 7.4375 l 2,56,57
 823.071289062 -8 823.071289062 -8 705 -8 c 0,58,59
 689.880859375 -8 689.880859375 -8 675.044921875 -7.6640625 c 128,-1,60
 660.208984375 -7.328125 660.208984375 -7.328125 645.221024253 -6.65625 c 128,-1,61
 630.165280312 -5.984375 630.165280312 -5.984375 615.406529709 -4.9755859375 c 0,62,63
 570.843386378 -1.9501953125 570.843386378 -1.9501953125 530.321978923 4.1201171875 c 128,-1,64
 489.755113304 10.08203125 489.755113304 10.08203125 453.29261481 19.0390625 c 0,65,66
 344.438476562 46.0439453125 344.438476562 46.0439453125 267.803710938 105.67578125 c 0,67,68
 229.213867188 135.703125 229.213867188 135.703125 200.041992188 176.270507812 c 128,-1,69
 170.869140625 216.837890625 170.869140625 216.837890625 151.15625 267.813476562 c 0,70,71
 112 369.0625 112 369.0625 112 512.116210938 c 0,0,1
EndSplineSet
EndChar

StartChar: d
Encoding: 100 100 71
Width: 1024
VWidth: 0
GlyphClass: 2
Flags: W
LayerCount: 2
Fore
SplineSet
968 1280 m 1,0,-1
 968 1275 l 1,1,-1
 968 1270.02441406 l 1,2,-1
 988 253.827148438 l 2,3,4
 988 239.83984375 988 239.83984375 987.333007812 226.682617188 c 128,-1,5
 986.666015625 213.525390625 986.666015625 213.525390625 985.327148438 201.110351562 c 0,6,7
 982.6484375 176.258789062 982.6484375 176.258789062 977.228515625 154.393554688 c 128,-1,8
 971.788085938 132.447265625 971.788085938 132.447265625 963.591796875 113.689453125 c 128,-1,9
 955.361328125 94.85546875 955.361328125 94.85546875 944.267578125 79.1357421875 c 128,-1,10
 933.137695312 63.3662109375 933.137695312 63.3662109375 919.178710938 50.8876953125 c 0,11,12
 884.858398438 20.208984375 884.858398438 20.208984375 833.030273438 5 c 0,13,14
 781.202148438 0 781.202148438 0 702 0 c 2,15,-1
 574 0 l 2,16,17
 343.07342353 0 343.07342353 0 210.837890625 132.436523438 c 0,18,19
 80 264.765625 80 264.765625 80 488.461914062 c 0,20,21
 80 731.342773438 80 731.342773438 203.828125 877.27734375 c 0,22,23
 328.391896935 1024 328.391896935 1024 532.299933162 1024 c 0,24,25
 613.15830756 1024 613.15830756 1024 690.418393188 1011.00878906 c 1,26,-1
 690.418393188 1270 l 1,27,-1
 690.418393188 1275 l 1,28,-1
 690.418393188 1280 l 1,29,-1
 695.544502954 1280 l 1,30,-1
 700.810779784 1280 l 1,31,-1
 958 1280 l 1,32,-1
 963 1280 l 1,33,-1
 968 1280 l 1,0,-1
692 256.057617188 m 2,34,-1
 690.422397961 809.21484375 l 1,35,36
 650.60894465 818.651367188 650.60894465 818.651367188 611.226004464 823.325195312 c 128,-1,37
 571.843064278 828 571.843064278 828 532.299933162 828 c 0,38,39
 523.439372336 828 523.439372336 828 515.013329408 826.93359375 c 128,-1,40
 506.586285287 825.866210938 506.586285287 825.866210938 498.544700592 823.71875 c 128,-1,41
 490.503115896 821.5703125 490.503115896 821.5703125 482.886037166 818.338867188 c 128,-1,42
 475.268958436 815.106445312 475.268958436 815.106445312 468.036337938 810.772460938 c 128,-1,43
 460.804718633 806.4375 460.804718633 806.4375 453.986592167 801.001953125 c 128,-1,44
 447.169466895 795.565429688 447.169466895 795.565429688 440.737801048 789.006835938 c 128,-1,45
 434.305134007 782.447265625 434.305134007 782.447265625 428.277950259 774.76953125 c 128,-1,46
 422.250766511 767.090820312 422.250766511 767.090820312 416.609042188 758.268554688 c 128,-1,47
 410.966316673 749.4453125 410.966316673 749.4453125 405.721064902 739.486328125 c 0,48,49
 381.599314396 693.69140625 381.599314396 693.69140625 369.555960026 630.797851562 c 128,-1,50
 357.511604463 567.904296875 357.511604463 567.904296875 358.213597633 488.005859375 c 0,51,52
 358.213597633 442.255859375 358.213597633 442.255859375 364.765622705 403.0234375 c 128,-1,53
 371.317647776 363.790039062 371.317647776 363.790039062 384.306714408 331.279296875 c 128,-1,54
 397.294763487 298.768554688 397.294763487 298.768554688 416.730029658 272.720703125 c 0,55,56
 473.97146752 196 473.97146752 196 574 196 c 0,57,58
 692 196 692 196 692 256.057617188 c 2,34,-1
EndSplineSet
EndChar

